<svg width="24" height="24" viewBox="0 0 24 24" fill="none" xmlns="http://www.w3.org/2000/svg">
<path d="M13.9875 17.715C14.2481 17.715 14.498 17.6115 14.6822 17.4272C14.8665 17.243 14.97 16.9931 14.97 16.7325C14.97 16.4719 14.8665 16.222 14.6822 16.0378C14.498 15.8535 14.2481 15.75 13.9875 15.75C13.7269 15.75 13.477 15.8535 13.2928 16.0378C13.1085 16.222 13.005 16.4719 13.005 16.7325C13.005 16.9931 13.1085 17.243 13.2928 17.4272C13.477 17.6115 13.7269 17.715 13.9875 17.715ZM10.995 16.7325C10.995 16.8615 10.9696 16.9893 10.9202 17.1085C10.8708 17.2277 10.7985 17.336 10.7072 17.4272C10.616 17.5185 10.5077 17.5908 10.3885 17.6402C10.2693 17.6896 10.1415 17.715 10.0125 17.715C9.88348 17.715 9.75572 17.6896 9.63651 17.6402C9.51731 17.5908 9.409 17.5185 9.31777 17.4272C9.22653 17.336 9.15416 17.2277 9.10479 17.1085C9.05541 16.9893 9.03 16.8615 9.03 16.7325C9.03 16.4719 9.13351 16.222 9.31777 16.0378C9.50202 15.8535 9.75193 15.75 10.0125 15.75C10.2731 15.75 10.523 15.8535 10.7072 16.0378C10.8915 16.222 10.995 16.4719 10.995 16.7325ZM13.1775 19.2075C13.1775 19.4681 13.074 19.718 12.8897 19.9022C12.7055 20.0865 12.4556 20.19 12.195 20.19C11.9344 20.19 11.6845 20.0865 11.5003 19.9022C11.316 19.718 11.2125 19.4681 11.2125 19.2075C11.2125 18.9469 11.316 18.697 11.5003 18.5128C11.6845 18.3285 11.9344 18.225 12.195 18.225C12.4556 18.225 12.7055 18.3285 12.8897 18.5128C13.074 18.697 13.1775 18.9469 13.1775 19.2075ZM9.2325 20.19C9.49308 20.19 9.74298 20.0865 9.92723 19.9022C10.1115 19.718 10.215 19.4681 10.215 19.2075C10.215 18.9469 10.1115 18.697 9.92723 18.5128C9.74298 18.3285 9.49308 18.225 9.2325 18.225C8.97193 18.225 8.72202 18.3285 8.53777 18.5128C8.35351 18.697 8.25 18.9469 8.25 19.2075C8.25 19.4681 8.35351 19.718 8.53777 19.9022C8.72202 20.0865 8.97193 20.19 9.2325 20.19Z" fill="black"/>
<path d="M12.75 1.5V5.25H18.75C18.9489 5.25 19.1397 5.32902 19.2803 5.46967C19.421 5.61032 19.5 5.80109 19.5 6C19.5 6.19891 19.421 6.38968 19.2803 6.53033C19.1397 6.67098 18.9489 6.75 18.75 6.75L17.25 21.75C17.1772 22.2038 16.875 22.5 16.5 22.5H7.5C7.125 22.5 6.807 22.1723 6.75 21.75L5.25 6.75C5.05109 6.75 4.86032 6.67098 4.71967 6.53033C4.57902 6.38968 4.5 6.19891 4.5 6C4.5 5.80109 4.57902 5.61032 4.71967 5.46967C4.86032 5.32902 5.05109 5.25 5.25 5.25H11.25V1.5H12.75ZM6.92625 8.4375L8.1825 21H15.8175L15.9375 19.806C15.8075 19.9755 15.6257 20.098 15.4198 20.1549C15.2139 20.2118 14.995 20.2001 14.7964 20.1214C14.5978 20.0428 14.4302 19.9016 14.319 19.7191C14.2078 19.5367 14.1592 19.323 14.1804 19.1104C14.2016 18.8978 14.2915 18.698 14.4365 18.5411C14.5815 18.3842 14.7736 18.2788 14.9839 18.241C15.1941 18.2031 15.411 18.2348 15.6016 18.3313C15.7922 18.4277 15.9462 18.5837 16.0402 18.7755L17.0737 8.4375H6.92625Z" fill="black"/>
</svg>
