<svg width="28" height="28" viewBox="0 0 28 28" fill="none" xmlns="http://www.w3.org/2000/svg">
<circle cx="14.0391" cy="14" r="11.5" fill="#873A19" stroke="#2C1F1A"/>
<path d="M6.66228 11.8433L6.90562 11.9291C7.23484 11.9005 7.52112 11.8576 7.76446 11.786C8.12232 11.7001 8.48017 11.5856 8.82371 11.4138C8.93822 11.3423 9.05273 11.2993 9.10999 11.2993C9.28176 11.2993 9.59667 11.3995 9.99746 11.5713C10.1835 11.6858 10.2837 11.8289 10.2837 11.9721C10.2837 12.1295 10.2122 12.3013 10.0977 12.4731C9.94021 12.745 9.81138 13.0886 9.69687 13.5037L9.41059 14.7776C9.41059 14.7776 9.43921 14.792 9.46784 14.792C9.63961 14.9065 9.73981 15.021 9.73981 15.1069C9.73981 15.1784 9.71118 15.2071 9.65393 15.2071C9.41059 15.2071 9.19587 15.2357 8.98116 15.2786L8.03643 15.4218C7.85035 15.4504 7.70721 15.479 7.62132 15.479C7.53544 15.479 7.46387 15.479 7.43524 15.4647C7.42092 15.5792 7.40661 15.6651 7.37798 15.7367C7.30641 15.8512 7.26347 15.9085 7.1919 15.9085C7.0917 15.9085 7.00582 15.8512 6.93424 15.7367C6.7911 15.5649 6.73385 15.3788 6.73385 15.1641L6.57639 14.0333C6.50482 13.4464 6.41894 13.06 6.34737 12.8166C6.29011 12.5733 6.1756 12.3299 5.98951 12.1152C5.90363 12.0866 5.875 12.0437 5.875 12.015C5.875 11.8576 5.93226 11.7717 6.06108 11.7717C6.26148 11.7717 6.47619 11.8003 6.64796 11.8719L6.66228 11.8433ZM8.45154 14.6631L8.68057 14.6059V14.5773C8.75214 14.0619 8.82371 13.6182 8.85234 13.2174C8.88096 12.8596 8.90959 12.5303 8.90959 12.2584C8.90959 12.1868 8.85234 12.1439 8.76645 12.1439C8.58037 12.1439 8.35134 12.1725 8.07937 12.2441C7.67858 12.3442 7.3923 12.4015 7.1919 12.4158L7.24916 12.8452C7.34935 13.7184 7.42092 14.3912 7.44955 14.8778C7.80741 14.8492 8.15094 14.7776 8.46585 14.6775L8.45154 14.6631ZM12.2591 14.0619C12.2591 14.2194 12.1875 14.4914 12.0587 14.9065C11.8154 15.6222 11.4718 16.4667 11.0281 17.4114C10.9136 17.7693 10.7704 18.2417 10.5987 18.7999C10.4841 19.1721 10.3553 19.3439 10.2265 19.3439C10.069 19.3439 9.89727 19.1721 9.7255 18.7999C9.48216 18.1987 9.38196 17.7979 9.38196 17.6262C9.38196 17.4687 9.45353 17.3399 9.6253 17.2254C9.96884 17.025 10.2837 16.7387 10.5128 16.3951C10.8849 15.9371 11.3716 15.1355 11.9871 14.0476C12.0587 13.9617 12.1016 13.9045 12.1589 13.9045C12.2305 13.9045 12.2591 13.9617 12.2591 14.0476V14.0619ZM10.8563 10.9415C11.3 11.0989 11.615 11.2564 11.8154 11.3995C12.0158 11.5856 12.1303 11.8433 12.1303 12.1725C12.1303 12.5446 11.9728 12.7164 11.7008 12.7164C11.5863 12.7164 11.4575 12.6592 11.343 12.5303C11.0853 12.3299 10.7418 11.8433 10.3124 11.1276C10.2408 11.056 10.2265 11.013 10.2265 10.9558C10.2265 10.8842 10.2837 10.8413 10.341 10.8413C10.4841 10.8413 10.6559 10.8699 10.8563 10.9415ZM11.572 8.26473C12.0158 8.40787 12.3593 8.52238 12.574 8.66552C12.7744 8.83729 12.9032 9.08063 12.9032 9.36691C12.9032 9.73908 12.7458 9.91085 12.4738 9.91085C12.3307 9.91085 12.2162 9.85359 12.1016 9.73908C11.8297 9.53868 11.4861 9.10926 11.0424 8.4365C10.9708 8.37924 10.9422 8.3363 10.9422 8.27904C10.9422 8.20747 10.9995 8.16453 11.0567 8.16453C11.2142 8.16453 11.3859 8.19316 11.5863 8.26473H11.572ZM14.6066 11.4568L14.7068 11.514C16.081 11.3279 17.1259 11.1705 17.8416 11.0274C18.1279 10.9701 18.2997 10.9415 18.3569 10.9415C18.543 10.9415 18.8579 11.0846 19.2873 11.3566C19.4734 11.4711 19.5736 11.6285 19.5736 11.8003C19.5736 11.8862 19.5164 12.0007 19.4591 12.1439C19.3016 12.3872 19.2158 12.7594 19.1871 13.3176L19.1299 14.1765C19.4448 14.1478 19.7167 14.1049 19.9601 14.0619C20.1891 14.0333 20.3179 14.0047 20.3609 14.0047C20.4181 14.0047 20.6472 14.0906 21.0623 14.248C21.4058 14.4198 21.5776 14.5773 21.5776 14.7347C21.5776 14.8778 21.3342 14.9351 20.8762 14.9351C20.3323 14.9351 19.7311 14.9208 19.0869 14.9208C19.0154 15.8655 18.9724 16.6528 18.9008 17.2969L19.9171 17.3256C20.0173 17.3399 20.2034 17.4258 20.4897 17.5832C20.8189 17.7836 20.9907 17.984 20.9907 18.1128C20.9907 18.3419 20.8762 18.4421 20.6615 18.4421C20.5756 18.4421 20.4181 18.4134 20.2034 18.3276C19.6881 18.2274 19.2444 18.1272 18.8436 18.0556C18.772 18.6854 18.7004 19.1148 18.6432 19.3295C18.4428 19.9594 18.1851 20.446 17.8702 20.7896C17.6126 21.0615 17.4122 21.2047 17.2404 21.2047C17.1545 21.2047 17.0686 21.1188 16.9971 20.9757C16.4531 20.2886 16.038 19.8448 15.7804 19.6015C15.6802 19.5299 15.6372 19.5013 15.6372 19.487C15.6372 19.4154 15.6659 19.3868 15.7517 19.3868C15.8233 19.3868 15.9808 19.4154 16.1955 19.487C16.6535 19.6301 16.9398 19.6731 17.04 19.6731C17.1402 19.6731 17.2833 19.5586 17.4408 19.3152C17.6126 19.0433 17.7557 18.5995 17.8845 17.984C17.2977 17.9554 16.7108 17.9268 16.1668 17.9268C15.7088 17.9268 15.1219 17.9983 14.4205 18.1272C14.0054 18.2703 13.6619 18.4134 13.3899 18.6138C13.2181 18.7856 13.1179 18.8572 13.0607 18.8572C12.9605 18.8572 12.8889 18.7999 12.8603 18.6997C12.7744 18.6138 12.7458 18.3848 12.7458 18.0413C12.7458 17.8695 12.7744 17.7264 12.8603 17.6405C13.0464 17.4114 13.2181 17.0536 13.3899 16.5669C13.5474 16.1518 13.6619 15.7367 13.7621 15.3645C13.5187 15.4218 13.347 15.4361 13.2754 15.4361C13.1179 15.4361 12.9032 15.3645 12.6026 15.2357C12.2734 15.0926 12.116 14.9924 12.116 14.8922C12.116 14.792 12.2162 14.7347 12.4452 14.7061C13.0177 14.7061 13.4901 14.6918 13.8766 14.6488C13.9625 14.0333 14.0197 13.5466 14.0197 13.2031C14.0197 12.516 13.9338 12.015 13.7907 11.7001C13.7621 11.6285 13.7191 11.5856 13.7191 11.5427C13.7191 11.4281 13.8193 11.3566 14.034 11.3566C14.1199 11.3566 14.306 11.4138 14.6209 11.4997L14.6066 11.4568ZM15.2937 6.99077C15.7088 7.26274 15.9092 7.49177 15.9092 7.67785C15.9092 7.74942 15.8806 7.8353 15.809 7.90687C15.7231 8.02139 15.6372 8.16453 15.5513 8.3363C15.3653 8.75141 15.1792 9.10926 15.0074 9.42417C15.8376 9.26672 16.8253 9.02338 18.0277 8.67984C18.4714 8.57964 18.7148 8.52238 18.772 8.52238C18.8436 8.52238 19.1156 8.59395 19.5593 8.72278C19.8313 8.89455 19.9744 9.00906 19.9744 9.08063C19.9744 9.19514 19.8742 9.26672 19.6595 9.30966C18.8006 9.38123 17.6555 9.553 16.2384 9.81065C15.537 9.95379 15.1505 9.99674 15.1219 9.99674C14.9645 9.99674 14.807 9.98242 14.6782 9.93948C14.578 10.0826 14.4921 10.2114 14.4205 10.3116C14.1056 10.7554 13.7621 11.1419 13.3899 11.4425C13.1179 11.6715 12.9462 11.7717 12.8603 11.7717C12.7887 11.7717 12.7601 11.7574 12.7601 11.7144C12.7601 11.7001 12.7744 11.6429 12.846 11.5713C13.1179 11.1419 13.3899 10.6409 13.7048 10.0683C13.9768 9.553 14.2201 8.9518 14.4492 8.26473C14.5637 7.84962 14.6352 7.47745 14.6352 7.09097C14.6352 6.90489 14.7068 6.80469 14.8356 6.80469C14.9501 6.80469 15.1076 6.87626 15.2937 6.97646V6.99077ZM18.042 17.0536C18.1136 16.4524 18.1565 15.751 18.1995 14.9208C17.6555 14.9351 17.0257 14.978 16.3243 15.0067C15.7517 15.0353 15.1792 15.0926 14.578 15.1928C14.4062 15.9943 14.1772 16.7673 13.9195 17.4973C13.9195 17.5832 13.9482 17.6118 14.034 17.6118C15.0647 17.4114 15.9521 17.2826 16.6822 17.254C17.1402 17.254 17.5983 17.2683 17.9991 17.2683L18.0277 17.0393L18.042 17.0536ZM17.6555 14.291C17.8559 14.291 18.0563 14.2767 18.2281 14.2623C18.2424 13.6468 18.2567 12.9741 18.2567 12.2584C18.2567 11.9864 18.2424 11.8146 18.2281 11.7287C18.1995 11.7001 18.1136 11.6572 17.9991 11.6572C17.5124 11.6572 16.5963 11.7717 15.2221 11.9864L14.9931 12.0437C14.9788 12.1868 14.9645 12.3586 14.9358 12.516C14.8786 13.2317 14.7927 13.9045 14.6925 14.5629C15.58 14.4627 16.582 14.3769 17.6412 14.3053L17.6555 14.291ZM16.081 12.6592C16.4531 12.7594 16.7537 12.8452 16.9255 12.9454C17.0973 13.0886 17.1832 13.2604 17.1832 13.4608C17.1832 13.8186 17.0257 13.9904 16.7537 13.9904C16.6535 13.9904 16.5533 13.9617 16.4674 13.8472C16.2384 13.6898 15.9665 13.3462 15.6229 12.8166C15.5513 12.788 15.537 12.7307 15.537 12.7021C15.537 12.6305 15.5943 12.5876 15.6802 12.5876C15.7947 12.5876 15.9378 12.6162 16.0953 12.6592H16.081ZM16.1382 15.4934C16.5533 15.5936 16.8396 15.7224 17.0257 15.8226C17.2118 15.98 17.312 16.1804 17.312 16.4238C17.312 16.7816 17.1545 16.9534 16.8682 16.9534C16.768 16.9534 16.6678 16.8961 16.5533 16.7959C16.31 16.6242 15.9808 16.252 15.6086 15.6651C15.537 15.6079 15.5227 15.5649 15.5227 15.522C15.5227 15.4504 15.58 15.4075 15.6659 15.4075C15.809 15.4075 15.9521 15.4361 16.1239 15.4934H16.1382Z" fill="white"/>
</svg>
