<svg width="16" height="17" viewBox="0 0 16 17" fill="none" xmlns="http://www.w3.org/2000/svg">
<path d="M5.9987 15.1673C5.82189 15.1673 5.65232 15.0971 5.52729 14.9721C5.40227 14.847 5.33203 14.6775 5.33203 14.5007V12.5007H2.66536C2.31174 12.5007 1.9726 12.3602 1.72256 12.1101C1.47251 11.8601 1.33203 11.5209 1.33203 11.1673V3.16732C1.33203 2.8137 1.47251 2.47456 1.72256 2.22451C1.9726 1.97446 2.31174 1.83398 2.66536 1.83398H13.332C13.6857 1.83398 14.0248 1.97446 14.2748 2.22451C14.5249 2.47456 14.6654 2.8137 14.6654 3.16732V11.1673C14.6654 11.5209 14.5249 11.8601 14.2748 12.1101C14.0248 12.3602 13.6857 12.5007 13.332 12.5007H9.26536L6.7987 14.974C6.66536 15.1007 6.4987 15.1673 6.33203 15.1673H5.9987ZM6.66536 11.1673V13.2207L8.7187 11.1673H13.332V3.16732H2.66536V11.1673H6.66536Z" fill="black"/>
</svg>
