<svg width="28" height="28" viewBox="0 0 28 28" fill="none" xmlns="http://www.w3.org/2000/svg">
<g style="mix-blend-mode:luminosity">
<path d="M14.3808 27.0507C21.5681 27.0507 27.3945 21.2243 27.3945 14.0371C27.3945 6.84984 21.5681 1.02344 14.3808 1.02344C7.19359 1.02344 1.36719 6.84984 1.36719 14.0371C1.36719 21.2243 7.19359 27.0507 14.3808 27.0507Z" fill="#C14141" stroke="#2C1F1A" stroke-width="0.607727" stroke-miterlimit="10"/>
<path d="M5.01514 19.3444C5.01514 19.3444 3.33196 18.2212 3.02014 17.6135C2.70832 17.0058 3.16014 15.208 4.07014 14.8612C4.98014 14.5144 5.66423 14.7339 5.66423 14.7339L7.58287 11.9785L13.0556 5.57031L21.3761 9.43304L21.9011 13.0794L22.127 14.5399C22.127 14.5399 23.1165 14.823 23.0847 16.3185C23.0529 17.8139 22.2161 18.8353 22.2161 18.8353L21.7101 20.2862C21.7101 20.2862 21.9742 22.6089 21.0038 23.4521C20.0333 24.2953 16.8674 25.8671 15.9511 25.8512C15.0347 25.8353 15.2192 25.8512 15.2192 25.8512C15.2192 25.8512 14.8915 25.0876 14.0197 24.9794C13.1479 24.8712 12.432 25.7589 12.432 25.7589C12.432 25.7589 12.3079 24.763 11.5124 24.4512C10.717 24.1394 9.9056 24.6453 9.9056 24.6453C9.9056 24.6453 10.2206 23.3439 9.17696 22.8317C8.13332 22.3194 7.48105 22.9239 7.48105 22.9239L6.84469 22.0744C6.84469 22.0744 5.36832 20.6967 5.01514 19.3412V19.3444Z" fill="#FFE9DA"/>
<path d="M8.60358 21.1759C9.58414 21.1759 10.379 20.381 10.379 19.4005C10.379 18.4199 9.58414 17.625 8.60358 17.625C7.62302 17.625 6.82812 18.4199 6.82812 19.4005C6.82812 20.381 7.62302 21.1759 8.60358 21.1759Z" fill="#E48585"/>
<path d="M14.2972 14.3558C13.7531 14.394 13.1995 14.1999 12.4231 14.1013C11.6468 14.0058 10.8322 14.0249 9.97951 14.4703C9.12678 14.9158 8.60178 15.4981 8.60178 15.4981C8.3186 15.7208 8.84678 15.7208 9.48633 15.584C9.65178 15.549 9.8236 15.4822 10.0145 15.4026C9.94769 15.584 9.90633 15.7781 9.90633 15.9849C9.90633 16.8885 10.6127 17.6172 11.4813 17.6172C12.35 17.6172 13.0563 16.8853 13.0563 15.9849C13.0563 15.6222 13.0404 15.2881 12.9259 15.0176C13.6291 15.0653 13.9218 15.024 14.1604 14.9444C14.45 14.8426 14.8413 14.3144 14.2972 14.3558Z" fill="#2C1F1A"/>
<path d="M20.6753 14.3952C20.179 14.4238 20.0167 14.1502 19.4726 14.1088C18.5372 14.0388 18.0917 14.5002 18.0917 14.5002C17.9931 14.5829 17.8817 14.6974 17.7544 14.8597C17.449 15.2511 16.9908 15.9224 16.9176 16.8452C16.8762 17.3924 17.2072 18.1179 17.3631 18.3692C17.5858 18.7288 17.2612 19.3238 17.4394 19.5211C17.6176 19.7183 17.9135 19.187 17.9549 18.9165C18.0599 18.207 17.6431 17.5133 17.5922 17.1538C17.5572 16.8961 17.5794 16.6574 17.6399 16.4315C17.7258 17.0456 18.0758 17.5197 18.5562 17.5929C19.1926 17.6852 19.8131 17.0392 19.9435 16.1452C20.0231 15.6011 19.969 15.1047 19.7303 14.7706C19.8385 14.8215 19.9181 14.8788 20.0803 14.9106C20.4208 14.9806 20.7994 14.7961 20.8917 14.7165C20.984 14.637 21.1622 14.3633 20.669 14.392L20.6753 14.3952Z" fill="#2C1F1A"/>
<path d="M12.5979 20.8779C12.7315 20.7666 13.0402 21.1834 13.3902 21.4157C13.6479 21.5875 14.2652 21.8579 15.0797 21.8993C15.8942 21.9407 16.6197 21.597 16.9156 21.5557C17.1352 21.5238 17.2752 21.6829 16.9156 21.9916C16.5402 22.3161 15.6842 22.4657 14.7361 22.3893C13.6224 22.3034 13.0211 21.737 12.7856 21.4793C12.5915 21.2661 12.4738 20.9797 12.5979 20.8747V20.8779Z" fill="#2C1F1A"/>
<path d="M21.2682 15.014C21.1186 15.2908 21.0168 15.7935 21.0009 16.6876C20.985 17.5817 21.1027 19.1376 21.2968 19.8758C21.4527 20.4644 21.8982 21.7085 20.635 23.2103C19.3718 24.7121 17.4945 25.2371 17.2782 25.479C17.0618 25.7208 17.2559 25.9817 17.6154 25.9149C17.975 25.848 19.8936 25.1512 20.5491 24.4544C21.2045 23.7576 21.8791 22.9462 22.0763 21.8453C22.2736 20.7444 21.8345 18.9117 21.7486 18.0653C21.5768 16.3694 21.6818 15.8412 21.6595 15.2971C21.6372 14.753 21.3795 14.8071 21.2682 15.014Z" fill="#2C1F1A"/>
<path d="M6.84526 22.0938C7.05526 21.6738 7.73617 22.6633 8.1848 23.1151C8.78935 23.7197 9.8648 24.3624 11.0134 24.776C12.4834 25.3042 13.3871 25.3838 14.6153 25.5142C15.8434 25.6447 16.5371 25.4474 16.5784 25.756C16.6166 26.0615 16.1616 26.2206 15.538 26.1888C14.8157 26.1538 13.8039 26.0933 12.0793 25.6956C11.3062 25.5174 9.27617 24.6265 8.30889 23.9742C7.34162 23.3219 6.7148 22.3515 6.84526 22.0938Z" fill="#2C1F1A"/>
<path d="M21.6951 14.5552C22.026 14.1925 22.796 13.8552 23.286 14.9943C23.776 16.1334 23.7697 17.5302 22.8565 18.7011C21.9433 19.872 21.1415 19.1816 21.4501 18.9143C21.7588 18.647 22.376 18.4307 22.6401 17.702C22.9042 16.9734 23.0092 15.9998 22.7578 15.4493C22.5065 14.8989 22.0165 14.9911 21.7778 15.1343C21.5392 15.2775 21.3292 14.9561 21.6919 14.5552H21.6951Z" fill="#2C1F1A"/>
<path d="M5.66471 14.7333C5.66471 14.7333 5.25107 14.011 4.00698 14.3769C2.76289 14.7428 2.07562 16.4292 2.65153 17.616C3.19562 18.736 3.33562 19.3087 4.39834 19.5219C5.88744 19.821 5.62653 19.3183 4.8438 18.8823C3.88607 18.3478 3.3738 17.7592 3.26562 17.0655C3.1288 16.2001 3.76516 14.9719 4.78016 15.1883C5.59789 15.3633 5.79198 14.9433 5.66471 14.7333Z" fill="#2C1F1A"/>
<path d="M9.12096 12.1125C9.52505 11.6002 11.1319 11.1929 11.7173 11.2566C12.3028 11.3202 12.2328 11.7084 11.8382 11.7879C11.4437 11.8675 9.93551 12.3447 9.55369 12.5611C9.17187 12.7775 8.86005 12.4402 9.11778 12.1125H9.12096Z" fill="#2C1F1A"/>
<path d="M20.3075 12.4946C19.9511 12.3546 19.0602 12.011 18.7356 11.9442C18.4111 11.8774 18.252 11.2601 18.7356 11.1869C19.2193 11.1137 20.352 11.6133 20.6161 11.9442C20.8802 12.2751 20.8197 12.6951 20.3075 12.4946Z" fill="#2C1F1A"/>
<path d="M22.1263 14.5452C22.2695 14.4689 22.3808 14.313 22.4636 14.138C22.5272 14.2652 22.5686 14.3066 22.5686 14.3066C22.5686 14.3066 24.1499 13.5684 22.9663 8.37887C21.8781 3.60614 15.9981 0.780688 14.6904 2.52432C14.6904 2.52432 13.4208 0.465688 7.52493 2.52432C1.62902 4.58614 0.779475 12.3275 0.671293 13.8739C0.559929 15.4234 1.01493 20.9439 3.8022 22.0575C5.2372 22.6302 6.43993 22.2357 6.92675 22.0161C7.02538 21.9716 7.03175 21.8348 6.93947 21.7807C6.52266 21.5293 5.86402 20.8611 5.39311 19.5693C5.25947 19.2066 3.15629 18.0452 3.13084 17.1321C3.06402 14.8221 4.53084 15.1371 5.16402 15.0798C5.19266 17.1893 5.71129 19.9352 5.99766 20.3202C6.31902 20.7498 7.75402 21.9684 7.97038 21.8984C8.18675 21.8284 7.8972 21.5039 7.75402 18.6339C7.61084 15.7639 7.97038 12.7157 7.97038 12.7157C9.58357 11.8566 12.7749 7.26523 12.759 6.72751C12.7717 7.49114 12.7717 8.21023 12.7527 8.59205C12.6954 9.65796 12.2404 11.4366 12.269 11.5957C12.2977 11.7516 12.6254 11.8089 12.7686 11.7802C12.9117 11.7516 13.5067 10.6411 13.5354 9.48933C13.5354 9.48933 13.5767 11.0548 13.6054 11.3539C13.634 11.653 13.8695 11.7389 14.5631 11.6943C15.2567 11.653 15.8549 11.6084 16.0967 11.4398C16.3386 11.268 16.4372 10.1448 16.4372 10.1448C16.4372 10.1448 16.4945 11.1948 16.6472 11.3252C16.7999 11.4557 17.0513 11.5861 17.6145 11.5734C18.1808 11.5607 18.3813 11.338 18.4036 11.0898C18.4258 10.8416 18.4736 9.08523 18.4736 8.38842C18.4736 8.38842 18.8395 9.32069 18.9572 10.0875C19.0749 10.8543 19.0527 11.0548 19.0877 11.233C19.1227 11.4111 19.5013 11.4557 19.6413 11.3761C19.7145 11.3348 19.7813 10.4884 19.6636 9.24114C19.7654 9.37478 19.8672 9.50842 19.9722 9.62614C20.5831 10.323 21.0636 10.9275 21.4199 11.4875C21.6299 12.3052 21.0795 13.228 21.369 14.5484C21.6554 15.8689 21.369 17.8448 21.369 17.8448L21.8399 21.2811C21.8399 21.2811 22.4604 21.2111 22.5558 21.1189C22.6513 21.0266 22.2536 19.4166 22.2122 18.8471C22.1708 18.2775 21.6808 14.7871 22.1231 14.5484L22.1263 14.5452Z" fill="#2C1F1A"/>
<path d="M9.40776 22.5372C8.31003 21.8754 7.11049 22.6104 6.90049 23.4536C6.69367 24.2999 6.90049 25.2386 7.90912 25.614C8.92094 25.9895 9.64958 25.3786 10.0664 24.8154C10.2382 24.5799 10.5055 23.1958 9.40776 22.534V22.5372ZM9.3664 24.6277C8.97821 25.1145 8.26549 25.0222 8.00458 24.8758C7.5114 24.599 7.47321 23.8672 7.77867 23.4695C8.08412 23.0718 8.66321 22.9795 9.02276 23.1386C9.61776 23.409 9.65594 24.2649 9.36958 24.6245L9.3664 24.6277Z" fill="#2C1F1A"/>
<path d="M11.8242 24.2584C10.8855 23.6921 9.85779 24.3189 9.67961 25.0443C9.50143 25.7666 9.67961 26.5716 10.5419 26.893C11.4073 27.2143 12.031 26.6925 12.3873 26.2089C12.5369 26.0084 12.7628 24.8248 11.8242 24.2584ZM11.7701 26.0816C11.5569 26.4125 11.0096 26.4889 10.5514 26.1739C10.3414 26.0307 10.0232 25.5152 10.3955 25.0284C10.6564 24.688 11.2896 24.5511 11.5664 24.7389C12.0692 25.0825 11.9864 25.7475 11.7701 26.0816Z" fill="#2C1F1A"/>
<path d="M14.7086 24.78C13.6427 24.1372 12.4782 24.85 12.2745 25.6709C12.0709 26.4918 12.2745 27.405 13.2545 27.7709C14.2345 28.1368 14.9473 27.5418 15.3482 26.9945C15.5168 26.7654 15.7745 25.4227 14.7086 24.78ZM14.6768 26.8259C14.4318 27.2013 13.77 27.3509 13.3468 27.0295C12.9586 26.7368 12.8313 26.0241 13.1273 25.6359C13.4232 25.2477 14.0118 25.1809 14.3618 25.3368C14.9409 25.5977 14.9218 26.4472 14.6768 26.8227V26.8259Z" fill="#2C1F1A"/>
<path d="M9.36064 24.6255C8.97246 25.1123 8.25973 25.02 7.99882 24.8737C7.50564 24.5968 7.46746 23.865 7.77291 23.4673C8.07836 23.0696 8.65746 22.9773 9.017 23.1364C9.612 23.4068 9.65018 24.2627 9.36382 24.6223L9.36064 24.6255Z" fill="#E5FBFF"/>
<path d="M11.7572 26.0758C11.544 26.4067 10.9967 26.4831 10.5385 26.1681C10.3285 26.0249 10.0104 25.5094 10.3826 25.0226C10.6435 24.6822 11.2767 24.5453 11.5535 24.7331C12.0563 25.0767 11.9735 25.7417 11.7572 26.0758Z" fill="#E5FBFF"/>
<path d="M14.6734 26.825C14.4284 27.2004 13.7666 27.35 13.3434 27.0286C12.9552 26.7359 12.828 26.0231 13.1239 25.635C13.4198 25.2468 14.0084 25.18 14.3584 25.3359C14.9375 25.5968 14.9184 26.4463 14.6734 26.8218V26.825Z" fill="#E5FBFF"/>
<path d="M21.2979 19.8714C21.1707 19.391 21.0752 18.5637 21.0307 17.7969C21.0211 17.7969 21.0116 17.7969 21.002 17.7969C20.022 17.7969 19.2266 18.5923 19.2266 19.5723C19.2266 20.5523 20.022 21.3478 21.002 21.3478C21.1738 21.3478 21.3393 21.3223 21.4952 21.2778C21.5397 20.6701 21.3807 20.1832 21.3011 19.8746L21.2979 19.8714Z" fill="#E48585"/>
</g>
</svg>
