<svg width="16" height="17" viewBox="0 0 16 17" fill="none" xmlns="http://www.w3.org/2000/svg">
<path d="M8.06536 12.7495L7.9987 12.8161L7.92536 12.7495C4.7587 9.87615 2.66536 7.97615 2.66536 6.04948C2.66536 4.71615 3.66536 3.71615 4.9987 3.71615C6.02536 3.71615 7.02536 4.38281 7.3787 5.28948H8.6187C8.97203 4.38281 9.97203 3.71615 10.9987 3.71615C12.332 3.71615 13.332 4.71615 13.332 6.04948C13.332 7.97615 11.2387 9.87615 8.06536 12.7495ZM10.9987 2.38281C9.8387 2.38281 8.72536 2.92281 7.9987 3.76948C7.27203 2.92281 6.1587 2.38281 4.9987 2.38281C2.94536 2.38281 1.33203 3.98948 1.33203 6.04948C1.33203 8.56281 3.5987 10.6228 7.03203 13.7361L7.9987 14.6161L8.96536 13.7361C12.3987 10.6228 14.6654 8.56281 14.6654 6.04948C14.6654 3.98948 13.052 2.38281 10.9987 2.38281Z" fill="black"/>
</svg>
