<?xml version="1.0" encoding="utf-8"?>
<!-- Generator: Adobe Illustrator 25.0.0, SVG Export Plug-In . SVG Version: 6.00 Build 0)  -->
<svg version="1.1" id="圖層_1" xmlns="http://www.w3.org/2000/svg" xmlns:xlink="http://www.w3.org/1999/xlink" x="0px" y="0px"
	 viewBox="0 0 80 13" style="enable-background:new 0 0 80 13;" xml:space="preserve">
<style type="text/css">
	.st0{fill-rule:evenodd;clip-rule:evenodd;}
	.st1{opacity:0.35;fill:none;stroke:#000000;enable-background:new    ;}
	.st2{opacity:0.4;enable-background:new    ;}
</style>
<path d="M10.8,3c0-0.6,0.4-1,1-1h1c0.6,0,1,0.4,1,1v8c0,0.6-0.4,1-1,1h-1c-0.6,0-1-0.4-1-1V3z"/>
<path d="M15.8,1c0-0.6,0.4-1,1-1h1c0.6,0,1,0.4,1,1v10c0,0.6-0.4,1-1,1h-1c-0.6,0-1-0.4-1-1V1z"/>
<path d="M5.8,6.5c0-0.6,0.4-1,1-1h1c0.6,0,1,0.4,1,1V11c0,0.6-0.4,1-1,1h-1c-0.6,0-1-0.4-1-1V6.5z"/>
<path d="M0.8,9c0-0.6,0.4-1,1-1h1c0.6,0,1,0.4,1,1v2c0,0.6-0.4,1-1,1h-1c-0.6,0-1-0.4-1-1V9z"/>
<path class="st0" d="M35.3,2.6c2.5,0,4.8,1,6.6,2.7c0.1,0.1,0.3,0.1,0.5,0L43.7,4c0.1-0.1,0.1-0.2,0.1-0.3c0-0.1,0-0.2-0.1-0.3
	c-4.7-4.6-12.1-4.6-16.8,0c-0.1,0.1-0.1,0.2-0.1,0.3c0,0.1,0,0.2,0.1,0.3l1.3,1.3c0.1,0.1,0.3,0.1,0.5,0C30.5,3.6,32.8,2.6,35.3,2.6
	z M35.3,6.6C36.7,6.6,38,7.1,39,8c0.1,0.1,0.3,0.1,0.5,0l1.3-1.3c0.1-0.1,0.1-0.2,0.1-0.3c0-0.1,0-0.2-0.1-0.3
	c-3.1-2.9-7.8-2.9-10.9,0c-0.1,0.1-0.1,0.2-0.1,0.3c0,0.1,0,0.2,0.1,0.3L31.2,8c0.1,0.1,0.3,0.1,0.5,0C32.7,7.1,34,6.6,35.3,6.6z
	 M37.9,9.2c0,0.1,0,0.2-0.1,0.3l-2.2,2.3c-0.1,0.1-0.2,0.1-0.2,0.1c-0.1,0-0.2,0-0.2-0.1l-2.2-2.3c-0.1-0.1-0.1-0.2-0.1-0.3
	s0-0.2,0.1-0.3c1.4-1.2,3.5-1.2,4.9,0C37.9,9,37.9,9.1,37.9,9.2z"/>
<path class="st1" d="M52.3,4c0-1.9,1.6-3.5,3.5-3.5h17c1.9,0,3.5,1.6,3.5,3.5v5c0,1.9-1.6,3.5-3.5,3.5h-17c-1.9,0-3.5-1.6-3.5-3.5V4
	z"/>
<path class="st2" d="M77.8,5v4.2c0.8-0.4,1.4-1.2,1.4-2.1S78.6,5.4,77.8,5z"/>
<path d="M53.8,4c0-1.1,0.9-2,2-2h17c1.1,0,2,0.9,2,2v5c0,1.1-0.9,2-2,2h-17c-1.1,0-2-0.9-2-2V4z"/>
</svg>
