<svg width="16" height="17" viewBox="0 0 16 17" fill="none" xmlns="http://www.w3.org/2000/svg">
<path d="M7.9987 4.83398C8.44073 4.83398 8.86465 5.00958 9.17721 5.32214C9.48977 5.6347 9.66536 6.05862 9.66536 6.50065C9.66536 6.71952 9.62226 6.93625 9.5385 7.13846C9.45474 7.34067 9.33197 7.5244 9.17721 7.67916C9.02245 7.83393 8.83871 7.95669 8.6365 8.04045C8.43429 8.12421 8.21757 8.16732 7.9987 8.16732C7.55667 8.16732 7.13275 7.99172 6.82019 7.67916C6.50763 7.3666 6.33203 6.94268 6.33203 6.50065C6.33203 6.05862 6.50763 5.6347 6.82019 5.32214C7.13275 5.00958 7.55667 4.83398 7.9987 4.83398ZM7.9987 1.83398C9.23637 1.83398 10.4234 2.32565 11.2985 3.20082C12.1737 4.07599 12.6654 5.26297 12.6654 6.50065C12.6654 10.0007 7.9987 15.1673 7.9987 15.1673C7.9987 15.1673 3.33203 10.0007 3.33203 6.50065C3.33203 5.26297 3.8237 4.07599 4.69887 3.20082C5.57404 2.32565 6.76102 1.83398 7.9987 1.83398ZM7.9987 3.16732C7.11464 3.16732 6.2668 3.51851 5.64168 4.14363C5.01655 4.76875 4.66536 5.6166 4.66536 6.50065C4.66536 7.16732 4.66536 8.50065 7.9987 12.974C11.332 8.50065 11.332 7.16732 11.332 6.50065C11.332 5.6166 10.9808 4.76875 10.3557 4.14363C9.7306 3.51851 8.88275 3.16732 7.9987 3.16732Z" fill="#AF3737"/>
</svg>
