<svg width="24" height="24" viewBox="0 0 24 24" fill="none" xmlns="http://www.w3.org/2000/svg">
<path d="M15.541 4.15996C15.6867 4.25378 15.8055 4.38384 15.8858 4.53741C15.9661 4.69098 16.0051 4.86278 15.999 5.03596L15.986 5.16796L15.268 9.39296C15.2222 9.66315 15.2324 9.93988 15.298 10.206L15.357 10.403L17.167 15.453C18.047 15.627 18.827 15.853 19.434 16.13C19.8 16.297 20.158 16.506 20.438 16.776C20.719 17.047 21 17.459 21 18C21 18.848 20.337 19.37 19.88 19.64C19.357 19.949 18.666 20.193 17.9 20.384C16.352 20.771 14.266 21 12 21C9.734 21 7.648 20.771 6.1 20.384C5.334 20.193 4.643 19.949 4.12 19.64C3.663 19.37 3 18.848 3 18C3 17.46 3.28 17.047 3.562 16.776C3.842 16.506 4.2 16.296 4.566 16.13C5.098 15.887 5.761 15.684 6.508 15.52L6.834 15.452L9.294 8.58596C9.55124 7.86764 10.0086 7.23788 10.612 6.77096L10.818 6.62196L14.44 4.17196C14.6021 4.06229 14.7928 4.00259 14.9885 4.00028C15.1843 3.99797 15.3763 4.05414 15.541 4.15996ZM15.423 16.516C14.44 16.83 13.247 17 12 17C10.753 17 9.56 16.83 8.577 16.516L8.522 16.67C8.46202 16.8378 8.35826 16.9866 8.22148 17.1009C8.08469 17.2151 7.91984 17.2908 7.744 17.32C6.707 17.491 5.908 17.716 5.396 17.95C5.296 17.995 5.45 18.079 5.678 18.166L5.888 18.239L6.214 18.341L6.586 18.444C7.933 18.781 9.848 19 12 19C14.009 19 15.81 18.81 17.137 18.51L17.457 18.433L17.786 18.341L18.002 18.275L18.22 18.203C18.5 18.103 18.717 18.001 18.604 17.95C18.092 17.716 17.294 17.491 16.256 17.32C16.0802 17.2908 15.9153 17.2151 15.7785 17.1009C15.6417 16.9866 15.538 16.8378 15.478 16.67L15.423 16.516ZM13.622 7.13996L11.939 8.27996C11.6384 8.48339 11.3989 8.76477 11.246 9.09396L11.177 9.26196L9.252 14.632C9.972 14.853 10.922 15.002 12 15.002C12.959 15.002 13.816 14.884 14.5 14.704L14.748 14.633L13.474 11.078C13.2715 10.5131 13.1987 9.90982 13.261 9.31296L13.296 9.05896L13.622 7.13996ZM19.222 6.43096C19.6514 7.3255 20.3092 8.09092 21.129 8.64996L21.355 8.79696C21.618 8.95696 21.663 9.00296 21.433 9.15496L21.355 9.20396C20.5099 9.72293 19.8166 10.4556 19.345 11.328L19.116 11.777C19.006 11.968 18.948 11.922 18.778 11.569C18.3486 10.6744 17.6908 9.909 16.871 9.34996L16.645 9.20396C16.359 9.02796 16.355 8.98196 16.573 8.84196L16.645 8.79696C17.5686 8.22964 18.3091 7.4082 18.778 6.43096C18.948 6.07796 19.005 6.03196 19.116 6.22296L19.183 6.35096L19.222 6.43096ZM7.597 3.66496L7.667 3.78796C7.981 4.36796 8.455 4.86396 9.043 5.23296L9.269 5.36396C9.461 5.46896 9.5 5.49996 9.339 5.59596L9.269 5.63596C8.66869 5.95719 8.16031 6.42633 7.792 6.99896L7.591 7.34296C7.514 7.45896 7.473 7.44896 7.403 7.33496L7.333 7.21296C7.00739 6.62012 6.53321 6.12216 5.957 5.76796L5.617 5.56896C5.546 5.52096 5.54 5.48896 5.61 5.43696L5.73 5.36396C6.33068 5.04287 6.83941 4.57372 7.208 4.00096L7.333 3.78796C7.465 3.54496 7.507 3.51896 7.597 3.66496Z" fill="black"/>
</svg>
