<svg width="28" height="28" viewBox="0 0 28 28" fill="none" xmlns="http://www.w3.org/2000/svg">
<circle cx="14.0195" cy="13.9805" r="11.5195" fill="#873A19" stroke="#2C1F1A"/>
<path d="M6.76987 10.0536C6.76987 10.0536 6.89335 10.1154 6.97053 10.1308C7.46446 10.0999 7.89665 10.0227 8.26709 9.93014C8.74559 9.82209 9.20865 9.6523 9.65627 9.43621C9.84149 9.32816 9.96498 9.26642 10.0576 9.26642C10.2582 9.26642 10.6287 9.3899 11.1689 9.63687C11.4159 9.79122 11.5394 9.93014 11.5394 10.1154C11.5394 10.316 11.4622 10.5167 11.3233 10.7482C11.1381 11.0878 10.9683 11.5045 10.8602 12.0293L10.428 13.789L10.4126 13.8198C10.5978 13.9742 10.6904 14.0977 10.6904 14.1903C10.6904 14.2675 10.6596 14.3138 10.5824 14.3138C10.2428 14.3138 9.94954 14.3446 9.67171 14.3909L8.43688 14.5762C8.17448 14.607 8.00469 14.6379 7.89665 14.6379H7.72686V14.7151C7.72686 14.9157 7.69599 15.0701 7.63425 15.1781C7.55707 15.3325 7.51076 15.3788 7.43359 15.3788C7.32554 15.3788 7.21749 15.3016 7.14032 15.1627C6.98596 14.962 6.92422 14.7305 6.89335 14.499L6.69269 12.9555C6.61552 12.1837 6.52291 11.6435 6.43029 11.3039C6.36855 10.9643 6.22963 10.671 5.9981 10.3778C5.89006 10.316 5.84375 10.2697 5.84375 10.2234C5.84375 10.0382 5.92093 9.94557 6.09071 9.94557C6.33768 9.94557 6.55377 9.97644 6.75443 10.0536H6.76987ZM8.99255 13.6037L9.51736 13.4957V13.4031C9.60997 12.7548 9.68714 12.1837 9.71801 11.7052C9.74888 11.2576 9.79519 10.8563 9.79519 10.5167C9.79519 10.4086 9.71801 10.3315 9.59453 10.3315C9.34757 10.3315 9.05429 10.3932 8.68385 10.4858C8.09731 10.6093 7.66512 10.6865 7.40272 10.7328L7.46446 11.3656C7.57251 12.4461 7.66512 13.295 7.71142 13.897C8.15905 13.8353 8.60667 13.7427 9.00799 13.6192L8.99255 13.6037ZM20.6925 8.97315C21.0938 9.18924 21.3254 9.3436 21.3254 9.45164C21.3254 9.63687 21.171 9.74491 20.924 9.79122C20.7388 9.8684 20.3992 9.88383 19.9208 9.88383C18.9638 9.88383 17.9605 9.96101 16.9263 10.0845L17.0807 10.1462C17.2967 10.2234 17.4202 10.4086 17.4202 10.671C17.4202 10.7636 17.4048 10.918 17.3585 11.1032C17.2659 11.3502 17.235 11.7669 17.235 12.3689C17.235 13.8661 17.2504 15.0547 17.2967 15.9345C17.3276 16.8915 17.3739 17.8639 17.3739 18.8517C17.3739 19.8396 17.2504 20.5805 17.0035 20.9509C16.6176 21.4294 16.278 21.6764 16.0002 21.6764C15.8304 21.6764 15.6915 21.5684 15.568 21.3368C15.213 20.7812 14.7345 20.2255 14.1479 19.5926C13.9627 19.4383 13.8701 19.3148 13.8701 19.1605C13.8701 19.0833 13.901 19.0524 13.9782 19.0524C14.0553 19.0524 14.1634 19.0833 14.3332 19.145C14.9815 19.4846 15.4136 19.6389 15.5989 19.6389C15.7841 19.6389 15.9384 19.4537 16.0002 19.0524C16.1082 18.4967 16.1854 16.8915 16.1854 14.2212C16.1854 12.8165 16.0774 11.7052 15.8921 10.8717C15.815 10.6093 15.7687 10.4241 15.7687 10.2851C14.7345 10.4549 13.9936 10.5784 13.5768 10.6865C13.3916 10.7482 13.2681 10.7636 13.191 10.7636C13.0366 10.7636 12.8051 10.6865 12.4655 10.5012C12.1722 10.3469 12.0179 10.2388 12.0179 10.1462C12.0179 10.0691 12.1259 10.0227 12.3883 9.97644C13.3762 9.85296 14.503 9.68317 15.7687 9.45164C17.6518 9.11207 18.8711 8.89597 19.4114 8.78792C19.6275 8.72618 19.7818 8.69531 19.8127 8.69531C19.9825 8.69531 20.2758 8.78792 20.708 8.97315H20.6925Z" fill="white"/>
</svg>
