<svg width="32" height="40" viewBox="0 0 32 40" fill="none" xmlns="http://www.w3.org/2000/svg">
<path d="M14.9336 9.0577C14.9336 9.0577 15.8753 4.31057 17.7921 1.55752C17.9607 1.31507 18.1926 1.12356 18.4667 1.01464C18.8813 0.849489 19.5665 0.744076 20.5486 0.932063C21.5307 1.12005 22.0929 1.58036 22.3125 1.91417C22.4109 2.06526 22.5427 2.36042 22.2915 2.75923C21.7416 3.63065 19.6719 6.5102 18.8198 9.00499L14.9354 9.0577H14.9336Z" fill="#6B411E"/>
<path d="M17.8788 9.019C18.7397 7.35346 20.5563 3.94509 22.1252 1.69275C21.83 1.39935 21.3082 1.07784 20.551 0.932015C20.4842 0.919716 20.421 0.910932 20.3577 0.900391C19.207 2.88217 17.1637 6.51718 16.1289 9.04183L17.8788 9.01724V9.019Z" fill="#AA7C57"/>
<path d="M14.9336 9.0577C14.9336 9.0577 15.8753 4.31057 17.7921 1.55752C17.9607 1.31507 18.1926 1.12356 18.4667 1.01464C18.8813 0.849489 19.5665 0.744076 20.5486 0.932063C21.5307 1.12005 22.0929 1.58036 22.3125 1.91417C22.4109 2.06526 22.5427 2.36042 22.2915 2.75923C21.7416 3.63065 19.6719 6.5102 18.8198 9.00499L14.9354 9.0577H14.9336Z" stroke="#352314" stroke-width="0.614513" stroke-miterlimit="10"/>
<path d="M5.99854 8.61487C6.10923 8.267 6.36574 7.98239 6.7013 7.84008C8.56361 7.04596 16.3502 5.09054 24.1648 9.71995C26.5612 11.1395 27.3676 12.4361 27.6944 13.1547C27.8648 13.5324 27.8631 13.9629 27.6979 14.3423C26.7475 16.5262 23.5956 22.294 21.7561 35.657C21.7561 35.657 21.4979 38.4469 13.0859 38.4469C3.81824 38.4469 2.96615 35.0737 2.96615 35.0737C2.96615 35.0737 1.92782 21.4683 5.99854 8.61487Z" fill="url(#paint0_linear_3360_4402)"/>
<path d="M6.9047 10.459C6.9047 10.459 6.54629 10.5222 6.43385 11.0142C6.32141 11.5061 8.46482 13.2156 15.6874 14.2943C22.91 15.373 25.3837 15.0585 25.3837 15.0585" stroke="#BBA78E" stroke-width="0.307256" stroke-miterlimit="10" stroke-linecap="round"/>
<path d="M19.1868 19.2131C16.7851 17.1382 14.5223 18.3381 11.7095 19.0918C8.89668 19.8473 9.58363 16.8272 11.9835 16.279C14.3852 15.7309 14.0409 14.0847 11.9835 13.3292C10.0861 12.6335 7.6651 13.5699 5.65873 15.6255C5.34073 15.9505 5.12112 16.3616 5.04382 16.8096C3.46964 25.8014 3.87548 33.6793 3.94751 34.8494C4.16185 35.2535 5.66927 37.4496 13.0834 37.4496C18.8811 37.4496 20.5888 36.0511 20.7698 35.4959C21.6254 29.2836 22.5952 25.2427 23.6757 21.8642C23.753 21.6218 23.8478 20.8821 23.2769 20.4886C22.2719 19.7946 21.4479 21.1685 19.1851 19.2131H19.1868Z" fill="url(#paint1_linear_3360_4402)"/>
<path d="M17.2634 36.0054C18.1338 36.0054 18.8394 35.2998 18.8394 34.4294C18.8394 33.5591 18.1338 32.8535 17.2634 32.8535C16.3931 32.8535 15.6875 33.5591 15.6875 34.4294C15.6875 35.2998 16.3931 36.0054 17.2634 36.0054Z" fill="url(#paint2_radial_3360_4402)"/>
<path d="M15.6854 26.7204C16.9031 26.7204 17.8903 25.7332 17.8903 24.5154C17.8903 23.2977 16.9031 22.3105 15.6854 22.3105C14.4676 22.3105 13.4805 23.2977 13.4805 24.5154C13.4805 25.7332 14.4676 26.7204 15.6854 26.7204Z" fill="url(#paint3_radial_3360_4402)"/>
<path d="M8.08859 22.308C9.00261 22.308 9.74358 21.5671 9.74358 20.653C9.74358 19.739 9.00261 18.998 8.08859 18.998C7.17456 18.998 6.43359 19.739 6.43359 20.653C6.43359 21.5671 7.17456 22.308 8.08859 22.308Z" fill="url(#paint4_radial_3360_4402)"/>
<path d="M17.4284 29.9408C18.584 29.9408 19.5209 29.004 19.5209 27.8483C19.5209 26.6927 18.584 25.7559 17.4284 25.7559C16.2728 25.7559 15.3359 26.6927 15.3359 27.8483C15.3359 29.004 16.2728 29.9408 17.4284 29.9408Z" fill="url(#paint5_radial_3360_4402)"/>
<path d="M10.3696 34.3036C11.1691 34.3036 11.8172 33.6554 11.8172 32.8559C11.8172 32.0563 11.1691 31.4082 10.3696 31.4082C9.57002 31.4082 8.92188 32.0563 8.92188 32.8559C8.92188 33.6554 9.57002 34.3036 10.3696 34.3036Z" fill="url(#paint6_radial_3360_4402)"/>
<path d="M8.08728 32.8523C9.34577 32.8523 10.366 31.8321 10.366 30.5736C10.366 29.3151 9.34577 28.2949 8.08728 28.2949C6.8288 28.2949 5.80859 29.3151 5.80859 30.5736C5.80859 31.8321 6.8288 32.8523 8.08728 32.8523Z" fill="url(#paint7_radial_3360_4402)"/>
<path d="M13.0866 38.449C16.7901 38.449 19.1233 37.8359 20.0246 37.3545C20.1598 37.2104 20.1809 36.982 20.209 36.8169C21.1595 30.9734 23.2572 21.0927 27.4562 12.6982C27.0135 11.9516 26.1157 10.8763 24.1656 9.72031C23.1325 9.10715 22.0994 8.61346 21.0804 8.21289C17.9514 14.3831 13.7929 24.7786 12.7387 37.9501C12.7247 38.1152 12.7545 38.312 12.4453 38.442C12.5718 38.442 12.9566 38.4473 13.0866 38.4473V38.449Z" fill="#E4C5B7" fill-opacity="0.36"/>
<path d="M7.00977 7.39258C9.4893 6.51753 16.8924 5.05517 24.3213 9.45605C26.7675 10.9051 27.6189 12.2475 27.9736 13.0273L27.9746 13.0283C28.1817 13.4873 28.1782 14.0082 27.9795 14.4648C27.0306 16.645 23.895 22.3779 22.0615 35.6895V35.6943C22.0611 35.6981 22.0603 35.7029 22.0596 35.708C22.0581 35.7182 22.0557 35.7309 22.0527 35.7461C22.0468 35.7769 22.0376 35.8181 22.0225 35.8672C21.9921 35.9656 21.9395 36.0973 21.8486 36.25C21.666 36.557 21.3344 36.94 20.7383 37.3125C19.5523 38.0537 17.3181 38.7539 13.0859 38.7539C8.41906 38.7539 5.82634 37.9058 4.38965 37.0225C3.67009 36.58 3.24267 36.1295 2.99316 35.7783C2.86895 35.6034 2.78947 35.4544 2.74023 35.3447C2.7157 35.2901 2.69892 35.2451 2.6875 35.2119C2.68183 35.1954 2.67792 35.1814 2.6748 35.1709C2.67324 35.1656 2.6719 35.1609 2.6709 35.1572C2.67041 35.1554 2.66931 35.1537 2.66895 35.1523V35.1504L2.66797 35.1494L2.66211 35.123L2.66016 35.0967L2.65918 35.0938C2.65905 35.092 2.65941 35.0891 2.65918 35.0859C2.65867 35.0791 2.65815 35.0688 2.65723 35.0557C2.65534 35.0289 2.65178 34.9894 2.64844 34.9375C2.64175 34.8335 2.63334 34.6794 2.62305 34.4795C2.60247 34.0797 2.57748 33.4951 2.56055 32.7539C2.52667 31.2715 2.52438 29.1618 2.64941 26.6494C2.89941 21.6266 3.65994 14.9832 5.70605 8.52246V8.52148C5.84351 8.08978 6.16199 7.73547 6.58105 7.55762L7.00977 7.39258Z" stroke="#352314" stroke-width="0.614513" stroke-miterlimit="10"/>
<path d="M28.7738 14.5597C29.0084 14.0488 29.0047 13.4695 28.7683 12.9691C28.1422 11.6559 26.8234 10.4253 24.849 9.3122C21.2659 7.29325 17.3208 6.27148 13.1263 6.27148C9.72233 6.27148 7.05715 6.98426 6.01915 7.40561C5.52601 7.60575 5.14923 8.00076 4.9867 8.48707C4.77984 9.1068 4.5582 9.82309 4.3772 10.4463C4.29593 10.7237 4.73551 11.0994 4.75952 11.0029C5.27113 8.8417 9.12022 8.55378 12.0403 8.55378C16.6041 8.55378 20.6102 9.73004 24.5073 11.9842C26.2047 12.9656 27.2242 14.2104 27.7931 15.4147C27.8171 15.4674 27.3868 15.901 28.0406 15.7729C28.2253 15.7377 28.3657 15.4217 28.3971 15.3568C28.5467 15.0495 28.6741 14.7862 28.7775 14.5597H28.7738Z" fill="url(#paint8_linear_3360_4402)"/>
<path d="M4.66797 10.1452C4.66797 10.1452 4.97902 9.50499 6.20841 8.94171C8.00991 8.11605 12.2239 7.91663 14.7882 8.23675C17.9061 8.62509 20.8852 9.68166 22.4664 10.4444C24.0475 11.207 26.8414 12.5732 27.9875 15.1587" stroke="#A78B75" stroke-width="0.307256" stroke-miterlimit="10" stroke-linecap="round"/>
<path d="M25.1676 9.34089C23.8952 8.55901 22.5363 8.06401 21.1891 7.59762C20.924 8.23866 20.6278 8.98319 20.3461 9.71392C20.2943 9.84852 20.2126 9.94825 20.0947 10.0247C21.6954 10.5706 23.3736 11.3769 24.9243 12.3567C25.6703 12.8288 26.1881 13.2621 26.6862 13.8345C26.8242 13.8823 26.8462 13.7602 26.9148 13.5833C27.1523 12.9679 27.5896 12.0926 27.8462 11.4917C27.1831 10.7417 26.2368 9.9978 25.1676 9.34089Z" fill="#FFEBDD" fill-opacity="0.64"/>
<path d="M13.126 5.96387C17.3719 5.96387 21.3689 6.9995 24.999 9.04492H25C26.8756 10.1024 28.2056 11.2849 28.9121 12.5771L29.0449 12.8369L29.0459 12.8379C29.3147 13.4069 29.3222 14.0621 29.0693 14.6445C29.0652 14.6588 29.0629 14.6738 29.0566 14.6875C28.9514 14.9179 28.8222 15.1845 28.6729 15.4912C28.66 15.5179 28.6071 15.6359 28.5303 15.749C28.4912 15.8065 28.4394 15.8728 28.375 15.9307C28.312 15.9872 28.219 16.05 28.0986 16.0732L28.0996 16.0742C28.0066 16.0924 27.9212 16.103 27.8447 16.1035C27.7713 16.104 27.6847 16.0957 27.6025 16.0586C27.5105 16.0171 27.4303 15.9415 27.3916 15.833C27.3573 15.7366 27.3682 15.6476 27.3809 15.5928C27.3962 15.5264 27.4254 15.4627 27.4502 15.416C26.8967 14.3085 25.9346 13.1642 24.3535 12.25C20.4993 10.0206 16.5454 8.86133 12.04 8.86133C10.5841 8.86133 8.92334 8.93389 7.57031 9.2666C6.1927 9.60538 5.27079 10.1779 5.05859 11.0732L5.05762 11.0771C5.03854 11.1537 4.98856 11.2356 4.89844 11.2852C4.81885 11.3289 4.74229 11.328 4.69922 11.3232C4.61819 11.3142 4.55321 11.2784 4.52051 11.2588C4.44309 11.2124 4.36471 11.143 4.29883 11.0684C4.23175 10.9923 4.16171 10.8933 4.11523 10.7812C4.06965 10.6712 4.0353 10.5204 4.08203 10.3604L4.37891 9.37402C4.48338 9.03772 4.59119 8.7016 4.69531 8.38965C4.88743 7.81485 5.33063 7.35362 5.90332 7.12109C6.98028 6.68392 9.68508 5.96389 13.126 5.96387Z" stroke="#352314" stroke-width="0.614513" stroke-miterlimit="10" stroke-linejoin="round"/>
<defs>
<linearGradient id="paint0_linear_3360_4402" x1="15.3348" y1="6.74609" x2="15.3348" y2="38.4469" gradientUnits="userSpaceOnUse">
<stop stop-color="#FFE2CE"/>
<stop offset="0.774642" stop-color="#BB784B"/>
<stop offset="1" stop-color="#FFCEAE"/>
</linearGradient>
<linearGradient id="paint1_linear_3360_4402" x1="13.7909" y1="13.1016" x2="13.7909" y2="37.4496" gradientUnits="userSpaceOnUse">
<stop stop-color="#FFE4C0"/>
<stop offset="0.455516" stop-color="#FDB651"/>
<stop offset="1" stop-color="#804527"/>
</linearGradient>
<radialGradient id="paint2_radial_3360_4402" cx="0" cy="0" r="1" gradientUnits="userSpaceOnUse" gradientTransform="translate(16.7101 33.2424) rotate(78.6762) scale(2.81783 2.81783)">
<stop offset="0.333565" stop-color="#2A1D0E"/>
<stop offset="1" stop-color="#5F5947"/>
</radialGradient>
<radialGradient id="paint3_radial_3360_4402" cx="0" cy="0" r="1" gradientUnits="userSpaceOnUse" gradientTransform="translate(14.9113 22.8546) rotate(78.6762) scale(3.94246 3.94245)">
<stop offset="0.333565" stop-color="#2A1D0E"/>
<stop offset="1" stop-color="#5F5947"/>
</radialGradient>
<radialGradient id="paint4_radial_3360_4402" cx="0" cy="0" r="1" gradientUnits="userSpaceOnUse" gradientTransform="translate(7.50754 19.4064) rotate(78.6762) scale(2.9592)">
<stop offset="0.333565" stop-color="#2A1D0E"/>
<stop offset="1" stop-color="#5F5947"/>
</radialGradient>
<radialGradient id="paint5_radial_3360_4402" cx="0" cy="0" r="1" gradientUnits="userSpaceOnUse" gradientTransform="translate(16.6938 26.2722) rotate(78.6762) scale(3.7414 3.74141)">
<stop offset="0.333565" stop-color="#2A1D0E"/>
<stop offset="1" stop-color="#5F5947"/>
</radialGradient>
<radialGradient id="paint6_radial_3360_4402" cx="0" cy="0" r="1" gradientUnits="userSpaceOnUse" gradientTransform="translate(9.86129 31.7654) rotate(78.6762) scale(2.58851)">
<stop offset="0.333565" stop-color="#2A1D0E"/>
<stop offset="1" stop-color="#5F5947"/>
</radialGradient>
<radialGradient id="paint7_radial_3360_4402" cx="0" cy="0" r="1" gradientUnits="userSpaceOnUse" gradientTransform="translate(7.28727 28.8572) rotate(78.6762) scale(4.07439 4.07439)">
<stop offset="0.333565" stop-color="#2A1D0E"/>
<stop offset="1" stop-color="#5F5947"/>
</radialGradient>
<linearGradient id="paint8_linear_3360_4402" x1="16.6574" y1="6.27148" x2="28.1564" y2="16.0798" gradientUnits="userSpaceOnUse">
<stop stop-color="#FDDDC6"/>
<stop offset="1" stop-color="#C68E69"/>
</linearGradient>
</defs>
</svg>
