<svg width="129" height="182" viewBox="0 0 129 182" fill="none" xmlns="http://www.w3.org/2000/svg">
<g clip-path="url(#clip0_2873_43313)">
<path d="M23.9683 163.528C26.8766 162.15 28.4162 160.202 28.8225 159.4C22.8804 151.708 12.584 155.673 10.6888 157.027C9.17269 158.111 5.76424 159.817 4.24954 160.535C13.6826 164.746 20.333 165.25 23.9683 163.528Z" fill="#A46338"/>
<path d="M17.3494 159.015C21.9228 159.327 32.5486 159.445 38.4653 157.418M11.4329 156.645C6.84698 159.335 4.46545 160.162 3.84792 160.239C8.01712 162.251 17.4516 165.886 21.8357 164.326C26.2199 162.766 28.8872 160.339 29.6728 159.32C23.4614 152.175 14.9248 154.56 11.4329 156.645Z" stroke="#514440" stroke-width="2" stroke-miterlimit="10" stroke-linecap="round" stroke-linejoin="round"/>
<path d="M68.9189 40.2453C68.9189 40.2453 64.535 18.1459 55.6118 5.32953C54.8267 4.20083 53.7471 3.30933 52.4711 2.80224C50.5409 2.03342 47.3511 1.54269 42.7791 2.41783C38.2071 3.29297 35.5899 5.43585 34.5675 6.98985C34.1095 7.69323 33.496 9.06729 34.6656 10.9239C37.2256 14.9806 46.8604 28.3859 50.8272 40L68.9108 40.2453H68.9189Z" fill="#786657"/>
<path d="M55.219 40.0599C51.2114 32.3063 42.7544 16.4392 35.4506 5.95383C36.8246 4.58795 39.2538 3.09121 42.7789 2.41236C43.0897 2.3551 43.3841 2.31421 43.6786 2.26514C49.0358 11.491 58.5479 28.4131 63.3652 40.1662L55.219 40.0517V40.0599Z" fill="#6B5B4E"/>
<path d="M68.9189 40.2453C68.9189 40.2453 64.535 18.1459 55.6118 5.32953C54.8267 4.20083 53.7471 3.30933 52.4711 2.80224C50.5409 2.03342 47.3511 1.54269 42.7791 2.41783C38.2071 3.29297 35.5899 5.43585 34.5675 6.98985C34.1095 7.69323 33.496 9.06729 34.6656 10.9239C37.2256 14.9806 46.8604 28.3859 50.8272 40L68.9108 40.2453H68.9189Z" stroke="#514440" stroke-width="2.86076" stroke-miterlimit="10"/>
<path d="M110.504 38.1758C109.989 36.5564 108.795 35.2314 107.233 34.5689C98.5632 30.8721 62.3142 21.7689 25.9344 43.3204C14.7784 49.9289 11.0242 55.965 9.50296 59.3102C8.70961 61.0686 8.71778 63.0725 9.4866 64.8391C13.9114 75.0055 28.5844 101.857 37.1477 164.066C37.1477 164.066 38.35 177.054 77.5107 177.054C120.654 177.054 124.621 161.35 124.621 161.35C124.621 161.35 129.455 98.0128 110.504 38.1758Z" fill="url(#paint0_linear_2873_43313)"/>
<path d="M106.278 46.7632C106.278 46.7632 107.946 47.0576 108.47 49.3477C108.993 51.6378 99.0151 59.5959 65.3915 64.6178C31.768 69.6396 20.2521 68.1756 20.2521 68.1756" stroke="#BBA78E" stroke-width="1.43038" stroke-miterlimit="10" stroke-linecap="round"/>
<path d="M77.5108 177.063C60.2696 177.063 49.408 174.208 45.2122 171.967C44.5825 171.297 44.4843 170.234 44.3535 169.465C39.9287 142.262 30.163 96.2634 10.6154 57.1845C12.6765 53.7085 16.8559 48.703 25.9345 43.3212C30.7437 40.4668 35.5529 38.1685 40.2967 36.3037C54.8634 65.0281 74.2229 113.423 79.1302 174.74C79.1956 175.509 79.0566 176.425 80.4961 177.03C79.9072 177.03 78.116 177.055 77.5108 177.055V177.063Z" fill="#837C77" fill-opacity="0.64"/>
<path d="M124.621 161.35L126.007 161.705C126.007 161.705 126.006 161.707 126.006 161.708C126.005 161.711 126.005 161.714 126.004 161.717C126.002 161.724 126 161.731 125.998 161.74C125.993 161.757 125.987 161.778 125.979 161.802C125.965 161.851 125.946 161.915 125.919 161.993C125.866 162.147 125.786 162.356 125.672 162.611C125.442 163.122 125.073 163.817 124.493 164.632C123.332 166.267 121.344 168.361 117.994 170.42C111.306 174.533 99.2373 178.484 77.5107 178.484C57.808 178.484 47.4068 175.223 41.8857 171.773C39.1108 170.039 37.5681 168.256 36.7178 166.827C36.2946 166.116 36.0503 165.503 35.9092 165.044C35.8388 164.816 35.7943 164.626 35.7666 164.483C35.7528 164.411 35.7431 164.351 35.7363 164.303C35.733 164.279 35.7296 164.258 35.7275 164.241V164.24C27.1924 102.254 12.5926 75.56 8.1748 65.4097C7.24974 63.2838 7.23522 60.859 8.19922 58.7222L8.20117 58.7183L8.53906 58.0073C10.3766 54.3046 14.5273 48.4146 25.2051 42.0894C61.5186 20.5772 97.7015 29.1595 107.354 33.0708L107.794 33.2534C109.745 34.0816 111.228 35.7319 111.867 37.7417L111.868 37.7437C121.394 67.8208 124.934 98.7473 126.098 122.13C126.68 133.827 126.668 143.65 126.511 150.551C126.432 154.002 126.317 156.724 126.221 158.585C126.173 159.516 126.13 160.232 126.099 160.716C126.083 160.958 126.07 161.143 126.062 161.267C126.057 161.329 126.053 161.377 126.051 161.409C126.05 161.425 126.049 161.437 126.049 161.446C126.049 161.45 126.048 161.453 126.048 161.456V161.458L124.621 161.35ZM124.621 161.35L126.048 161.459L126.038 161.582L126.008 161.701L124.621 161.35Z" stroke="#514440" stroke-width="2.86076" stroke-miterlimit="10"/>
<path d="M4.46886 65.8702C3.37688 63.4918 3.39407 60.7948 4.49465 58.4655C7.40946 52.3521 13.5486 46.6229 22.7402 41.4412C39.4208 32.0423 57.7867 27.2856 77.3133 27.2856C93.1599 27.2856 105.567 30.6039 110.399 32.5654C112.695 33.4971 114.449 35.336 115.206 37.5999C116.169 40.485 117.201 43.8195 118.043 46.7209C118.422 48.0123 116.375 49.7613 116.263 49.3118C113.882 39.2508 95.9629 37.9105 82.3691 37.9105C61.1228 37.9105 42.4732 43.3864 24.3308 53.8804C16.429 58.4491 11.6828 64.2437 9.03454 69.8504C8.92276 70.0956 10.9261 72.1143 7.88237 71.5177C7.02254 71.3542 6.36907 69.8831 6.2229 69.5807C5.52644 68.1504 4.93316 66.9245 4.45166 65.8702H4.46886Z" fill="url(#paint1_linear_2873_43313)"/>
<path d="M116.704 45.3157C116.704 45.3157 115.256 42.3352 109.533 39.713C101.146 35.8693 81.5287 34.9409 69.591 36.4312C55.0761 38.239 41.2076 43.1577 33.8467 46.7083C26.4859 50.2589 13.4793 56.619 8.14398 68.6551" stroke="#A78B75" stroke-width="1.43038" stroke-miterlimit="10" stroke-linecap="round"/>
<path d="M21.2624 41.5839C27.1858 37.944 33.5119 35.6396 39.7836 33.4684C41.0177 36.4527 42.3968 39.9187 43.7082 43.3205C43.9491 43.9471 44.3295 44.4114 44.8783 44.7674C37.4268 47.3085 29.6143 51.0623 22.3953 55.6235C18.922 57.8211 16.5116 59.8383 14.1926 62.503C13.5504 62.7257 13.4479 62.1572 13.1288 61.3336C12.0228 58.4689 9.98724 54.3941 8.79262 51.5966C11.8795 48.1053 16.2848 44.6421 21.2624 41.5839Z" fill="#837C77" fill-opacity="0.64"/>
<path d="M77.3145 25.855C57.548 25.855 38.9395 30.6725 22.04 40.1948H22.0391C13.0155 45.2819 6.70465 50.991 3.50586 57.2427L3.20605 57.8501L3.20312 57.854C1.95273 60.5004 1.90626 63.5518 3.08008 66.2612C3.09964 66.3299 3.12218 66.3983 3.15234 66.4644C3.64189 67.5363 4.24374 68.7759 4.93848 70.2026L4.9375 70.2036C4.99463 70.3219 5.24307 70.8737 5.60352 71.4048C5.78547 71.6729 6.02642 71.9823 6.32715 72.2524C6.62142 72.5167 7.05374 72.8162 7.61719 72.9233L7.61816 72.9224C8.04775 73.0062 8.44116 73.056 8.79492 73.0581C9.13674 73.0601 9.53855 73.0196 9.9209 72.8472C10.35 72.6535 10.7255 72.3015 10.9053 71.7954C11.0648 71.346 11.013 70.9334 10.9541 70.6782C10.8823 70.3674 10.7428 70.0709 10.627 69.853C13.1203 64.8648 17.3991 59.7199 24.3408 55.5366L25.0488 55.1187C42.9914 44.7399 61.396 39.3413 82.3701 39.3413C89.1484 39.3413 96.8808 39.678 103.18 41.2271C109.594 42.8044 113.884 45.4719 114.871 49.6411C114.872 49.6463 114.874 49.6516 114.875 49.6567C114.964 50.0134 115.197 50.3937 115.617 50.6245C115.989 50.8286 116.346 50.8265 116.546 50.8042C116.923 50.7622 117.226 50.5956 117.378 50.5044C117.739 50.2879 118.103 49.9628 118.41 49.6147C118.722 49.2606 119.045 48.8033 119.262 48.2817C119.474 47.7687 119.635 47.0654 119.416 46.3188C118.569 43.4024 117.532 40.051 116.562 37.147L116.381 36.6509C115.407 34.2058 113.438 32.2544 110.938 31.2397L110.445 31.0454C105.133 28.9987 92.8324 25.855 77.3145 25.855Z" stroke="#514440" stroke-width="2.86076" stroke-miterlimit="10" stroke-linejoin="round"/>
<path d="M66.4756 102.638C66.4756 95.6376 61.9756 89.6376 59.4756 90.1376C58.4756 92.6374 54.9756 96.6377 55.9756 102.638C56.9756 108.637 66.4756 109.638 66.4756 102.638Z" fill="#7081A3" stroke="#514440" stroke-width="2.86076" stroke-miterlimit="10" stroke-linecap="round" stroke-linejoin="round"/>
<path d="M99.7979 41.1084L105.298 51.6084L101.798 62.6084L108.298 79.1084" stroke="#514440" stroke-width="2.86076" stroke-miterlimit="10" stroke-linecap="round" stroke-linejoin="round"/>
<path d="M113.898 25.6085C113.898 22.4085 112.564 19.6085 111.898 18.6085C100.398 15.6085 99.3975 26.1085 99.8975 28.6085C100.298 30.6085 100.398 34.4418 100.398 36.1085C109.898 33.6085 113.898 29.6085 113.898 25.6085Z" fill="#A46338"/>
<path d="M105.653 26.2493C108.379 23.5498 114.044 16.7422 114.897 11.1084M99.9645 28.0098C100.533 33.3619 100.202 35.6389 99.9645 36.1084C104.35 35.1694 113.262 32.2351 113.831 28.0098C114.4 23.7844 113.12 19.9111 112.409 18.5027C101.316 16.249 99.4905 23.9017 99.9645 28.0098Z" stroke="#514440" stroke-width="2" stroke-miterlimit="10" stroke-linecap="round" stroke-linejoin="round"/>
</g>
<defs>
<linearGradient id="paint0_linear_2873_43313" x1="67.0409" y1="29.4761" x2="-20.9534" y2="52.3894" gradientUnits="userSpaceOnUse">
<stop stop-color="#C5B4A8"/>
<stop offset="1" stop-color="#8E7A6C"/>
</linearGradient>
<linearGradient id="paint1_linear_2873_43313" x1="60.8747" y1="27.2856" x2="7.34344" y2="72.9467" gradientUnits="userSpaceOnUse">
<stop stop-color="#C5B4A8"/>
<stop offset="1" stop-color="#8E7A6C"/>
</linearGradient>
<clipPath id="clip0_2873_43313">
<rect width="127.304" height="181.658" fill="white" transform="matrix(-1 0 0 1 128.102 0.108398)"/>
</clipPath>
</defs>
</svg>
