<svg width="28" height="28" viewBox="0 0 28 28" fill="none" xmlns="http://www.w3.org/2000/svg">
<path d="M14.3574 26.957C21.5446 26.957 27.371 21.1306 27.371 13.9433C27.371 6.75609 21.5446 0.929688 14.3574 0.929688C7.17015 0.929688 1.34375 6.75609 1.34375 13.9433C1.34375 21.1306 7.17015 26.957 14.3574 26.957Z" fill="#E9A936" stroke="#2C1F1A" stroke-width="0.636364" stroke-miterlimit="10"/>
<path d="M20.1415 7.26509C20.1415 7.26509 18.8019 4.75781 16.8483 4.75781C14.8947 4.75781 10.6247 6.61599 8.80149 8.79872C6.97831 10.9814 4.30876 15.7096 3.04876 16.4733C1.78876 17.2369 1.14604 18.1819 1.66467 19.4228C2.18331 20.6637 4.55058 21.0901 4.96104 21.3796C4.96104 21.3796 5.97604 25.2965 9.92785 26.1874C13.8797 27.0783 15.3879 27.1833 17.3065 26.6264C19.2251 26.0696 21.4938 24.4946 22.1556 23.2474C22.8174 22.0001 22.1556 20.0178 22.1556 20.0178C22.1556 20.0178 23.5938 19.0983 23.8197 17.9242C24.0456 16.7501 23.8897 14.9937 22.7983 15.1019C22.7983 15.1019 22.9669 11.0801 22.1556 9.74372C21.3442 8.40736 20.1415 7.26827 20.1415 7.26827V7.26509Z" fill="#FFE4CA"/>
<path d="M8.55523 21.923C9.58674 21.923 10.423 21.0867 10.423 20.0552C10.423 19.0237 9.58674 18.1875 8.55523 18.1875C7.52371 18.1875 6.6875 19.0237 6.6875 20.0552C6.6875 21.0867 7.52371 21.923 8.55523 21.923Z" fill="#E48585"/>
<path d="M8.55913 15.9517C8.55913 15.9517 9.10959 15.3376 10.01 14.8698C10.9105 14.4021 11.6073 14.3289 12.425 14.4307C13.2428 14.5326 13.3891 14.698 13.9364 14.7553C14.385 14.7998 14.5028 15.3057 14.1941 15.4107C13.8855 15.5157 13.7169 15.5189 12.5396 15.398C10.9582 15.2389 10.1628 15.8976 9.49141 16.0407C8.82004 16.1839 8.26004 16.1839 8.55913 15.9485V15.9517Z" fill="#2C1F1A"/>
<path d="M13.2373 16.4714C13.2373 17.4227 12.496 18.1927 11.5796 18.1927C10.6632 18.1927 9.92188 17.4227 9.92188 16.4714C9.92188 15.52 10.6632 14.75 11.5796 14.75C13.1355 14.75 13.2373 15.52 13.2373 16.4714Z" fill="#2C1F1A"/>
<path d="M20.5015 16.6399C20.3615 17.5785 19.7092 18.2626 19.041 18.164C18.3728 18.0654 17.9433 17.2222 18.0801 16.2836C18.2169 15.3449 18.8724 14.6608 19.5405 14.7595C20.406 14.8867 20.6383 15.7013 20.5015 16.6399Z" fill="#2C1F1A"/>
<path d="M19.0808 14.726C19.0808 14.726 18.7849 14.5287 18.1868 15.2924C17.8654 15.7028 17.3818 16.4092 17.3086 17.3828C17.264 17.9587 17.614 18.7256 17.7795 18.9897C18.0149 19.3683 17.6713 19.9951 17.859 20.2019C18.0468 20.4087 18.3586 19.8519 18.4031 19.5656C18.5145 18.8178 18.0722 18.0892 18.0213 17.7074C17.8781 16.6733 18.6449 15.8906 18.9377 15.4547C19.3418 14.8533 19.084 14.7228 19.084 14.7228L19.0808 14.726Z" fill="#2C1F1A"/>
<path d="M18.5382 14.903C18.5382 14.903 19.0091 14.4161 19.9922 14.4925C20.5618 14.537 20.6286 14.8139 21.1504 14.7916C21.3636 14.782 21.3477 15.0525 21.2491 15.1416C21.1504 15.2307 20.8895 15.3866 20.53 15.3134C20.1704 15.2402 20.3009 15.0811 19.6327 15.0875C18.9645 15.0939 18.8786 15.5807 18.6177 15.3452C18.4682 15.2116 18.5413 14.9061 18.5413 14.9061L18.5382 14.903Z" fill="#2C1F1A"/>
<path d="M12.7651 21.6212C12.9051 21.5035 13.2328 21.9426 13.5987 22.1876C13.8691 22.369 14.5214 22.6521 15.3773 22.6967C16.2332 22.7412 16.9969 22.3785 17.3087 22.334C17.541 22.3021 17.6873 22.4676 17.3087 22.7921C16.911 23.1358 16.0137 23.2917 15.0146 23.2121C13.8437 23.1199 13.2073 22.5249 12.9623 22.2544C12.7555 22.0285 12.6346 21.7262 12.7651 21.618V21.6212Z" fill="#2C1F1A"/>
<path d="M21.7106 15.2067C21.561 15.5026 21.4719 16.0371 21.4847 16.9789C21.4974 17.9208 21.6724 19.553 21.9015 20.323C22.086 20.9403 22.5951 22.2321 21.3128 23.8549C20.0306 25.4808 18.0738 25.9644 17.8542 26.2253C17.6347 26.4862 17.8478 26.7535 18.2233 26.6739C18.5988 26.5944 20.5969 25.923 21.2619 25.1658C21.9269 24.4085 22.611 23.5335 22.7828 22.3721C22.9547 21.2108 22.4328 19.2953 22.3151 18.4044C22.0765 16.6258 22.1719 16.0658 22.1306 15.493C22.0892 14.9203 21.8188 14.9871 21.7074 15.2067H21.7106Z" fill="#2C1F1A"/>
<path d="M4.64783 20.7976C5.20783 20.524 5.43055 22.6335 6.8051 23.9731C7.84555 24.9881 8.60601 25.3254 9.94237 25.7995C11.6574 26.4072 12.5706 26.3626 13.9928 26.4772C15.4151 26.5917 16.2137 26.3117 16.2678 26.6999C16.3219 27.0849 15.8033 27.3045 15.0778 27.2917C14.2442 27.2758 13.0701 27.244 11.0656 26.8145C10.1683 26.6235 8.05237 26.0572 6.74464 24.8513C4.96283 23.2031 4.33919 20.9472 4.64464 20.7976H4.64783Z" fill="#2C1F1A"/>
<path d="M22.3297 14.9478C22.6765 14.566 23.4879 14.2128 24.0034 15.4091C24.5188 16.6087 24.5156 18.0787 23.5515 19.3101C22.5874 20.5414 21.7443 19.816 22.072 19.536C22.3997 19.256 23.0456 19.0237 23.3256 18.26C23.6056 17.4964 23.717 16.4687 23.4497 15.8864C23.1824 15.3041 22.6702 15.4028 22.4188 15.5555C22.1674 15.7082 21.9479 15.3678 22.3297 14.9478Z" fill="#2C1F1A"/>
<path d="M3.55642 16.0994C3.55642 16.0994 3.06006 15.3835 2.0387 16.0994C1.01734 16.8153 0.734153 18.8803 1.45961 20.0799C2.1437 21.2126 3.11415 21.6231 4.08461 21.604C5.44324 21.5785 5.1537 20.8499 4.35506 20.7735C3.32734 20.6749 2.70052 20.2549 2.20415 19.4722C1.70779 18.6926 1.94006 16.8249 2.86597 16.8249C3.6137 16.8249 3.70597 16.3062 3.55642 16.0994Z" fill="#2C1F1A"/>
<path d="M9.10209 12.3845C9.52846 11.8467 11.2212 11.414 11.8353 11.484C12.4494 11.554 12.3794 11.9581 11.9625 12.044C11.5457 12.1299 9.958 12.6295 9.55709 12.8586C9.15618 13.0876 8.82846 12.7313 9.09891 12.3876L9.10209 12.3845Z" fill="#2C1F1A"/>
<path d="M20.8903 12.7883C20.5148 12.6419 19.5762 12.2792 19.2357 12.2092C18.8953 12.1392 18.7266 11.4901 19.2357 11.4137C19.7448 11.3374 20.938 11.8624 21.2148 12.2092C21.4916 12.556 21.428 12.9983 20.8903 12.7883Z" fill="#2C1F1A"/>
<path d="M22.3877 7.47967C20.8 4.99149 19.5973 5.13467 19.4891 5.15376C19.4795 5.09012 19.4636 5.04239 19.4414 5.01376C18.0318 3.17785 15.0886 0.349213 8.25409 2.44285C1.585 4.48558 -0.645449 13.9388 1.7791 17.2256C1.7791 17.2256 2.12273 16.5415 3.39546 16.5224C3.39546 16.5224 5.91864 15.396 6.51046 14.486C7.09909 13.5728 7.73864 12.6469 8.11728 11.3201C8.24773 10.8619 8.42591 10.4578 8.60091 10.1269C8.81727 10.0633 9.04637 9.98376 9.21818 9.88512C9.63818 9.64967 10.3286 8.59012 11.8114 8.17012C13.2941 7.75012 15.4195 7.71512 15.9859 7.62285C16.5555 7.53058 16.775 7.29512 16.4568 7.09467C16.2914 6.98967 15.6136 6.84967 14.6973 6.85285C15.1968 6.76694 15.62 6.74785 16.1005 6.76376C17.1409 6.79876 17.7264 7.49876 17.9841 7.22512C18.2545 6.94194 17.4368 6.25149 15.7632 6.09558C14.465 5.97467 13.3036 6.38194 12.2823 6.85285C12.1264 6.92285 11.9959 6.99603 11.8845 7.06603C12.33 6.62694 13.9273 5.28421 16.4218 5.64376C18.9864 6.01285 18.4423 7.3333 18.8145 7.66103C18.8814 7.7183 18.9736 7.67694 19.0595 7.59739C19.2155 8.17967 20.3259 8.27194 21.3664 10.0569C22.4068 11.8419 21.8882 15.4374 21.8882 15.4374L22.7918 15.0906C23.5745 14.5815 24.405 10.6392 22.3877 7.47967Z" fill="#2C1F1A"/>
<path d="M21.9024 20.3142C21.7656 19.8624 21.651 19.1146 21.5779 18.3828C20.6488 18.491 19.9297 19.2801 19.9297 20.2378C19.9297 21.2687 20.7665 22.1055 21.7974 22.1055C21.912 22.1055 22.0201 22.0928 22.1283 22.0705C22.2365 21.291 22.0138 20.6801 21.9024 20.3142Z" fill="#E48585"/>
</svg>
