<svg width="28" height="28" viewBox="0 0 28 28" fill="none" xmlns="http://www.w3.org/2000/svg">
<g style="mix-blend-mode:luminosity">
<path d="M14.3574 27.457C21.5446 27.457 27.371 21.6306 27.371 14.4433C27.371 7.25609 21.5446 1.42969 14.3574 1.42969C7.17015 1.42969 1.34375 7.25609 1.34375 14.4433C1.34375 21.6306 7.17015 27.457 14.3574 27.457Z" fill="#E9A936" stroke="#2C1F1A" stroke-width="0.636364" stroke-miterlimit="10"/>
<path d="M20.1415 7.76509C20.1415 7.76509 18.8019 5.25781 16.8483 5.25781C14.8947 5.25781 10.6247 7.11599 8.80149 9.29872C6.97831 11.4814 4.30876 16.2096 3.04876 16.9733C1.78876 17.7369 1.14604 18.6819 1.66467 19.9228C2.18331 21.1637 4.55058 21.5901 4.96104 21.8796C4.96104 21.8796 5.97604 25.7965 9.92785 26.6874C13.8797 27.5783 15.3879 27.6833 17.3065 27.1264C19.2251 26.5696 21.4938 24.9946 22.1556 23.7474C22.8174 22.5001 22.1556 20.5178 22.1556 20.5178C22.1556 20.5178 23.5938 19.5983 23.8197 18.4242C24.0456 17.2501 23.8897 15.4937 22.7983 15.6019C22.7983 15.6019 22.9669 11.5801 22.1556 10.2437C21.3442 8.90736 20.1415 7.76827 20.1415 7.76827V7.76509Z" fill="#FFE4CA"/>
<path d="M8.55523 22.423C9.58674 22.423 10.423 21.5867 10.423 20.5552C10.423 19.5237 9.58674 18.6875 8.55523 18.6875C7.52371 18.6875 6.6875 19.5237 6.6875 20.5552C6.6875 21.5867 7.52371 22.423 8.55523 22.423Z" fill="#E48585"/>
<path d="M8.55913 16.4517C8.55913 16.4517 9.10959 15.8376 10.01 15.3698C10.9105 14.9021 11.6073 14.8289 12.425 14.9307C13.2428 15.0326 13.3891 15.198 13.9364 15.2553C14.385 15.2998 14.5028 15.8057 14.1941 15.9107C13.8855 16.0157 13.7169 16.0189 12.5396 15.898C10.9582 15.7389 10.1628 16.3976 9.49141 16.5407C8.82004 16.6839 8.26004 16.6839 8.55913 16.4485V16.4517Z" fill="#2C1F1A"/>
<path d="M13.2373 16.9714C13.2373 17.9227 12.496 18.6927 11.5796 18.6927C10.6632 18.6927 9.92188 17.9227 9.92188 16.9714C9.92188 16.02 10.6632 15.25 11.5796 15.25C13.1355 15.25 13.2373 16.02 13.2373 16.9714Z" fill="#2C1F1A"/>
<path d="M20.5015 17.1399C20.3615 18.0785 19.7092 18.7626 19.041 18.664C18.3728 18.5654 17.9433 17.7222 18.0801 16.7836C18.2169 15.8449 18.8724 15.1608 19.5405 15.2595C20.406 15.3867 20.6383 16.2013 20.5015 17.1399Z" fill="#2C1F1A"/>
<path d="M19.0808 15.226C19.0808 15.226 18.7849 15.0287 18.1868 15.7924C17.8654 16.2028 17.3818 16.9092 17.3086 17.8828C17.264 18.4587 17.614 19.2256 17.7795 19.4897C18.0149 19.8683 17.6713 20.4951 17.859 20.7019C18.0468 20.9087 18.3586 20.3519 18.4031 20.0656C18.5145 19.3178 18.0722 18.5892 18.0213 18.2074C17.8781 17.1733 18.6449 16.3906 18.9377 15.9547C19.3418 15.3533 19.084 15.2228 19.084 15.2228L19.0808 15.226Z" fill="#2C1F1A"/>
<path d="M18.5382 15.403C18.5382 15.403 19.0091 14.9161 19.9922 14.9925C20.5618 15.037 20.6286 15.3139 21.1504 15.2916C21.3636 15.282 21.3477 15.5525 21.2491 15.6416C21.1504 15.7307 20.8895 15.8866 20.53 15.8134C20.1704 15.7402 20.3009 15.5811 19.6327 15.5875C18.9645 15.5939 18.8786 16.0807 18.6177 15.8452C18.4682 15.7116 18.5413 15.4061 18.5413 15.4061L18.5382 15.403Z" fill="#2C1F1A"/>
<path d="M12.7651 22.1212C12.9051 22.0035 13.2328 22.4426 13.5987 22.6876C13.8691 22.869 14.5214 23.1521 15.3773 23.1967C16.2332 23.2412 16.9969 22.8785 17.3087 22.834C17.541 22.8021 17.6873 22.9676 17.3087 23.2921C16.911 23.6358 16.0137 23.7917 15.0146 23.7121C13.8437 23.6199 13.2073 23.0249 12.9623 22.7544C12.7555 22.5285 12.6346 22.2262 12.7651 22.118V22.1212Z" fill="#2C1F1A"/>
<path d="M21.7106 15.7067C21.561 16.0026 21.4719 16.5371 21.4847 17.4789C21.4974 18.4208 21.6724 20.053 21.9015 20.823C22.086 21.4403 22.5951 22.7321 21.3128 24.3549C20.0306 25.9808 18.0738 26.4644 17.8542 26.7253C17.6347 26.9862 17.8478 27.2535 18.2233 27.1739C18.5988 27.0944 20.5969 26.423 21.2619 25.6658C21.9269 24.9085 22.611 24.0335 22.7828 22.8721C22.9547 21.7108 22.4328 19.7953 22.3151 18.9044C22.0765 17.1258 22.1719 16.5658 22.1306 15.993C22.0892 15.4203 21.8188 15.4871 21.7074 15.7067H21.7106Z" fill="#2C1F1A"/>
<path d="M4.64783 21.2976C5.20783 21.024 5.43055 23.1335 6.8051 24.4731C7.84555 25.4881 8.60601 25.8254 9.94237 26.2995C11.6574 26.9072 12.5706 26.8626 13.9928 26.9772C15.4151 27.0917 16.2137 26.8117 16.2678 27.1999C16.3219 27.5849 15.8033 27.8045 15.0778 27.7917C14.2442 27.7758 13.0701 27.744 11.0656 27.3145C10.1683 27.1235 8.05237 26.5572 6.74464 25.3513C4.96283 23.7031 4.33919 21.4472 4.64464 21.2976H4.64783Z" fill="#2C1F1A"/>
<path d="M22.3297 15.4478C22.6765 15.066 23.4879 14.7128 24.0034 15.9091C24.5188 17.1087 24.5156 18.5787 23.5515 19.8101C22.5874 21.0414 21.7443 20.316 22.072 20.036C22.3997 19.756 23.0456 19.5237 23.3256 18.76C23.6056 17.9964 23.717 16.9687 23.4497 16.3864C23.1824 15.8041 22.6702 15.9028 22.4188 16.0555C22.1674 16.2082 21.9479 15.8678 22.3297 15.4478Z" fill="#2C1F1A"/>
<path d="M3.55642 16.5994C3.55642 16.5994 3.06006 15.8835 2.0387 16.5994C1.01734 17.3153 0.734153 19.3803 1.45961 20.5799C2.1437 21.7126 3.11415 22.1231 4.08461 22.104C5.44324 22.0785 5.1537 21.3499 4.35506 21.2735C3.32734 21.1749 2.70052 20.7549 2.20415 19.9722C1.70779 19.1926 1.94006 17.3249 2.86597 17.3249C3.6137 17.3249 3.70597 16.8062 3.55642 16.5994Z" fill="#2C1F1A"/>
<path d="M9.10209 12.8845C9.52846 12.3467 11.2212 11.914 11.8353 11.984C12.4494 12.054 12.3794 12.4581 11.9625 12.544C11.5457 12.6299 9.958 13.1295 9.55709 13.3586C9.15618 13.5876 8.82846 13.2313 9.09891 12.8876L9.10209 12.8845Z" fill="#2C1F1A"/>
<path d="M20.8903 13.2883C20.5148 13.1419 19.5762 12.7792 19.2357 12.7092C18.8953 12.6392 18.7266 11.9901 19.2357 11.9137C19.7448 11.8374 20.938 12.3624 21.2148 12.7092C21.4916 13.056 21.428 13.4983 20.8903 13.2883Z" fill="#2C1F1A"/>
<path d="M22.3877 7.97967C20.8 5.49149 19.5973 5.63467 19.4891 5.65376C19.4795 5.59012 19.4636 5.54239 19.4414 5.51376C18.0318 3.67785 15.0886 0.849213 8.25409 2.94285C1.585 4.98558 -0.645449 14.4388 1.7791 17.7256C1.7791 17.7256 2.12273 17.0415 3.39546 17.0224C3.39546 17.0224 5.91864 15.896 6.51046 14.986C7.09909 14.0728 7.73864 13.1469 8.11728 11.8201C8.24773 11.3619 8.42591 10.9578 8.60091 10.6269C8.81727 10.5633 9.04637 10.4838 9.21818 10.3851C9.63818 10.1497 10.3286 9.09012 11.8114 8.67012C13.2941 8.25012 15.4195 8.21512 15.9859 8.12285C16.5555 8.03058 16.775 7.79512 16.4568 7.59467C16.2914 7.48967 15.6136 7.34967 14.6973 7.35285C15.1968 7.26694 15.62 7.24785 16.1005 7.26376C17.1409 7.29876 17.7264 7.99876 17.9841 7.72512C18.2545 7.44194 17.4368 6.75149 15.7632 6.59558C14.465 6.47467 13.3036 6.88194 12.2823 7.35285C12.1264 7.42285 11.9959 7.49603 11.8845 7.56603C12.33 7.12694 13.9273 5.78421 16.4218 6.14376C18.9864 6.51285 18.4423 7.8333 18.8145 8.16103C18.8814 8.2183 18.9736 8.17694 19.0595 8.09739C19.2155 8.67967 20.3259 8.77194 21.3664 10.5569C22.4068 12.3419 21.8882 15.9374 21.8882 15.9374L22.7918 15.5906C23.5745 15.0815 24.405 11.1392 22.3877 7.97967Z" fill="#2C1F1A"/>
<path d="M21.9024 20.8142C21.7656 20.3624 21.651 19.6146 21.5779 18.8828C20.6488 18.991 19.9297 19.7801 19.9297 20.7378C19.9297 21.7687 20.7665 22.6055 21.7974 22.6055C21.912 22.6055 22.0201 22.5928 22.1283 22.5705C22.2365 21.791 22.0138 21.1801 21.9024 20.8142Z" fill="#E48585"/>
</g>
</svg>
