<svg width="164" height="217" viewBox="0 0 164 217" fill="none" xmlns="http://www.w3.org/2000/svg">
<g filter="url(#filter0_d_2873_43042)">
<path d="M153 15.3628L158.734 17.4479C161.895 18.5975 164 21.6022 164 24.9662V186.759C164 190.123 161.895 193.128 158.734 194.278L153 196.363L152.03 200.243C150.249 207.366 143.849 212.363 136.508 212.363H28.4924C21.1505 212.363 14.7508 207.366 12.9701 200.243L12 196.363L5.47018 194.186C2.20344 193.097 0 190.04 0 186.597V25.1289C0 21.6854 2.20344 18.6283 5.47018 17.5394L12 15.3628L12.8327 12.2402C14.7004 5.23614 21.0436 0.362793 28.2925 0.362793H136.708C143.956 0.362793 150.3 5.23614 152.167 12.2402L153 15.3628Z" fill="#DA8659"/>
<path d="M28.292 1.36279H136.708C143.503 1.363 149.45 5.93154 151.201 12.4976L152.034 15.6206L152.168 16.1245L152.658 16.3022L158.393 18.3872C161.159 19.3932 163 22.0228 163 24.9663V186.759C163 189.703 161.159 192.332 158.393 193.338L152.658 195.423L152.159 195.605L152.03 196.121L151.06 200C149.39 206.678 143.391 211.363 136.508 211.363H28.4922C21.6093 211.363 15.6098 206.678 13.9404 200L12.9697 196.121L12.8369 195.587L12.3164 195.415L5.78613 193.238C2.92797 192.285 1.00019 189.61 1 186.597V25.1284C1.00019 22.1156 2.92796 19.4406 5.78613 18.4878L12.3164 16.311L12.8271 16.1411L12.9658 15.6206L13.7988 12.4976C15.5499 5.93154 21.4965 1.363 28.292 1.36279Z" stroke="#AF3737" stroke-width="2"/>
</g>
<path d="M42.7876 0.41772L45.1566 0.303673L30.2229 212.308L27.8544 212.422L42.7876 0.41772Z" fill="#AF3737"/>
<path d="M29.614 0.40502L31.8791 0.283707L18.3958 183.321L16.1311 183.442L29.614 0.40502Z" fill="#AF3737"/>
<path d="M55.8124 0.419501L58.1279 0.301704L43.1967 212.307L40.8818 212.424L55.8124 0.419501Z" fill="#AF3737"/>
<path d="M68.7947 0.418649L71.1487 0.303554L56.2158 212.308L53.8622 212.423L68.7947 0.418649Z" fill="#AF3737"/>
<path d="M81.7393 0.414617L84.2065 0.307431L69.2683 212.312L66.8017 212.419L81.7393 0.414617Z" fill="#AF3737"/>
<path d="M94.8249 0.420394L97.1144 0.300783L82.1844 212.306L79.8954 212.425L94.8249 0.420394Z" fill="#AF3737"/>
<path d="M107.9 0.425753L110.033 0.295226L95.1104 212.301L92.9775 212.431L107.9 0.425753Z" fill="#AF3737"/>
<path d="M120.773 0.416834L123.17 0.304757L108.235 212.309L105.839 212.421L120.773 0.416834Z" fill="#AF3737"/>
<path d="M133.7 0.411463L136.25 0.310045L121.308 212.314L118.759 212.416L133.7 0.411463Z" fill="#AF3737"/>
<path d="M143.863 30.8536L146.071 30.7282L133.209 212.239L131.002 212.364L143.863 30.8536Z" fill="#AF3737"/>
<path d="M146 28.3628L149.461 29.0055C153.251 29.7094 156 33.0161 156 36.871V174.926C156 178.781 153.251 182.088 149.461 182.792L146 183.434L145.721 184.732C144.133 192.101 137.618 197.363 130.079 197.363H34.9208C27.3825 197.363 20.8667 192.101 19.2795 184.732L19 183.434L14.6682 182.703C10.8183 182.053 8 178.719 8 174.815V36.9825C8 33.0782 10.8183 29.7441 14.6682 29.0941L19 28.3628L19.1379 27.765C20.8133 20.5053 27.2777 15.3628 34.7282 15.3628H130.272C137.722 15.3628 144.187 20.5053 145.862 27.765L146 28.3628Z" fill="#FFDA9F" stroke="#AF3737" stroke-linejoin="round"/>
<path d="M164 186.76C164 190.123 161.895 193.128 158.734 194.277L153 196.363L152.03 200.243C150.25 207.366 143.85 212.363 136.508 212.363H28.4922C21.1504 212.363 14.7504 207.366 12.9697 200.243L12 196.363L5.46973 194.187C2.20316 193.098 0 190.04 0 186.597V162.362H164V186.76Z" fill="url(#paint0_linear_2873_43042)"/>
<defs>
<filter id="filter0_d_2873_43042" x="0" y="0.362793" width="164" height="216" filterUnits="userSpaceOnUse" color-interpolation-filters="sRGB">
<feFlood flood-opacity="0" result="BackgroundImageFix"/>
<feColorMatrix in="SourceAlpha" type="matrix" values="0 0 0 0 0 0 0 0 0 0 0 0 0 0 0 0 0 0 127 0" result="hardAlpha"/>
<feOffset dy="4"/>
<feComposite in2="hardAlpha" operator="out"/>
<feColorMatrix type="matrix" values="0 0 0 0 0.172549 0 0 0 0 0.121569 0 0 0 0 0.101961 0 0 0 1 0"/>
<feBlend mode="normal" in2="BackgroundImageFix" result="effect1_dropShadow_2873_43042"/>
<feBlend mode="normal" in="SourceGraphic" in2="effect1_dropShadow_2873_43042" result="shape"/>
</filter>
<linearGradient id="paint0_linear_2873_43042" x1="82" y1="162.363" x2="82" y2="212.363" gradientUnits="userSpaceOnUse">
<stop stop-color="#5C5113" stop-opacity="0"/>
<stop offset="1" stop-color="#372222"/>
</linearGradient>
</defs>
</svg>
