<svg width="164" height="146" viewBox="0 0 164 146" fill="none" xmlns="http://www.w3.org/2000/svg">
<g filter="url(#filter0_d_2873_43035)">
<path d="M154 0C154 5.52285 158.477 10 164 10V132C158.477 132 154 136.477 154 142H10C10 136.477 5.52285 132 0 132L0 10C5.52285 10 10 5.52285 10 0H154Z" fill="#6D9F68"/>
</g>
<path d="M83.377 72.623V72.6367L92.208 142H82.0205L83.373 72.6553L66.8535 142H44.6348L83.373 72.6289L83.377 72.6191V72.6152L9.40527 138.598C8.0131 134.75 4.32811 132 0 132V120.791L83.377 72.6152L92.7646 0H107.328L83.377 72.623ZM164 59.4775L83.46 72.6152H164V95.46L83.4092 72.6191L83.3994 72.623L164 114.075V132C163.012 132 162.058 132.144 161.157 132.411L83.3994 72.623H83.3848L136.623 142H110.269L83.3809 72.6191V72.6162L83.3848 72.623L83.3955 72.6191L83.3916 72.6152H83.4131L164 42.3213V59.4775ZM83.3672 72.6094L83.377 72.6152L0 81.6514V58.4561L83.3535 72.6094L0 30.5791V10C0.442343 10 0.877523 9.96779 1.30469 9.91211L83.3633 72.6094H83.3672L50.5176 0H72.4346L83.3672 72.6094ZM154 0C154 5.52285 158.477 10 164 10V13.9453L83.3887 72.6074L140.434 0H154Z" fill="#4C8148"/>
<path d="M164 132C158.477 132 154 136.477 154 142H10C10 136.477 5.52285 132 0 132V102H164V132Z" fill="url(#paint0_linear_2873_43035)"/>
<path d="M152.167 2C153.01 7.02482 156.975 10.9889 162 11.832V130.167C156.975 131.01 153.01 134.975 152.167 140H11.833C10.9899 134.975 7.02487 131.01 2 130.167V11.832C7.02479 10.9889 10.9899 7.02482 11.833 2H152.167Z" stroke="white" stroke-width="4"/>
<path d="M152.601 1.5C153.272 6.65117 157.349 10.7272 162.5 11.3984V130.601C157.349 131.272 153.272 135.349 152.601 140.5H11.3994C10.7282 135.349 6.65121 131.272 1.5 130.601V11.3984C6.65115 10.7272 10.7282 6.65117 11.3994 1.5H152.601Z" stroke="#C14141" stroke-width="3"/>
<path d="M153.513 0.5C153.766 5.90109 158.099 10.2341 163.5 10.4873V131.512C158.099 131.765 153.766 136.099 153.513 141.5H10.4873C10.2341 136.099 5.90111 131.765 0.5 131.512V10.4873C5.90109 10.2341 10.2341 5.90109 10.4873 0.5H153.513Z" stroke="#2C1F1A"/>
<defs>
<filter id="filter0_d_2873_43035" x="0" y="0" width="164" height="146" filterUnits="userSpaceOnUse" color-interpolation-filters="sRGB">
<feFlood flood-opacity="0" result="BackgroundImageFix"/>
<feColorMatrix in="SourceAlpha" type="matrix" values="0 0 0 0 0 0 0 0 0 0 0 0 0 0 0 0 0 0 127 0" result="hardAlpha"/>
<feOffset dy="4"/>
<feComposite in2="hardAlpha" operator="out"/>
<feColorMatrix type="matrix" values="0 0 0 0 0.172549 0 0 0 0 0.121569 0 0 0 0 0.101961 0 0 0 1 0"/>
<feBlend mode="normal" in2="BackgroundImageFix" result="effect1_dropShadow_2873_43035"/>
<feBlend mode="normal" in="SourceGraphic" in2="effect1_dropShadow_2873_43035" result="shape"/>
</filter>
<linearGradient id="paint0_linear_2873_43035" x1="83" y1="142" x2="83" y2="102" gradientUnits="userSpaceOnUse">
<stop offset="0.2403" stop-color="#273925"/>
<stop offset="1" stop-color="#6D9F68" stop-opacity="0"/>
</linearGradient>
</defs>
</svg>
