<svg width="24" height="24" viewBox="0 0 24 24" fill="none" xmlns="http://www.w3.org/2000/svg">
<path d="M19.8718 4.10379L21.7055 2.27004V7.12123H16.8544L18.8724 5.10314C18.3582 4.43367 17.4753 3.88064 16.2334 3.42463C14.9915 2.96861 13.5847 2.75516 12.0032 2.75516C10.4314 2.75516 9.01483 2.96861 7.77292 3.42463C6.53102 3.88064 5.6481 4.43367 5.13388 5.10314L7.15197 7.12123H2.30078V2.27004L4.13453 4.10379C4.86221 3.24028 5.92947 2.57082 7.34602 2.05659C8.75286 1.54236 10.3052 1.2998 12.0032 1.2998C13.7011 1.2998 15.2535 1.54236 16.6603 2.05659C18.0769 2.57082 19.1441 3.24028 19.8718 4.10379ZM19.5031 16.1153V16.29L18.7948 21.3837C18.7172 21.7524 18.562 22.0532 18.3097 22.2958C18.0477 22.5383 17.7373 22.645 17.3686 22.645H10.771C10.412 22.645 10.0627 22.5092 9.77161 22.2084L4.94953 17.4349L5.72572 16.6587C5.93917 16.4452 6.18173 16.3385 6.50191 16.3385H6.72507L10.0627 17.0662V6.63611C10.0627 6.25772 10.1888 5.91814 10.4799 5.62707C10.771 5.336 11.1105 5.18076 11.518 5.18076C11.8964 5.18076 12.236 5.336 12.5271 5.62707C12.8182 5.91814 12.9734 6.25772 12.9734 6.63611V12.4575H13.7302C13.8272 12.4575 13.9922 12.5061 14.2347 12.5643L18.6396 14.7473C19.2217 15.019 19.5031 15.475 19.5031 16.1153Z" fill="black"/>
</svg>
