<svg width="28" height="28" viewBox="0 0 28 28" fill="none" xmlns="http://www.w3.org/2000/svg">
<path d="M13.8203 7.39382C13.8203 7.39382 14.4083 4.42977 15.6051 2.7108C15.7104 2.55941 15.8552 2.43984 16.0263 2.37183C16.2852 2.26871 16.7131 2.20289 17.3263 2.32027C17.9395 2.43765 18.2905 2.72506 18.4276 2.93348C18.4891 3.02783 18.5713 3.21212 18.4145 3.46113C18.0711 4.00524 16.7789 5.80319 16.2468 7.36091L13.8214 7.39382H13.8203Z" fill="#5F5F5F"/>
<path d="M15.6629 7.36603C16.2004 6.32609 17.3347 4.19795 18.3143 2.79161C18.13 2.60842 17.8042 2.40767 17.3314 2.31662C17.2897 2.30894 17.2502 2.30346 17.2108 2.29688C16.4922 3.53427 15.2164 5.80393 14.5703 7.38029L15.6629 7.36494V7.36603Z" fill="#A3A3A3"/>
<path d="M13.8203 7.39382C13.8203 7.39382 14.4083 4.42977 15.6051 2.7108C15.7104 2.55941 15.8552 2.43984 16.0263 2.37183C16.2852 2.26871 16.7131 2.20289 17.3263 2.32027C17.9395 2.43765 18.2905 2.72506 18.4276 2.93348C18.4891 3.02783 18.5713 3.21212 18.4145 3.46113C18.0711 4.00524 16.7789 5.80319 16.2468 7.36091L13.8214 7.39382H13.8203Z" stroke="#272727" stroke-width="0.383694" stroke-miterlimit="10"/>
<path d="M8.24081 7.11215C8.30992 6.89495 8.47008 6.71724 8.67961 6.62838C9.84241 6.13255 14.7042 4.9116 19.5836 7.80215C21.0799 8.68852 21.5834 9.49809 21.7875 9.94676C21.8939 10.1826 21.8928 10.4514 21.7897 10.6883C21.1962 12.0519 19.2282 15.6533 18.0797 23.9969C18.0797 23.9969 17.9184 25.7389 12.666 25.7389C6.87946 25.7389 6.34742 23.6327 6.34742 23.6327C6.34742 23.6327 5.6991 15.1377 8.24081 7.11215Z" fill="url(#paint0_linear_40000017_44495)"/>
<path d="M8.8044 8.26562C8.8044 8.26562 8.58062 8.30512 8.51041 8.61227C8.4402 8.91943 9.77852 9.98679 14.2882 10.6603C18.7979 11.3339 20.3425 11.1375 20.3425 11.1375" stroke="#BABABA" stroke-width="0.191847" stroke-miterlimit="10" stroke-linecap="round"/>
<path d="M16.476 13.73C14.9764 12.4345 13.5635 13.1837 11.8073 13.6543C10.051 14.126 10.4799 12.2403 11.9784 11.898C13.478 11.5558 13.263 10.5279 11.9784 10.0562C10.7936 9.6218 9.282 10.2065 8.02925 11.49C7.83069 11.6929 7.69357 11.9496 7.6453 12.2293C6.66241 17.8437 6.91581 22.7626 6.96079 23.4932C7.09462 23.7455 8.03583 25.1167 12.6651 25.1167C16.2851 25.1167 17.3514 24.2435 17.4644 23.8968C17.9986 20.0179 18.6042 17.4949 19.2788 15.3854C19.3271 15.234 19.3863 14.7721 19.0298 14.5264C18.4023 14.0931 17.8878 14.9509 16.4749 13.73H16.476Z" fill="url(#paint1_linear_40000017_44495)"/>
<path d="M15.2731 24.218C15.8165 24.218 16.257 23.7774 16.257 23.234C16.257 22.6905 15.8165 22.25 15.2731 22.25C14.7296 22.25 14.2891 22.6905 14.2891 23.234C14.2891 23.7774 14.7296 24.218 15.2731 24.218Z" fill="url(#paint2_radial_40000017_44495)"/>
<path d="M14.2908 18.4175C15.0511 18.4175 15.6675 17.8011 15.6675 17.0408C15.6675 16.2804 15.0511 15.6641 14.2908 15.6641C13.5304 15.6641 12.9141 16.2804 12.9141 17.0408C12.9141 17.8011 13.5304 18.4175 14.2908 18.4175Z" fill="url(#paint3_radial_40000017_44495)"/>
<path d="M9.54117 15.6605C10.1119 15.6605 10.5745 15.1978 10.5745 14.6271C10.5745 14.0564 10.1119 13.5938 9.54117 13.5938C8.97046 13.5938 8.50781 14.0564 8.50781 14.6271C8.50781 15.1978 8.97046 15.6605 9.54117 15.6605Z" fill="url(#paint4_radial_40000017_44495)"/>
<path d="M15.3846 20.4255C16.1062 20.4255 16.6911 19.8406 16.6911 19.119C16.6911 18.3974 16.1062 17.8125 15.3846 17.8125C14.6631 17.8125 14.0781 18.3974 14.0781 19.119C14.0781 19.8406 14.6631 20.4255 15.3846 20.4255Z" fill="url(#paint5_radial_40000017_44495)"/>
<path d="M10.9742 23.1516C11.4734 23.1516 11.8781 22.7469 11.8781 22.2477C11.8781 21.7484 11.4734 21.3438 10.9742 21.3438C10.475 21.3438 10.0703 21.7484 10.0703 22.2477C10.0703 22.7469 10.475 23.1516 10.9742 23.1516Z" fill="url(#paint6_radial_40000017_44495)"/>
<path d="M9.54779 22.244C10.3336 22.244 10.9706 21.607 10.9706 20.8212C10.9706 20.0354 10.3336 19.3984 9.54779 19.3984C8.762 19.3984 8.125 20.0354 8.125 20.8212C8.125 21.607 8.762 22.244 9.54779 22.244Z" fill="url(#paint7_radial_40000017_44495)"/>
<path d="M12.666 25.7385C14.9785 25.7385 16.4353 25.3556 16.998 25.055C17.0825 24.9651 17.0956 24.8225 17.1132 24.7194C17.7067 21.0708 19.0165 14.9014 21.6382 9.65997C21.3618 9.19375 20.8013 8.5224 19.5836 7.80059C18.9386 7.41774 18.2935 7.10949 17.6573 6.85938C15.7036 10.712 13.107 17.2028 12.4488 25.4269C12.44 25.53 12.4587 25.6529 12.2656 25.7341C12.3446 25.7341 12.5848 25.7374 12.666 25.7374V25.7385Z" fill="#FCFCFC" fill-opacity="0.35"/>
<path d="M8.87207 6.34863C10.4202 5.80226 15.0431 4.88885 19.6816 7.63672C21.209 8.54152 21.7404 9.38025 21.9619 9.86719V9.86816C22.0911 10.1547 22.0898 10.4796 21.9658 10.7646C21.3734 12.1258 19.4154 15.7051 18.2705 24.0156V24.0205C18.2702 24.0228 18.269 24.0253 18.2686 24.0283C18.2677 24.0347 18.2665 24.0431 18.2646 24.0527C18.2609 24.0719 18.2555 24.0974 18.2461 24.1279C18.2272 24.1894 18.1944 24.2719 18.1377 24.3672C18.0237 24.5588 17.8163 24.7977 17.4443 25.0303C16.7038 25.4931 15.3086 25.9307 12.666 25.9307C9.75221 25.9307 8.1334 25.4011 7.23633 24.8496C6.78709 24.5734 6.52005 24.2925 6.36426 24.0732C6.28661 23.964 6.2378 23.8703 6.20703 23.8018C6.19168 23.7676 6.18096 23.7395 6.17383 23.7188C6.17026 23.7084 6.16699 23.6999 6.16504 23.6934C6.16407 23.6901 6.16371 23.6868 6.16309 23.6846C6.16281 23.6836 6.16232 23.6824 6.16211 23.6816V23.6807H6.16113L6.34766 23.6328L6.16113 23.6797L6.15723 23.6641L6.15625 23.6475V23.6455C6.15617 23.6444 6.15543 23.6428 6.15527 23.6406C6.15496 23.6363 6.15488 23.6294 6.1543 23.6211C6.15312 23.6044 6.15148 23.5799 6.14941 23.5479C6.14524 23.4829 6.13924 23.3865 6.13281 23.2617C6.11997 23.0121 6.10433 22.6472 6.09375 22.1846C6.0726 21.2589 6.07133 19.9409 6.14941 18.3721C6.30552 15.236 6.78019 11.0884 8.05762 7.05469V7.05371C8.14343 6.78416 8.34286 6.56322 8.60449 6.45215L8.87207 6.34863Z" stroke="#272727" stroke-width="0.383694" stroke-miterlimit="10"/>
<path d="M22.4658 10.8313C22.6122 10.5123 22.6099 10.1506 22.4623 9.83819C22.0714 9.01824 21.248 8.24982 20.0152 7.55484C17.7779 6.29423 15.3146 5.65625 12.6956 5.65625C10.5702 5.65625 8.90614 6.1013 8.25803 6.36438C7.95012 6.48935 7.71486 6.73599 7.61338 7.03963C7.48422 7.42658 7.34583 7.87383 7.23281 8.26297C7.18207 8.43617 7.45654 8.67075 7.47153 8.61046C7.79097 7.26106 10.1943 7.08129 12.0175 7.08129C14.8672 7.08129 17.3685 7.81573 19.8018 9.22323C20.8616 9.83599 21.4982 10.6132 21.8534 11.3652C21.8684 11.3981 21.5997 11.6688 22.0079 11.5888C22.1233 11.5669 22.2109 11.3696 22.2305 11.329C22.3239 11.1372 22.4035 10.9727 22.4681 10.8313H22.4658Z" fill="url(#paint8_linear_40000017_44495)"/>
<path d="M7.41406 8.07901C7.41406 8.07901 7.60828 7.67925 8.3759 7.32755C9.50073 6.81202 12.1319 6.6875 13.733 6.88738C15.6798 7.12986 17.5399 7.78957 18.5272 8.26578C19.5144 8.742 21.2589 9.59503 21.9745 11.2094" stroke="#A9A9A9" stroke-width="0.191847" stroke-miterlimit="10" stroke-linecap="round"/>
<path d="M20.2188 7.57603C19.4243 7.08784 18.5758 6.77876 17.7347 6.48756C17.5691 6.88781 17.3842 7.35269 17.2083 7.80894C17.176 7.89299 17.125 7.95526 17.0513 8.003C18.0508 8.34383 19.0986 8.84729 20.0668 9.45907C20.5327 9.75381 20.856 10.0244 21.167 10.3818C21.2531 10.4116 21.2669 10.3354 21.3097 10.2249C21.458 9.84069 21.731 9.29417 21.8913 8.91896C21.4773 8.4507 20.8864 7.9862 20.2188 7.57603Z" fill="#DCDCDC" fill-opacity="0.64"/>
<path d="M12.6953 5.46484C15.3465 5.46484 17.8428 6.11052 20.1094 7.3877C21.3586 8.092 22.2198 8.88548 22.6348 9.75586H22.6357C22.8031 10.1101 22.8078 10.518 22.6514 10.8809C22.6486 10.891 22.647 10.9015 22.6426 10.9111C22.577 11.0547 22.4953 11.2201 22.4023 11.4111L22.4033 11.4121C22.3957 11.4278 22.3618 11.502 22.3135 11.5732C22.2891 11.6092 22.2571 11.6513 22.2168 11.6875C22.1774 11.7228 22.1192 11.7619 22.0439 11.7764C21.9861 11.7877 21.9333 11.7946 21.8857 11.7949C21.8399 11.7952 21.7857 11.7907 21.7344 11.7676C21.6768 11.7416 21.6267 11.6939 21.6025 11.626C21.5812 11.566 21.5878 11.5108 21.5957 11.4766C21.6051 11.4361 21.6234 11.3971 21.6387 11.3682C21.2932 10.6762 20.693 9.96089 19.7051 9.38965C17.2987 7.99771 14.8306 7.27346 12.0176 7.27344C11.1085 7.27344 10.0714 7.31863 9.22656 7.52637C8.36644 7.73789 7.79073 8.09528 7.6582 8.6543V8.65723L7.47168 8.61035L7.65723 8.65723C7.64526 8.70478 7.61442 8.75527 7.55859 8.78613C7.50876 8.81353 7.46047 8.81353 7.43359 8.81055C7.38312 8.80491 7.3427 8.78275 7.32227 8.77051C7.27388 8.74149 7.22475 8.69803 7.18359 8.65137C7.14177 8.60393 7.09835 8.54251 7.06934 8.47266C7.0408 8.40384 7.01949 8.30912 7.04883 8.20898C7.16243 7.81784 7.30164 7.36798 7.43164 6.97852C7.55165 6.61979 7.8281 6.33167 8.18555 6.18652C8.85797 5.91357 10.5469 5.46488 12.6953 5.46484Z" stroke="#272727" stroke-width="0.383694" stroke-miterlimit="10" stroke-linejoin="round"/>
<defs>
<linearGradient id="paint0_linear_40000017_44495" x1="14.0703" y1="5.94531" x2="14.0703" y2="25.7389" gradientUnits="userSpaceOnUse">
<stop stop-color="#F4F4F4"/>
<stop offset="0.774642" stop-color="#606060"/>
<stop offset="1" stop-color="#D0D0D0"/>
</linearGradient>
<linearGradient id="paint1_linear_40000017_44495" x1="13.1069" y1="9.91406" x2="13.1069" y2="25.1167" gradientUnits="userSpaceOnUse">
<stop stop-color="#E3E3E3"/>
<stop offset="0.455516" stop-color="#757575"/>
<stop offset="1" stop-color="#282828"/>
</linearGradient>
<radialGradient id="paint2_radial_40000017_44495" cx="0" cy="0" r="1" gradientUnits="userSpaceOnUse" gradientTransform="translate(14.9276 22.4928) rotate(78.6762) scale(1.75942)">
<stop offset="0.333565" stop-color="#232323"/>
<stop offset="1" stop-color="#5C5C5C"/>
</radialGradient>
<radialGradient id="paint3_radial_40000017_44495" cx="0" cy="0" r="1" gradientUnits="userSpaceOnUse" gradientTransform="translate(13.8074 16.0038) rotate(78.6762) scale(2.46162)">
<stop offset="0.333565" stop-color="#232323"/>
<stop offset="1" stop-color="#5C5C5C"/>
</radialGradient>
<radialGradient id="paint4_radial_40000017_44495" cx="0" cy="0" r="1" gradientUnits="userSpaceOnUse" gradientTransform="translate(9.17837 13.8487) rotate(78.6762) scale(1.84769)">
<stop offset="0.333565" stop-color="#232323"/>
<stop offset="1" stop-color="#5C5C5C"/>
</radialGradient>
<radialGradient id="paint5_radial_40000017_44495" cx="0" cy="0" r="1" gradientUnits="userSpaceOnUse" gradientTransform="translate(14.9259 18.1349) rotate(78.6762) scale(2.33609 2.33609)">
<stop offset="0.333565" stop-color="#232323"/>
<stop offset="1" stop-color="#5C5C5C"/>
</radialGradient>
<radialGradient id="paint6_radial_40000017_44495" cx="0" cy="0" r="1" gradientUnits="userSpaceOnUse" gradientTransform="translate(10.6569 21.5668) rotate(78.6762) scale(1.61623)">
<stop offset="0.333565" stop-color="#232323"/>
<stop offset="1" stop-color="#5C5C5C"/>
</radialGradient>
<radialGradient id="paint7_radial_40000017_44495" cx="0" cy="0" r="1" gradientUnits="userSpaceOnUse" gradientTransform="translate(9.04826 19.7495) rotate(78.6762) scale(2.544 2.544)">
<stop offset="0.333565" stop-color="#232323"/>
<stop offset="1" stop-color="#5C5C5C"/>
</radialGradient>
<linearGradient id="paint8_linear_40000017_44495" x1="14.9004" y1="5.65625" x2="22.0802" y2="11.7805" gradientUnits="userSpaceOnUse">
<stop stop-color="#EEEEEE"/>
<stop offset="1" stop-color="#ADADAD"/>
</linearGradient>
</defs>
</svg>
