<svg width="128" height="182" viewBox="0 0 128 182" fill="none" xmlns="http://www.w3.org/2000/svg">
<g clip-path="url(#clip0_2873_43314)">
<path d="M68.2227 40.2453C68.2227 40.2453 63.8388 18.1459 54.9156 5.32953C54.1304 4.20083 53.0508 3.30933 51.7748 2.80224C49.8446 2.03342 46.6548 1.54269 42.0828 2.41783C37.5108 3.29297 34.8936 5.43585 33.8712 6.98985C33.4132 7.69323 32.7998 9.06729 33.9693 10.9239C36.5293 14.9806 46.1641 28.3859 50.1309 40L68.2145 40.2453H68.2227Z" fill="#96887D"/>
<path d="M54.5227 40.0599C50.5151 32.3063 42.0581 16.4392 34.7543 5.95383C36.1284 4.58795 38.5575 3.09121 42.0826 2.41236C42.3934 2.3551 42.6878 2.31421 42.9823 2.26514C48.3395 11.491 57.8516 28.4131 62.6689 40.1662L54.5227 40.0517V40.0599Z" fill="#87796E"/>
<path d="M68.2227 40.2453C68.2227 40.2453 63.8388 18.1459 54.9156 5.32953C54.1304 4.20083 53.0508 3.30933 51.7748 2.80224C49.8446 2.03342 46.6548 1.54269 42.0828 2.41783C37.5108 3.29297 34.8936 5.43585 33.8712 6.98985C33.4132 7.69323 32.7998 9.06729 33.9693 10.9239C36.5293 14.9806 46.1641 28.3859 50.1309 40L68.2145 40.2453H68.2227Z" stroke="#514440" stroke-width="2.86076" stroke-miterlimit="10" stroke-linecap="round" stroke-dasharray="5.72 5.72"/>
<path d="M109.808 38.1758C109.293 36.5564 108.099 35.2314 106.537 34.5689C97.8669 30.8721 61.6179 21.7689 25.2381 43.3204C14.0821 49.9289 10.328 55.965 8.80667 59.3102C8.01332 61.0686 8.02149 63.0725 8.79031 64.8391C13.2151 75.0055 27.8881 101.857 36.4514 164.066C36.4514 164.066 37.6537 177.054 76.8144 177.054C119.958 177.054 123.925 161.35 123.925 161.35C123.925 161.35 128.759 98.0128 109.808 38.1758Z" fill="url(#paint0_linear_2873_43314)"/>
<path d="M105.582 46.7632C105.582 46.7632 107.25 47.0576 107.774 49.3477C108.297 51.6378 98.3188 59.5959 64.6952 64.6178C31.0717 69.6396 19.5558 68.1756 19.5558 68.1756" stroke="#CABCAC" stroke-width="1.43038" stroke-miterlimit="10" stroke-linecap="round"/>
<path d="M76.8145 177.063C59.5733 177.063 48.7117 174.208 44.516 171.967C43.8862 171.297 43.788 170.234 43.6572 169.465C39.2324 142.262 29.4667 96.2634 9.91913 57.1845C11.9802 53.7085 16.1596 48.703 25.2382 43.3212C30.0474 40.4668 34.8567 38.1685 39.6004 36.3037C54.1671 65.0281 73.5266 113.423 78.4339 174.74C78.4994 175.509 78.3603 176.425 79.7998 177.03C79.2109 177.03 77.4197 177.055 76.8145 177.055V177.063Z" fill="#A79C94" fill-opacity="0.64"/>
<path d="M109.808 38.1758C109.293 36.5564 108.099 35.2314 106.537 34.5689C97.8669 30.8721 61.6179 21.7689 25.2381 43.3204C14.0821 49.9289 10.328 55.965 8.80667 59.3102C8.01332 61.0686 8.02149 63.0725 8.79031 64.8391C13.2151 75.0055 27.8881 101.857 36.4514 164.066C36.4514 164.066 37.6537 177.054 76.8144 177.054C119.958 177.054 123.925 161.35 123.925 161.35C123.925 161.35 128.759 98.0128 109.808 38.1758Z" stroke="#514440" stroke-width="2.86076" stroke-miterlimit="10" stroke-linecap="round" stroke-dasharray="5.72 5.72"/>
<path d="M3.77257 65.8702C2.68059 63.4918 2.69778 60.7948 3.79836 58.4655C6.71317 52.3521 12.8523 46.6229 22.0439 41.4412C38.7245 32.0423 57.0904 27.2856 76.617 27.2856C92.4636 27.2856 104.871 30.6039 109.703 32.5654C111.999 33.4971 113.753 35.336 114.51 37.5999C115.473 40.485 116.504 43.8195 117.347 46.7209C117.725 48.0123 115.679 49.7613 115.567 49.3118C113.185 39.2508 95.2666 37.9105 81.6728 37.9105C60.4265 37.9105 41.7769 43.3864 23.6345 53.8804C15.7327 58.4491 10.9865 64.2437 8.33825 69.8504C8.22647 70.0956 10.2299 72.1143 7.18608 71.5177C6.32625 71.3542 5.67278 69.8831 5.52661 69.5807C4.83015 68.1504 4.23687 66.9245 3.75537 65.8702H3.77257Z" fill="url(#paint1_linear_2873_43314)"/>
<path d="M116.008 45.3157C116.008 45.3157 114.56 42.3352 108.837 39.713C100.45 35.8693 80.8324 34.9409 68.8947 36.4312C54.3798 38.239 40.5113 43.1577 33.1505 46.7083C25.7896 50.2589 12.783 56.619 7.44769 68.6551" stroke="#C2B7AF" stroke-width="1.43038" stroke-miterlimit="10" stroke-linecap="round"/>
<path d="M20.5661 41.5839C26.4895 37.944 32.8156 35.6396 39.0873 33.4684C40.3214 36.4527 41.7005 39.9187 43.0119 43.3205C43.2528 43.9471 43.6332 44.4114 44.182 44.7674C36.7305 47.3085 28.9181 51.0623 21.699 55.6235C18.2257 57.8211 15.8153 59.8383 13.4964 62.503C12.8541 62.7257 12.7516 62.1572 12.4325 61.3336C11.3265 58.4689 9.29095 54.3941 8.09633 51.5966C11.1832 48.1053 15.5885 44.6421 20.5661 41.5839Z" fill="#A79C94" fill-opacity="0.64"/>
<path d="M3.7747 65.8702C2.68274 63.4918 2.69994 60.7948 3.8005 58.4655C6.71525 52.3521 12.8543 46.6229 22.0457 41.4412C38.726 32.0423 57.0915 27.2856 76.6178 27.2856C92.4641 27.2856 104.871 30.6039 109.703 32.5654C111.999 33.4971 113.753 35.336 114.51 37.5999C115.473 40.485 116.504 43.8195 117.347 46.7209C117.725 48.0123 115.679 49.7613 115.567 49.3118C113.185 39.2508 95.267 37.9105 81.6735 37.9105C60.4276 37.9105 41.7783 43.3864 23.6363 53.8804C15.7347 58.4491 10.9885 64.2437 8.3403 69.8504C8.22852 70.0956 10.2319 72.1143 7.18815 71.5177C6.32834 71.3542 5.67488 69.8831 5.52871 69.5807C4.83226 68.1504 4.239 66.9245 3.7575 65.8702H3.7747Z" stroke="#514440" stroke-width="2.86076" stroke-miterlimit="10" stroke-linecap="round" stroke-dasharray="5.72 5.72"/>
</g>
<defs>
<linearGradient id="paint0_linear_2873_43314" x1="66.3446" y1="29.4761" x2="-21.6497" y2="52.3894" gradientUnits="userSpaceOnUse">
<stop stop-color="#D8D2CE"/>
<stop offset="1" stop-color="#A6988F"/>
</linearGradient>
<linearGradient id="paint1_linear_2873_43314" x1="60.1784" y1="27.2856" x2="6.64715" y2="72.9467" gradientUnits="userSpaceOnUse">
<stop stop-color="#D8D2CE"/>
<stop offset="1" stop-color="#A6988F"/>
</linearGradient>
<clipPath id="clip0_2873_43314">
<rect width="127.304" height="181.658" fill="white" transform="matrix(-1 0 0 1 127.405 0.108398)"/>
</clipPath>
</defs>
</svg>
