<svg width="179" height="227" viewBox="0 0 179 227" fill="none" xmlns="http://www.w3.org/2000/svg">
<path d="M120.864 58.8677C111.064 58.8677 102.037 62.1022 94.7952 67.5573L86.1057 55.9712C95.809 48.6816 107.83 44.3851 120.864 44.3851C133.898 44.3851 145.919 48.6816 155.622 55.9712L149.443 64.178C147.657 64.5159 145.871 64.9987 144.229 65.6745C137.471 61.2815 129.457 58.8677 120.864 58.8677ZM164.312 44.3851L173.001 32.799C158.47 21.8888 140.415 15.4199 120.864 15.4199C101.312 15.4199 83.2574 21.8888 68.7266 32.799L77.4161 44.3851C89.4849 35.3094 104.547 29.9025 120.864 29.9025C137.181 29.9025 152.243 35.3094 164.312 44.3851ZM120.864 73.3503C114.347 73.3503 108.312 75.5227 103.485 79.1433L120.864 102.315L125.885 95.6052C125.691 94.6397 125.691 93.6742 125.691 92.6604C125.691 86.1915 127.816 80.2537 131.436 75.4261C128.105 74.1227 124.581 73.3503 120.864 73.3503ZM164.891 75.571L154.657 85.8536L144.422 75.6192L137.615 82.4261L147.85 92.6604L137.615 102.895L144.422 109.75L154.657 99.4672L164.891 109.75L171.746 102.895L161.463 92.6604L171.746 82.4261L164.891 75.571Z" fill="#797064"/>
<g clip-path="url(#clip0_2873_43312)">
<path d="M68.1211 85.4162C68.1211 85.4162 63.7372 63.3168 54.814 50.5004C54.0288 49.3717 52.9492 48.4802 51.6733 47.9731C49.7431 47.2043 46.5533 46.7136 41.9813 47.5887C37.4092 48.4639 34.792 50.6067 33.7696 52.1607C33.3116 52.8641 32.6982 54.2382 33.8678 56.0948C36.4278 60.1515 46.0625 73.5568 50.0293 85.1709L68.1129 85.4162H68.1211Z" fill="#786657"/>
<path d="M54.4212 85.2308C50.4135 77.4772 41.9565 61.6101 34.6527 51.1247C36.0268 49.7588 38.4559 48.2621 41.981 47.5833C42.2918 47.526 42.5863 47.4851 42.8807 47.436C48.2379 56.6619 57.75 73.584 62.5674 85.3371L54.4212 85.2226V85.2308Z" fill="#6B5B4E"/>
<path d="M68.1211 85.4162C68.1211 85.4162 63.7372 63.3168 54.814 50.5004C54.0288 49.3717 52.9492 48.4802 51.6733 47.9731C49.7431 47.2043 46.5533 46.7136 41.9813 47.5887C37.4092 48.4639 34.792 50.6067 33.7696 52.1607C33.3116 52.8641 32.6982 54.2382 33.8678 56.0948C36.4278 60.1515 46.0625 73.5568 50.0293 85.1709L68.1129 85.4162H68.1211Z" stroke="#514440" stroke-width="2.86076" stroke-miterlimit="10"/>
<path d="M109.709 83.3467C109.193 81.7273 107.999 80.4023 106.437 79.7398C97.7673 76.043 61.5183 66.9398 25.1385 88.4913C13.9825 95.0998 10.2283 101.136 8.70706 104.481C7.91371 106.24 7.92188 108.243 8.6907 110.01C13.1155 120.176 27.7885 147.028 36.3518 209.237C36.3518 209.237 37.5541 222.225 76.7148 222.225C119.859 222.225 123.825 206.521 123.825 206.521C123.825 206.521 128.659 143.184 109.709 83.3467Z" fill="url(#paint0_linear_2873_43312)"/>
<path d="M105.481 91.9341C105.481 91.9341 107.15 92.2285 107.673 94.5186C108.196 96.8087 98.2182 104.767 64.5946 109.789C30.9711 114.811 19.4552 113.346 19.4552 113.346" stroke="#BBA78E" stroke-width="1.43038" stroke-miterlimit="10" stroke-linecap="round"/>
<path d="M48.2972 132.689C59.4778 123.03 70.0123 128.616 83.1067 132.124C96.2012 135.641 93.0032 121.582 81.8308 119.03C70.6502 116.478 72.2533 108.815 81.8308 105.298C90.664 102.059 101.935 106.418 111.275 115.987C112.755 117.501 113.778 119.414 114.138 121.5C121.466 163.36 119.577 200.034 119.241 205.481C118.243 207.362 111.226 217.586 76.7108 217.586C49.7204 217.586 41.7705 211.076 40.928 208.491C36.9449 179.57 32.4302 160.759 27.4001 145.031C27.0402 143.902 26.5986 140.459 29.2567 138.627C33.9351 135.396 37.771 141.792 48.3054 132.689H48.2972Z" fill="url(#paint1_linear_2873_43312)"/>
<path d="M57.2543 210.858C53.2025 210.858 49.9178 207.573 49.9178 203.521C49.9178 199.469 53.2025 196.185 57.2543 196.185C61.3062 196.185 64.5908 199.469 64.5908 203.521C64.5908 207.573 61.3062 210.858 57.2543 210.858Z" fill="url(#paint2_radial_2873_43312)"/>
<path d="M64.6075 167.634C58.9386 167.634 54.343 163.038 54.343 157.369C54.343 151.7 58.9386 147.104 64.6075 147.104C70.2765 147.104 74.8721 151.7 74.8721 157.369C74.8721 163.038 70.2765 167.634 64.6075 167.634Z" fill="url(#paint3_radial_2873_43312)"/>
<path d="M99.9771 147.092C95.722 147.092 92.2726 143.643 92.2726 139.388C92.2726 135.133 95.722 131.683 99.9771 131.683C104.232 131.683 107.682 135.133 107.682 139.388C107.682 143.643 104.232 147.092 99.9771 147.092Z" fill="url(#paint4_radial_2873_43312)"/>
<path d="M56.4816 182.622C51.1017 182.622 46.7405 178.261 46.7405 172.881C46.7405 167.501 51.1017 163.14 56.4816 163.14C61.8614 163.14 66.2227 167.501 66.2227 172.881C66.2227 178.261 61.8614 182.622 56.4816 182.622Z" fill="url(#paint5_radial_2873_43312)"/>
<path d="M89.3651 202.925C85.643 202.925 82.6256 199.907 82.6256 196.185C82.6256 192.463 85.643 189.446 89.3651 189.446C93.0871 189.446 96.1045 192.463 96.1045 196.185C96.1045 199.907 93.0871 202.925 89.3651 202.925Z" fill="url(#paint6_radial_2873_43312)"/>
<path d="M99.9789 196.179C94.1202 196.179 89.3708 191.43 89.3708 185.571C89.3708 179.713 94.1202 174.963 99.9789 174.963C105.838 174.963 110.587 179.713 110.587 185.571C110.587 191.43 105.838 196.179 99.9789 196.179Z" fill="url(#paint7_radial_2873_43312)"/>
<path d="M76.7139 222.234C59.4728 222.234 48.6111 219.379 44.4154 217.138C43.7856 216.468 43.6874 215.404 43.5566 214.636C39.1318 187.433 29.3662 141.434 9.81854 102.355C11.8796 98.8793 16.0591 93.8739 25.1377 88.4921C29.9469 85.6377 34.7561 83.3394 39.4998 81.4746C54.0665 110.199 73.426 158.594 78.3333 219.911C78.3988 220.68 78.2597 221.596 79.6992 222.201C79.1103 222.201 77.3192 222.226 76.7139 222.226V222.234Z" fill="#837C77" fill-opacity="0.64"/>
<path d="M123.825 206.521L125.211 206.875C125.211 206.876 125.21 206.878 125.21 206.879C125.209 206.882 125.209 206.885 125.208 206.888C125.206 206.895 125.204 206.902 125.202 206.911C125.197 206.928 125.191 206.949 125.184 206.973C125.169 207.022 125.15 207.086 125.123 207.164C125.07 207.318 124.99 207.527 124.876 207.782C124.647 208.293 124.277 208.988 123.697 209.803C122.536 211.438 120.548 213.532 117.198 215.591C110.51 219.704 98.4414 223.655 76.7148 223.655C57.0121 223.655 46.6109 220.394 41.0898 216.944C38.3149 215.21 36.7722 213.427 35.9219 211.998C35.4987 211.286 35.2544 210.674 35.1133 210.215C35.0429 209.987 34.9984 209.797 34.9707 209.654C34.9569 209.582 34.9472 209.522 34.9404 209.474C34.9371 209.45 34.9337 209.429 34.9316 209.412V209.411C26.3965 147.425 11.7967 120.731 7.37891 110.581C6.45384 108.455 6.43932 106.03 7.40332 103.893L7.40527 103.889L7.74316 103.178C9.58068 99.4755 13.7314 93.5855 24.4092 87.2603C60.7227 65.7481 96.9056 74.3304 106.559 78.2417L106.998 78.4243C108.949 79.2525 110.432 80.9028 111.071 82.9126L111.072 82.9146C120.598 112.992 124.138 143.918 125.302 167.301C125.884 178.998 125.873 188.821 125.715 195.722C125.636 199.173 125.521 201.895 125.425 203.756C125.377 204.687 125.334 205.403 125.303 205.887C125.287 206.129 125.274 206.313 125.266 206.438C125.261 206.5 125.257 206.548 125.255 206.58C125.254 206.596 125.254 206.608 125.253 206.617C125.253 206.621 125.252 206.624 125.252 206.626V206.628L123.825 206.521ZM123.825 206.521L125.252 206.63L125.242 206.752L125.212 206.872L123.825 206.521Z" stroke="#514440" stroke-width="2.86076" stroke-miterlimit="10"/>
<path d="M3.67198 111.041C2.58 108.663 2.5972 105.966 3.69778 103.636C6.61258 97.523 12.7517 91.7938 21.9433 86.6121C38.6239 77.2132 56.9898 72.4565 76.5164 72.4565C92.363 72.4565 104.77 75.7748 109.603 77.7363C111.898 78.668 113.652 80.5069 114.409 82.7708C115.372 85.6559 116.404 88.9904 117.246 91.8918C117.625 93.1832 115.578 94.9322 115.467 94.4826C113.085 84.4217 95.166 83.0814 81.5722 83.0814C60.3259 83.0814 41.6763 88.5573 23.534 99.0513C15.6322 103.62 10.8859 109.415 8.23766 115.021C8.12588 115.266 10.1293 117.285 7.08549 116.689C6.22567 116.525 5.57219 115.054 5.42602 114.752C4.72956 113.321 4.13628 112.095 3.65478 111.041H3.67198Z" fill="url(#paint8_linear_2873_43312)"/>
<path d="M115.907 90.4866C115.907 90.4866 114.459 87.5061 108.736 84.8839C100.349 81.0402 80.7319 80.1118 68.7941 81.6021C54.2792 83.4099 40.4108 88.3286 33.0499 91.8792C25.689 95.4298 12.6825 101.79 7.34711 113.826" stroke="#A78B75" stroke-width="1.43038" stroke-miterlimit="10" stroke-linecap="round"/>
<path d="M20.4655 86.7548C26.3889 83.1149 32.715 80.8105 38.9867 78.6393C40.2208 81.6236 41.6 85.0896 42.9113 88.4914C43.1523 89.118 43.5326 89.5823 44.0814 89.9383C36.63 92.4794 28.8175 96.2332 21.5984 100.794C18.1252 102.992 15.7147 105.009 13.3958 107.674C12.7535 107.897 12.651 107.328 12.3319 106.504C11.226 103.64 9.19037 99.565 7.99574 96.7675C11.0826 93.2762 15.4879 89.813 20.4655 86.7548Z" fill="#837C77" fill-opacity="0.64"/>
<path d="M76.5176 71.0259C56.7511 71.0259 38.1426 75.8434 21.2432 85.3657H21.2422C12.2187 90.4528 5.90777 96.1619 2.70898 102.414L2.40918 103.021L2.40625 103.025C1.15586 105.671 1.10939 108.723 2.2832 111.432C2.30277 111.501 2.32531 111.569 2.35547 111.635C2.84501 112.707 3.44687 113.947 4.1416 115.374L4.14062 115.375C4.19775 115.493 4.4462 116.045 4.80664 116.576C4.98859 116.844 5.22954 117.153 5.53027 117.423C5.82454 117.688 6.25687 117.987 6.82031 118.094L6.82129 118.093C7.25087 118.177 7.64428 118.227 7.99805 118.229C8.33986 118.231 8.74167 118.191 9.12402 118.018C9.55314 117.824 9.92863 117.472 10.1084 116.966C10.2679 116.517 10.2161 116.104 10.1572 115.849C10.0855 115.538 9.94595 115.242 9.83008 115.024C12.3234 110.036 16.6022 104.891 23.5439 100.708L24.252 100.29C42.1945 89.9108 60.5991 84.5122 81.5732 84.5122C88.3515 84.5122 96.0839 84.8489 102.383 86.3979C108.797 87.9753 113.087 90.6428 114.074 94.812C114.075 94.8172 114.077 94.8225 114.078 94.8276C114.167 95.1843 114.4 95.5646 114.82 95.7954C115.192 95.9995 115.549 95.9974 115.749 95.9751C116.126 95.9331 116.429 95.7665 116.581 95.6753C116.942 95.4588 117.306 95.1337 117.613 94.7856C117.925 94.4315 118.249 93.9742 118.465 93.4526C118.678 92.9396 118.838 92.2363 118.619 91.4897C117.772 88.5733 116.735 85.2219 115.766 82.3179L115.584 81.8218C114.61 79.3767 112.641 77.4253 110.141 76.4106L109.648 76.2163C104.337 74.1696 92.0355 71.0259 76.5176 71.0259Z" stroke="#514440" stroke-width="2.86076" stroke-miterlimit="10" stroke-linejoin="round"/>
</g>
<defs>
<linearGradient id="paint0_linear_2873_43312" x1="66.245" y1="74.647" x2="-21.7493" y2="97.5603" gradientUnits="userSpaceOnUse">
<stop stop-color="#C5B4A8"/>
<stop offset="1" stop-color="#8E7A6C"/>
</linearGradient>
<linearGradient id="paint1_linear_2873_43312" x1="73.4171" y1="104.238" x2="73.4171" y2="217.586" gradientUnits="userSpaceOnUse">
<stop stop-color="#E6D7C4"/>
<stop offset="0.455516" stop-color="#C7A97E"/>
<stop offset="1" stop-color="#624333"/>
</linearGradient>
<radialGradient id="paint2_radial_2873_43312" cx="0" cy="0" r="1" gradientUnits="userSpaceOnUse" gradientTransform="translate(59.8301 197.995) rotate(101.324) scale(13.1179 13.1179)">
<stop offset="0.333565" stop-color="#2A1D0E"/>
<stop offset="1" stop-color="#5F5947"/>
</radialGradient>
<radialGradient id="paint3_radial_2873_43312" cx="0" cy="0" r="1" gradientUnits="userSpaceOnUse" gradientTransform="translate(68.2113 149.637) rotate(101.324) scale(18.3534 18.3534)">
<stop offset="0.333565" stop-color="#2A1D0E"/>
<stop offset="1" stop-color="#5F5947"/>
</radialGradient>
<radialGradient id="paint4_radial_2873_43312" cx="0" cy="0" r="1" gradientUnits="userSpaceOnUse" gradientTransform="translate(102.682 133.584) rotate(101.324) scale(13.776 13.776)">
<stop offset="0.333565" stop-color="#2A1D0E"/>
<stop offset="1" stop-color="#5F5947"/>
</radialGradient>
<radialGradient id="paint5_radial_2873_43312" cx="0" cy="0" r="1" gradientUnits="userSpaceOnUse" gradientTransform="translate(59.9015 165.544) rotate(101.324) scale(17.4175 17.4175)">
<stop offset="0.333565" stop-color="#2A1D0E"/>
<stop offset="1" stop-color="#5F5947"/>
</radialGradient>
<radialGradient id="paint6_radial_2873_43312" cx="0" cy="0" r="1" gradientUnits="userSpaceOnUse" gradientTransform="translate(91.7312 191.109) rotate(101.324) scale(12.0504 12.0504)">
<stop offset="0.333565" stop-color="#2A1D0E"/>
<stop offset="1" stop-color="#5F5947"/>
</radialGradient>
<radialGradient id="paint7_radial_2873_43312" cx="0" cy="0" r="1" gradientUnits="userSpaceOnUse" gradientTransform="translate(103.703 177.581) rotate(101.324) scale(18.9676 18.9676)">
<stop offset="0.333565" stop-color="#2A1D0E"/>
<stop offset="1" stop-color="#5F5947"/>
</radialGradient>
<linearGradient id="paint8_linear_2873_43312" x1="60.0778" y1="72.4565" x2="6.54657" y2="118.118" gradientUnits="userSpaceOnUse">
<stop stop-color="#C5B4A8"/>
<stop offset="1" stop-color="#8E7A6C"/>
</linearGradient>
<clipPath id="clip0_2873_43312">
<rect width="127.304" height="181.658" fill="white" transform="matrix(-1 0 0 1 127.305 45.2793)"/>
</clipPath>
</defs>
</svg>
