<svg width="276" height="258" viewBox="0 0 276 258" fill="none" xmlns="http://www.w3.org/2000/svg">
<g clip-path="url(#clip0_2873_43311)">
<path d="M124.121 74.1369C124.121 74.1369 119.737 52.0375 110.814 39.2211C110.029 38.0924 108.949 37.2009 107.673 36.6938C105.743 35.925 102.553 35.4343 97.9813 36.3094C93.4092 37.1846 90.792 39.3275 89.7696 40.8814C89.3116 41.5848 88.6982 42.9589 89.8678 44.8155C92.4278 48.8723 102.063 62.2775 106.029 73.8916L124.113 74.1369H124.121Z" fill="#786657"/>
<path d="M110.421 73.9515C106.414 66.1979 97.9565 50.3308 90.6527 39.8454C92.0268 38.4796 94.4559 36.9828 97.981 36.304C98.2918 36.2467 98.5863 36.2058 98.8807 36.1567C104.238 45.3826 113.75 62.3047 118.567 74.0578L110.421 73.9433V73.9515Z" fill="#6B5B4E"/>
<path d="M124.121 74.1369C124.121 74.1369 119.737 52.0375 110.814 39.2211C110.029 38.0924 108.949 37.2009 107.673 36.6938C105.743 35.925 102.553 35.4343 97.9813 36.3094C93.4092 37.1846 90.792 39.3275 89.7696 40.8814C89.3116 41.5848 88.6982 42.9589 89.8678 44.8155C92.4278 48.8723 102.063 62.2775 106.029 73.8916L124.113 74.1369H124.121Z" stroke="#514440" stroke-width="2.86076" stroke-miterlimit="10"/>
<path d="M165.709 72.0674C165.193 70.448 163.999 69.123 162.437 68.4605C153.767 64.7637 117.518 55.6605 81.1385 77.212C69.9825 83.8205 66.2283 89.8566 64.7071 93.2018C63.9137 94.9602 63.9219 96.9641 64.6907 98.7307C69.1155 108.897 83.7885 135.748 92.3518 197.957C92.3518 197.957 93.5541 210.945 132.715 210.945C175.859 210.945 179.825 195.242 179.825 195.242C179.825 195.242 184.659 131.904 165.709 72.0674Z" fill="url(#paint0_linear_2873_43311)"/>
<path d="M161.481 80.6548C161.481 80.6548 163.15 80.9492 163.673 83.2393C164.196 85.5294 154.218 93.4875 120.595 98.5094C86.9711 103.531 75.4552 102.067 75.4552 102.067" stroke="#BBA78E" stroke-width="1.43038" stroke-miterlimit="10" stroke-linecap="round"/>
<path d="M104.297 121.41C115.478 111.75 126.012 117.336 139.107 120.845C152.201 124.362 149.003 110.303 137.831 107.751C126.65 105.199 128.253 97.5353 137.831 94.0183C146.664 90.7795 157.935 95.1388 167.275 104.708C168.755 106.221 169.778 108.135 170.138 110.221C177.466 152.08 175.577 188.755 175.241 194.202C174.243 196.083 167.226 206.307 132.711 206.307C105.72 206.307 97.7705 199.796 96.928 197.212C92.9449 168.291 88.4302 149.48 83.4001 133.752C83.0402 132.623 82.5986 129.179 85.2567 127.347C89.9351 124.117 93.771 130.513 104.305 121.41H104.297Z" fill="url(#paint1_linear_2873_43311)"/>
<path d="M113.254 199.578C109.202 199.578 105.918 196.294 105.918 192.242C105.918 188.19 109.202 184.905 113.254 184.905C117.306 184.905 120.591 188.19 120.591 192.242C120.591 196.294 117.306 199.578 113.254 199.578Z" fill="url(#paint2_radial_2873_43311)"/>
<path d="M120.608 156.354C114.939 156.354 110.343 151.759 110.343 146.09C110.343 140.421 114.939 135.825 120.608 135.825C126.276 135.825 130.872 140.421 130.872 146.09C130.872 151.759 126.276 156.354 120.608 156.354Z" fill="url(#paint3_radial_2873_43311)"/>
<path d="M155.977 135.813C151.722 135.813 148.273 132.363 148.273 128.108C148.273 123.853 151.722 120.404 155.977 120.404C160.232 120.404 163.682 123.853 163.682 128.108C163.682 132.363 160.232 135.813 155.977 135.813Z" fill="url(#paint4_radial_2873_43311)"/>
<path d="M112.482 171.343C107.102 171.343 102.74 166.982 102.74 161.602C102.74 156.222 107.102 151.861 112.482 151.861C117.861 151.861 122.223 156.222 122.223 161.602C122.223 166.982 117.861 171.343 112.482 171.343Z" fill="url(#paint5_radial_2873_43311)"/>
<path d="M145.365 191.645C141.643 191.645 138.626 188.628 138.626 184.906C138.626 181.184 141.643 178.167 145.365 178.167C149.087 178.167 152.104 181.184 152.104 184.906C152.104 188.628 149.087 191.645 145.365 191.645Z" fill="url(#paint6_radial_2873_43311)"/>
<path d="M155.979 184.9C150.12 184.9 145.371 180.151 145.371 174.292C145.371 168.433 150.12 163.684 155.979 163.684C161.838 163.684 166.587 168.433 166.587 174.292C166.587 180.151 161.838 184.9 155.979 184.9Z" fill="url(#paint7_radial_2873_43311)"/>
<path d="M132.714 210.955C115.473 210.955 104.611 208.1 100.415 205.859C99.7856 205.188 99.6874 204.125 99.5566 203.356C95.1318 176.153 85.3662 130.155 65.8185 91.0761C67.8796 87.6001 72.0591 82.5946 81.1377 77.2128C85.9469 74.3584 90.7561 72.0601 95.4998 70.1953C110.066 98.9197 129.426 147.314 134.333 208.632C134.399 209.401 134.26 210.317 135.699 210.922C135.11 210.922 133.319 210.946 132.714 210.946V210.955Z" fill="#837C77" fill-opacity="0.64"/>
<path d="M179.825 195.242L181.211 195.596C181.211 195.597 181.21 195.599 181.21 195.6C181.209 195.603 181.209 195.606 181.208 195.609C181.206 195.615 181.204 195.623 181.202 195.631C181.197 195.648 181.191 195.669 181.184 195.694C181.169 195.743 181.15 195.807 181.123 195.884C181.07 196.039 180.99 196.247 180.876 196.502C180.647 197.013 180.277 197.708 179.697 198.524C178.536 200.159 176.548 202.252 173.198 204.312C166.51 208.424 154.441 212.375 132.715 212.375C113.012 212.375 102.611 209.115 97.0898 205.665C94.3149 203.93 92.7722 202.147 91.9219 200.718C91.4987 200.007 91.2544 199.394 91.1133 198.936C91.0429 198.707 90.9984 198.518 90.9707 198.375C90.9569 198.303 90.9472 198.243 90.9404 198.195C90.9371 198.171 90.9337 198.15 90.9316 198.132V198.131C82.3965 136.145 67.7967 109.452 63.3789 99.3013C62.4538 97.1754 62.4393 94.7506 63.4033 92.6138L63.4053 92.6099L63.7432 91.8989C65.5807 88.1962 69.7314 82.3062 80.4092 75.981C116.723 54.4688 152.906 63.0511 162.559 66.9624L162.998 67.145C164.949 67.9732 166.432 69.6235 167.071 71.6333L167.072 71.6353C176.598 101.712 180.138 132.639 181.302 156.022C181.884 167.719 181.873 177.541 181.715 184.443C181.636 187.894 181.521 190.616 181.425 192.477C181.377 193.408 181.334 194.124 181.303 194.608C181.287 194.85 181.274 195.034 181.266 195.159C181.261 195.221 181.257 195.268 181.255 195.3C181.254 195.316 181.254 195.329 181.253 195.337C181.253 195.341 181.252 195.345 181.252 195.347V195.349L179.825 195.242ZM179.825 195.242L181.252 195.351L181.242 195.473L181.212 195.592L179.825 195.242Z" stroke="#514440" stroke-width="2.86076" stroke-miterlimit="10"/>
<path d="M59.672 99.7618C58.58 97.3834 58.5972 94.6864 59.6978 92.3571C62.6126 86.2437 68.7517 80.5145 77.9433 75.3328C94.6239 65.9339 112.99 61.1772 132.516 61.1772C148.363 61.1772 160.77 64.4955 165.603 66.457C167.898 67.3887 169.652 69.2276 170.409 71.4915C171.372 74.3766 172.404 77.7111 173.246 80.6125C173.625 81.9039 171.578 83.6529 171.467 83.2034C169.085 73.1424 151.166 71.8021 137.572 71.8021C116.326 71.8021 97.6763 77.278 79.534 87.772C71.6322 92.3407 66.8859 98.1353 64.2377 103.742C64.1259 103.987 66.1293 106.006 63.0855 105.409C62.2257 105.246 61.5722 103.775 61.426 103.472C60.7296 102.042 60.1363 100.816 59.6548 99.7618H59.672Z" fill="url(#paint8_linear_2873_43311)"/>
<path d="M171.907 79.2073C171.907 79.2073 170.459 76.2268 164.736 73.6046C156.349 69.7609 136.732 68.8325 124.794 70.3228C110.279 72.1306 96.4108 77.0493 89.0499 80.5999C81.689 84.1505 68.6825 90.5106 63.3471 102.547" stroke="#A78B75" stroke-width="1.43038" stroke-miterlimit="10" stroke-linecap="round"/>
<path d="M76.4655 75.4755C82.3889 71.8357 88.715 69.5312 94.9867 67.3601C96.2208 70.3443 97.6 73.8103 98.9113 77.2121C99.1523 77.8387 99.5326 78.303 100.081 78.659C92.63 81.2001 84.8175 84.9539 77.5984 89.5151C74.1252 91.7127 71.7147 93.7299 69.3958 96.3946C68.7535 96.6173 68.651 96.0488 68.3319 95.2252C67.226 92.3605 65.1904 88.2857 63.9957 85.4882C67.0826 81.9969 71.4879 78.5337 76.4655 75.4755Z" fill="#837C77" fill-opacity="0.64"/>
<path d="M132.518 59.7466C112.751 59.7466 94.1426 64.5641 77.2432 74.0864H77.2422C68.2187 79.1735 61.9078 84.8826 58.709 91.1343L58.4092 91.7417L58.4062 91.7456C57.1559 94.392 57.1094 97.4434 58.2832 100.153C58.3028 100.222 58.3253 100.29 58.3555 100.356C58.845 101.428 59.4469 102.667 60.1416 104.094L60.1406 104.095C60.1978 104.214 60.4462 104.765 60.8066 105.296C60.9886 105.564 61.2295 105.874 61.5303 106.144C61.8245 106.408 62.2569 106.708 62.8203 106.815L62.8213 106.814C63.2509 106.898 63.6443 106.948 63.998 106.95C64.3399 106.952 64.7417 106.911 65.124 106.739C65.5531 106.545 65.9286 106.193 66.1084 105.687C66.2679 105.238 66.2161 104.825 66.1572 104.57C66.0855 104.259 65.946 103.963 65.8301 103.745C68.3234 98.7564 72.6022 93.6115 79.5439 89.4282L80.252 89.0103C98.1945 78.6315 116.599 73.2329 137.573 73.2329C144.351 73.2329 152.084 73.5696 158.383 75.1187C164.797 76.696 169.087 79.3635 170.074 83.5327C170.075 83.5379 170.077 83.5432 170.078 83.5483C170.167 83.905 170.4 84.2853 170.82 84.5161C171.192 84.7202 171.549 84.7181 171.749 84.6958C172.126 84.6538 172.429 84.4872 172.581 84.396C172.942 84.1795 173.306 83.8544 173.613 83.5063C173.925 83.1522 174.249 82.6949 174.465 82.1733C174.678 81.6603 174.838 80.957 174.619 80.2104C173.772 77.294 172.735 73.9426 171.766 71.0386L171.584 70.5425C170.61 68.0974 168.641 66.146 166.141 65.1313L165.648 64.937C160.337 62.8903 148.036 59.7466 132.518 59.7466Z" stroke="#514440" stroke-width="2.86076" stroke-miterlimit="10" stroke-linejoin="round"/>
</g>
<path d="M62.917 146.165C65.0109 146.165 67.1425 146.517 68.9365 147.243C70.7189 147.964 72.2656 149.097 73.0146 150.72C73.496 151.763 74.4279 154.597 75.625 158.493C76.8317 162.42 78.3286 167.498 79.9453 173.089C83.1291 184.098 86.779 197.107 89.5938 207.254C93.5207 208.198 96.7843 209.357 99.1104 210.687C101.469 212.035 103.145 213.725 103.146 215.77C103.146 216.055 103.11 216.333 103.047 216.604C103.11 216.876 103.146 217.154 103.146 217.439C103.146 219.337 101.698 220.926 99.6357 222.21C97.5283 223.521 94.5338 224.672 90.9082 225.626C83.6449 227.537 73.6567 228.71 62.6562 228.71C51.6556 228.71 41.6668 227.537 34.4033 225.626C30.7778 224.672 27.7832 223.521 25.6758 222.21C23.6131 220.927 22.166 219.337 22.166 217.439C22.166 217.155 22.202 216.877 22.2656 216.604C22.202 216.332 22.166 216.054 22.166 215.77C22.1662 213.714 23.8614 212.015 26.2432 210.662C28.5951 209.326 31.8951 208.163 35.8652 207.218C41.9518 186.797 51.5999 154.698 53.1104 150.771C53.7457 149.119 55.231 147.972 56.9668 147.247C58.7142 146.517 60.8239 146.165 62.917 146.165Z" stroke="#514440" stroke-width="1.66968"/>
<ellipse cx="62.6558" cy="217.439" rx="39.6548" ry="10.4355" fill="#C39078"/>
<ellipse cx="62.6558" cy="215.77" rx="39.6548" ry="10.4355" fill="#DCB395"/>
<path d="M53.8907 151.07C52.2211 155.411 40.3942 194.899 34.6895 214.1C58.3989 222.115 81.8578 217.44 90.6236 214.1C85.3363 194.899 74.2608 155.411 72.2572 151.07C69.7527 145.643 55.9778 145.643 53.8907 151.07Z" fill="#C39078"/>
<path d="M73.4424 154.353C74.6922 158.159 76.6139 164.591 78.7803 172.06C68.5472 176.39 54.7136 180.113 44.6621 180.793C46.6383 174.246 48.5366 167.994 50.1064 162.901C57.3141 160.926 65.7982 158.075 73.4424 154.353Z" fill="#655656"/>
<path d="M82.3711 184.586C84.1788 190.952 85.9982 197.437 87.625 203.278C75.4896 209.221 52.7929 215.11 38.7275 215.343C37.385 214.967 36.0383 214.555 34.6914 214.1C35.9455 209.879 37.496 204.678 39.1689 199.084C50.7283 196.817 69.1033 191.971 82.3711 184.586Z" fill="#655656"/>
<path d="M217.725 128.278C219.534 128.278 221.376 128.584 222.926 129.211C224.466 129.834 225.802 130.812 226.449 132.214C226.865 133.115 227.671 135.564 228.705 138.93C229.748 142.323 231.041 146.711 232.438 151.541C235.188 161.053 238.343 172.292 240.774 181.059C244.167 181.874 246.986 182.876 248.995 184.024C251.033 185.189 252.482 186.65 252.482 188.416C252.482 188.662 252.451 188.903 252.396 189.138C252.451 189.372 252.482 189.612 252.482 189.858C252.482 191.498 251.232 192.872 249.449 193.98C247.628 195.113 245.042 196.107 241.909 196.932C235.634 198.583 227.004 199.597 217.5 199.597C207.996 199.597 199.365 198.583 193.09 196.932C189.957 196.107 187.371 195.113 185.55 193.98C183.767 192.872 182.517 191.498 182.517 189.858C182.517 189.613 182.548 189.373 182.603 189.138C182.548 188.902 182.517 188.662 182.517 188.416C182.517 186.64 183.981 185.173 186.039 184.004C188.071 182.849 190.923 181.844 194.354 181.027C199.612 163.384 207.948 135.651 209.253 132.258C209.802 130.831 211.084 129.84 212.584 129.214C214.094 128.583 215.916 128.278 217.725 128.278Z" stroke="#514440" stroke-width="1.44258"/>
<ellipse cx="217.5" cy="189.859" rx="34.2613" ry="9.01613" fill="#C39078"/>
<ellipse cx="217.5" cy="188.417" rx="34.2613" ry="9.01613" fill="#DCB395"/>
<path d="M209.927 132.516C208.484 136.267 198.266 170.384 193.337 186.974C213.822 193.898 234.09 189.859 241.663 186.974C237.095 170.384 227.526 136.267 225.795 132.516C223.631 127.828 211.73 127.828 209.927 132.516Z" fill="#C39078"/>
<path d="M226.817 135.351C227.897 138.639 229.557 144.198 231.43 150.653C222.589 154.394 210.637 157.609 201.953 158.197C203.661 152.54 205.301 147.138 206.657 142.738C212.884 141.032 220.213 138.567 226.817 135.351Z" fill="#655656"/>
<path d="M234.533 161.474C236.095 166.974 237.666 172.577 239.071 177.624C228.586 182.758 208.976 187.847 196.824 188.048C195.664 187.724 194.501 187.367 193.338 186.974C194.422 183.327 195.762 178.832 197.207 174C207.194 172.04 223.07 167.855 234.533 161.474Z" fill="#655656"/>
<path d="M169.78 164.104C172.03 164.104 174.32 164.482 176.247 165.262C178.162 166.037 179.822 167.253 180.627 168.996C181.144 170.116 182.146 173.161 183.432 177.346C184.728 181.564 186.336 187.019 188.072 193.024C191.492 204.85 195.413 218.824 198.437 229.724C202.655 230.738 206.161 231.983 208.659 233.411C211.193 234.859 212.993 236.676 212.993 238.872C212.993 239.178 212.955 239.477 212.887 239.769C212.955 240.06 212.993 240.359 212.993 240.665C212.993 242.703 211.439 244.411 209.224 245.79C206.96 247.198 203.743 248.434 199.849 249.459C192.046 251.512 181.317 252.771 169.5 252.771C157.683 252.771 146.954 251.512 139.151 249.459C135.257 248.434 132.041 247.198 129.777 245.79C127.561 244.411 126.007 242.703 126.007 240.665C126.007 240.36 126.044 240.061 126.112 239.769C126.044 239.476 126.007 239.177 126.007 238.872C126.007 236.664 127.827 234.839 130.386 233.386C132.912 231.951 136.457 230.701 140.722 229.686C147.26 207.749 157.625 173.267 159.247 169.05C159.93 167.275 161.524 166.044 163.389 165.266C165.266 164.482 167.532 164.104 169.78 164.104Z" stroke="#514440" stroke-width="1.79355"/>
<ellipse cx="169.5" cy="240.665" rx="42.5968" ry="11.2097" fill="#C39078"/>
<ellipse cx="169.5" cy="238.872" rx="42.5968" ry="11.2097" fill="#DCB395"/>
<path d="M160.084 169.372C158.29 174.035 145.586 216.452 139.458 237.078C164.926 245.687 190.126 240.665 199.542 237.078C193.862 216.452 181.965 174.035 179.813 169.372C177.123 163.543 162.326 163.543 160.084 169.372Z" fill="#C39078"/>
<path d="M181.084 172.898C182.427 176.987 184.49 183.896 186.817 191.92C175.826 196.571 160.967 200.569 150.17 201.3C152.293 194.268 154.33 187.552 156.017 182.081C163.759 179.96 172.873 176.897 181.084 172.898Z" fill="#655656"/>
<path d="M190.677 205.375C192.619 212.213 194.572 219.179 196.319 225.453C183.284 231.836 158.906 238.163 143.797 238.414C142.354 238.01 140.906 237.567 139.459 237.078C140.806 232.544 142.472 226.956 144.269 220.948C156.686 218.512 176.424 213.308 190.677 205.375Z" fill="#655656"/>
<path d="M172.636 34.3629C173.612 24.9897 171.132 14.1178 166.974 8.26782C166.012 6.91337 165.906 4.9808 167.253 4.00749C170.506 1.65669 174.509 0.583492 177.443 0.189643C178.993 -0.0184359 180.437 0.905075 180.976 2.37335C184.91 13.0929 183.536 25.8931 180.723 33.6799C180.318 34.8009 179.23 35.5 178.039 35.5H173.645C173.039 35.5 172.574 34.9657 172.636 34.3629Z" fill="#B25E5E"/>
<path d="M180.499 47.4998C179.889 51.8759 176.282 54.4571 173 54C169.718 53.5429 169.889 51.3758 170.498 46.9998C171.108 42.6237 172.366 38.8705 175.648 39.3277C178.93 39.7848 181.108 43.1238 180.499 47.4998Z" fill="#B25E5E"/>
<path d="M192.859 47.1525C196.311 38.3836 196.835 27.2447 194.397 20.4945C193.833 18.9316 194.249 17.0414 195.807 16.4646C199.571 15.0715 203.716 15.1104 206.648 15.5173C208.197 15.7322 209.341 17.009 209.467 18.568C210.384 29.9497 205.63 41.9134 200.833 48.6616C200.142 49.633 198.907 50.0151 197.759 49.6957L193.526 48.5182C192.942 48.3558 192.637 47.7164 192.859 47.1525Z" fill="#B25E5E"/>
<path d="M196.914 61.9157C195.154 65.9683 190.987 67.4884 187.947 66.1685C184.908 64.8485 185.653 62.8065 187.413 58.7538C189.173 54.7012 191.391 51.4225 194.43 52.7425C197.47 54.0625 198.673 57.863 196.914 61.9157Z" fill="#B25E5E"/>
<defs>
<linearGradient id="paint0_linear_2873_43311" x1="122.245" y1="63.3677" x2="34.2507" y2="86.281" gradientUnits="userSpaceOnUse">
<stop stop-color="#C5B4A8"/>
<stop offset="1" stop-color="#8E7A6C"/>
</linearGradient>
<linearGradient id="paint1_linear_2873_43311" x1="129.417" y1="92.9585" x2="129.417" y2="206.307" gradientUnits="userSpaceOnUse">
<stop stop-color="#E6D7C4"/>
<stop offset="0.455516" stop-color="#C7A97E"/>
<stop offset="1" stop-color="#624333"/>
</linearGradient>
<radialGradient id="paint2_radial_2873_43311" cx="0" cy="0" r="1" gradientUnits="userSpaceOnUse" gradientTransform="translate(115.83 186.716) rotate(101.324) scale(13.1179 13.1179)">
<stop offset="0.333565" stop-color="#2A1D0E"/>
<stop offset="1" stop-color="#5F5947"/>
</radialGradient>
<radialGradient id="paint3_radial_2873_43311" cx="0" cy="0" r="1" gradientUnits="userSpaceOnUse" gradientTransform="translate(124.211 138.358) rotate(101.324) scale(18.3534 18.3534)">
<stop offset="0.333565" stop-color="#2A1D0E"/>
<stop offset="1" stop-color="#5F5947"/>
</radialGradient>
<radialGradient id="paint4_radial_2873_43311" cx="0" cy="0" r="1" gradientUnits="userSpaceOnUse" gradientTransform="translate(158.682 122.305) rotate(101.324) scale(13.776 13.776)">
<stop offset="0.333565" stop-color="#2A1D0E"/>
<stop offset="1" stop-color="#5F5947"/>
</radialGradient>
<radialGradient id="paint5_radial_2873_43311" cx="0" cy="0" r="1" gradientUnits="userSpaceOnUse" gradientTransform="translate(115.902 154.265) rotate(101.324) scale(17.4175 17.4175)">
<stop offset="0.333565" stop-color="#2A1D0E"/>
<stop offset="1" stop-color="#5F5947"/>
</radialGradient>
<radialGradient id="paint6_radial_2873_43311" cx="0" cy="0" r="1" gradientUnits="userSpaceOnUse" gradientTransform="translate(147.731 179.83) rotate(101.324) scale(12.0504 12.0504)">
<stop offset="0.333565" stop-color="#2A1D0E"/>
<stop offset="1" stop-color="#5F5947"/>
</radialGradient>
<radialGradient id="paint7_radial_2873_43311" cx="0" cy="0" r="1" gradientUnits="userSpaceOnUse" gradientTransform="translate(159.703 166.302) rotate(101.324) scale(18.9676 18.9676)">
<stop offset="0.333565" stop-color="#2A1D0E"/>
<stop offset="1" stop-color="#5F5947"/>
</radialGradient>
<linearGradient id="paint8_linear_2873_43311" x1="116.078" y1="61.1772" x2="62.5466" y2="106.838" gradientUnits="userSpaceOnUse">
<stop stop-color="#C5B4A8"/>
<stop offset="1" stop-color="#8E7A6C"/>
</linearGradient>
<clipPath id="clip0_2873_43311">
<rect width="127.304" height="181.658" fill="white" transform="matrix(-1 0 0 1 183.305 34)"/>
</clipPath>
</defs>
</svg>
