<svg width="164" height="146" viewBox="0 0 164 146" fill="none" xmlns="http://www.w3.org/2000/svg">
<g filter="url(#filter0_d_2873_43037)">
<path d="M81.5 0C95.6292 0 108.254 3.11404 116.6 8H156C160.418 8 164 11.5817 164 16V134C164 138.418 160.418 142 156 142H8C3.58172 142 1.69123e-07 138.418 0 134V16C7.08705e-07 11.5817 3.58172 8 8 8H46.4004C54.7459 3.11404 67.3708 0 81.5 0Z" fill="#AF3737"/>
</g>
<path d="M164 134C164 135.892 163.342 137.63 162.243 139H1.75684C0.658406 137.63 7.24369e-08 135.892 0 134V86H164V134Z" fill="url(#paint0_linear_2873_43037)"/>
<path d="M88.4512 18.251C87.1287 15.9557 86.0256 13.5805 84.9707 11.1846C84.1932 9.47689 82.6761 6.09916 81.8555 4.25C82.1784 5.46442 82.7251 7.57299 82.9971 8.65918C83.4195 10.2065 83.7874 11.7605 83.9219 13.3525L83.8818 13.3594C83.3083 11.8433 82.9658 10.2847 82.6777 8.71386C82.4538 7.62217 82.0335 5.49072 81.7998 4.26172C81.8448 6.04119 81.9109 9.25113 81.9365 10.8857C82.0044 13.1777 82.018 15.4663 81.7939 17.7549L81.7529 17.7549C81.5302 15.4663 81.5415 13.1777 81.6094 10.8857C81.634 9.24407 81.7019 6.00209 81.748 4.23144C81.476 5.62541 80.9761 8.11437 80.7109 9.38379C80.3717 11.1771 79.9779 12.9597 79.3545 14.6982L79.3145 14.6914C79.5014 12.8757 79.9189 11.0991 80.3926 9.32812C80.7024 8.08039 81.3253 5.64233 81.6865 4.25781C80.8928 6.04904 79.4372 9.29399 78.6875 10.9404C77.6723 13.2548 76.6054 15.5479 75.3213 17.7627L75.2842 17.749C76.1547 15.3867 77.2438 13.1014 78.3857 10.833C79.1804 9.20297 80.7648 5.99258 81.6416 4.23437C80.5856 5.72134 78.6696 8.39284 77.6855 9.74902C76.3337 11.6686 74.9375 13.5595 73.3438 15.3359L73.3086 15.3174C74.5287 13.3273 75.9462 11.4475 77.4121 9.59375C78.4318 8.26644 80.4529 5.6682 81.5859 4.22363C80.0604 5.68725 77.2875 8.327 75.8691 9.66504C73.9092 11.5578 71.9108 13.4149 69.7422 15.1299L69.7129 15.1055C71.5577 13.1221 73.5742 11.2788 75.6328 9.46875C77.088 8.15937 79.9739 5.58644 81.5605 4.18164C79.5923 5.50848 75.9709 7.93119 74.127 9.15429C71.5933 10.8761 69.0017 12.5621 66.2979 14.0781L66.2734 14.0488C66.7932 13.6542 67.5913 13.0916 68.1367 12.707C70.0108 11.3801 71.9679 10.1478 73.9316 8.9248C75.7925 7.74505 79.4762 5.42869 81.502 4.16406C79.4263 5.135 75.664 6.87959 73.7461 7.75976C71.0756 9.01862 68.3821 10.2339 65.5811 11.2646L65.5615 11.2334C68.1579 9.85485 70.8646 8.65953 73.5967 7.50683C75.5418 6.66337 79.3885 5.01286 81.499 4.11523C74.9295 6.01451 67.7391 8.28713 61.123 9.9121C60.6559 10.0205 60.1911 10.1353 59.7227 10.2393L59.71 10.206C60.1592 10.0507 60.6136 9.90759 61.0654 9.75781C64.2315 8.73592 67.4646 7.83423 70.6934 6.98339C73.446 6.23203 79.0059 4.73354 81.7647 3.99902L81.7705 4.01269L81.7744 4.00097C81.7758 4.00134 81.7769 4.00256 81.7783 4.00293L81.7793 4C81.7842 4.00204 81.789 4.00478 81.7939 4.00683C84.1818 4.63703 88.9365 5.90858 91.3047 6.55078C94.4822 7.38034 97.6608 8.26991 100.746 9.33984L100.733 9.37305C100.329 9.28807 99.9277 9.19115 99.5244 9.10058L98.3242 8.80762C95.9225 8.22512 93.56 7.52983 91.2031 6.82324C88.9563 6.16776 84.5317 4.86065 82.0938 4.13281C83.7477 4.82714 86.6195 6.0447 88.0908 6.67773C90.2058 7.5554 92.2942 8.47573 94.2734 9.57812L94.2539 9.60937C92.0725 8.85471 89.9958 7.91547 87.9424 6.93164C86.4888 6.25901 83.6538 4.92858 82.0459 4.16601C83.5563 5.09683 86.2054 6.74251 87.5566 7.59277C89.4949 8.77675 91.3986 9.9976 93.1602 11.3828L93.1357 11.4121C91.108 10.34 89.2198 9.1012 87.3623 7.82226C86.0414 6.93865 83.464 5.19576 82.0088 4.20312C83.5944 5.60625 86.4376 8.14047 87.8789 9.4375C89.926 11.2375 91.9323 13.0706 93.7656 15.0439L93.7363 15.0684C91.5792 13.3634 89.591 11.5164 87.6426 9.63476C86.2296 8.30215 83.4548 5.65911 81.9434 4.208C82.9868 5.53255 84.8388 7.90709 85.7764 9.12304C87.1257 10.8202 88.4251 12.5424 89.5273 14.376L89.4932 14.3945C88.017 12.7745 86.7361 11.0404 85.502 9.27832C84.6107 8.04524 82.8785 5.61969 81.9102 4.25C82.818 6.07488 84.4507 9.38743 85.2725 11.0762C86.4528 13.4262 87.5793 15.7934 88.4883 18.2373L88.4512 18.251ZM109.538 11.8496C108.158 11.6662 106.848 11.2856 105.55 10.8574C104.4 10.5019 102.776 9.99782 101.649 9.6289L101.662 9.5957C102.817 9.86846 104.483 10.2907 105.649 10.5869C106.99 10.9011 108.308 11.2619 109.551 11.8164L109.538 11.8496ZM99.7578 12.0664C98.9437 11.921 98.2329 11.5935 97.5391 11.2168C96.8363 10.8702 96.1411 10.5112 95.4512 10.1445L95.4707 10.1133C96.2158 10.3861 96.9559 10.6689 97.6895 10.9629C98.4447 11.2323 99.1667 11.5444 99.7773 12.0352L99.7578 12.0664ZM50.6836 12.748C51.7756 12.236 52.9432 11.9183 54.1338 11.6455C55.1721 11.385 56.6404 11.0194 57.6709 10.7812L57.6836 10.8144C56.694 11.1454 55.2461 11.5995 54.2334 11.917C53.0851 12.3027 51.9252 12.6404 50.6963 12.7812L50.6836 12.748ZM59.5576 13.9141C60.2541 13.3852 61.0596 13.036 61.8994 12.7285C62.7174 12.3965 63.5416 12.0765 64.3711 11.7646L64.3906 11.7969C63.6161 12.2016 62.8361 12.5969 62.0488 12.9814C61.2718 13.3951 60.4757 13.7619 59.5772 13.9453L59.5576 13.9141ZM116.987 13.9453C115.867 13.8346 114.815 13.5283 113.775 13.1729C112.854 12.8811 111.552 12.4684 110.65 12.1621L110.663 12.1279C111.594 12.3381 112.937 12.6679 113.875 12.9004C114.958 13.143 116.017 13.4304 117 13.9111L116.987 13.9453ZM108.527 15.9805C107.072 15.55 105.722 14.935 104.394 14.2754C103.213 13.7141 101.544 12.9189 100.391 12.3477L100.409 12.3164C101.607 12.796 103.337 13.5161 104.544 14.0215C105.934 14.576 107.296 15.1711 108.547 15.9492L108.527 15.9805ZM97.9219 14.3994C97.3203 14.2674 96.8441 13.9687 96.3936 13.6211C95.9303 13.3026 95.476 12.9751 95.0293 12.6387L95.0518 12.6094C95.5677 12.8598 96.0779 13.1182 96.5811 13.3877C97.1109 13.6369 97.5959 13.9231 97.9453 14.3701L97.9219 14.3994ZM46.5537 13.9453L46.54 13.9121C46.96 13.5935 47.4844 13.4513 48.0195 13.3652C48.5379 13.2501 49.0602 13.1484 49.585 13.0557L49.5977 13.0889C49.1099 13.2812 48.6171 13.4647 48.1191 13.6357C47.6264 13.8392 47.1079 13.9899 46.5537 13.9453ZM55.4355 15.7529C55.8452 15.3538 56.3628 15.1313 56.9209 14.9502C57.4534 14.7456 57.9925 14.5534 58.5352 14.3701L58.5547 14.4014C58.0669 14.6786 57.5712 14.947 57.0693 15.2041C56.5752 15.4925 56.0644 15.7294 55.4551 15.7842L55.4355 15.7529ZM92.376 18.252C91.7129 17.7187 91.2427 17.0724 90.8164 16.3916C90.3645 15.732 89.9253 15.0654 89.4951 14.3945L89.5293 14.376C90.0593 14.9898 90.5806 15.6091 91.0889 16.2363C91.6304 16.8512 92.1183 17.4888 92.4102 18.2334L92.376 18.252ZM57.6631 19.6338C58.7602 18.679 59.9997 17.8884 61.2773 17.1338C62.386 16.4529 63.9555 15.4902 65.0615 14.834L65.0859 14.8633C64.0528 15.5945 62.5343 16.6365 61.4717 17.3633C60.276 18.2129 59.0509 19.0213 57.6875 19.6631L57.6631 19.6338ZM85.5459 20.6631C85.1069 19.7364 84.8981 18.766 84.7432 17.7822C84.5819 16.9214 84.3574 15.7035 84.2217 14.8516L84.2607 14.8447C84.5078 15.6731 84.8356 16.8804 85.0635 17.7256C85.3528 18.6871 85.5846 19.6534 85.5859 20.6562L85.5459 20.6631ZM103.327 18.0244C102.51 17.736 101.828 17.2818 101.174 16.7832C100.504 16.3114 99.8433 15.8304 99.1904 15.3418L99.2148 15.3135L99.2168 15.3135C99.9413 15.7181 100.66 16.1301 101.37 16.5537C102.106 16.9562 102.8 17.3959 103.352 17.9951L103.327 18.0244ZM66.2666 18.2764C66.5802 17.7062 67.0655 17.2709 67.6006 16.8662C68.105 16.4447 68.6203 16.0326 69.1426 15.6279L69.1719 15.6523C68.7367 16.1296 68.2935 16.5999 67.8379 17.0615C67.4027 17.55 66.933 17.9967 66.2969 18.3008L66.2666 18.2764ZM99.3652 20.2568C98.4819 19.7258 97.7673 19.0529 97.0889 18.3408C96.4744 17.7304 95.6084 16.8667 95.0195 16.2529L95.0498 16.2285C95.7167 16.7718 96.6634 17.5789 97.3252 18.1445C98.1036 18.774 98.8351 19.4341 99.3945 20.2324L99.3652 20.2568ZM78.0479 20.2402C77.9813 19.5405 78.1419 18.8765 78.3633 18.2148C78.5489 17.553 78.7487 16.8926 78.96 16.2363L79 16.2432C78.9065 16.9207 78.8027 17.5965 78.6836 18.2695C78.5978 18.9548 78.4556 19.6222 78.0869 20.2471L78.0479 20.2402ZM69.4297 20.5107C69.7152 19.7728 70.1992 19.1425 70.7344 18.5332C71.2374 17.9128 71.7535 17.3003 72.2783 16.6934L72.3125 16.7119C71.8887 17.376 71.4533 18.0365 71.0078 18.6894C70.5867 19.3635 70.1218 20.0028 69.4639 20.5293L69.4297 20.5107ZM110.472 22.6602C109.279 22.1291 108.224 21.4315 107.197 20.6914C106.281 20.0587 104.984 19.162 104.093 18.5225L104.116 18.4932C105.07 19.0499 106.437 19.8805 107.392 20.4619C108.499 21.1059 109.568 21.7868 110.496 22.6309L110.472 22.6602ZM63.2295 21.0762C63.4522 20.591 63.8436 20.2399 64.2891 19.918C64.7026 19.5803 65.1252 19.2515 65.5566 18.9307L65.5859 18.9551L65.5859 18.9561C65.2429 19.3495 64.8898 19.7353 64.5264 20.1143C64.182 20.52 63.8015 20.8814 63.2588 21.1006L63.2295 21.0762ZM81.7529 26.2187C81.5302 25.0091 81.5415 23.7984 81.6094 22.582C81.6439 21.5121 81.6953 19.9986 81.7529 18.9443L81.7939 18.9443C81.8503 19.9931 81.902 21.5165 81.9365 22.582C82.0044 23.7984 82.018 25.0091 81.7939 26.2187L81.7529 26.2187ZM73.0557 22.4834C73.121 21.8361 73.402 21.2625 73.7412 20.7002C74.0459 20.1323 74.3618 19.5695 74.6895 19.0117L74.7266 19.0254C74.5102 19.6234 74.2826 20.2184 74.042 20.8086C73.8295 21.4168 73.5677 21.9973 73.0928 22.4971L73.0557 22.4834ZM95.7979 22.834C95.2013 22.3901 94.7963 21.8318 94.4365 21.2393C94.0513 20.6681 93.6777 20.0912 93.3154 19.5088L93.3496 19.4902C93.813 20.0157 94.268 20.5463 94.7109 21.084C95.1872 21.6117 95.608 22.1603 95.832 22.8154L95.7979 22.834ZM91.5293 24.792C90.9225 24.0138 90.5306 23.1538 90.1875 22.2705C89.8636 21.5035 89.4096 20.4178 89.1113 19.6543L89.1484 19.6416C89.5491 20.3626 90.1027 21.421 90.4893 22.1621C90.9578 23.0006 91.3718 23.8516 91.5664 24.7783L91.5293 24.792ZM53.043 22.6309C53.4744 22.1088 54.0499 21.7482 54.667 21.4228C55.2571 21.0774 55.8558 20.7405 56.46 20.4141L56.4844 20.4434C55.9519 20.8547 55.4104 21.2579 54.8613 21.6514C54.3262 22.074 53.7638 22.45 53.0674 22.6602L53.043 22.6309ZM77.0146 24.7822C76.9353 24.1395 77.0844 23.5326 77.293 22.9268C77.4658 22.3208 77.6521 21.7185 77.8506 21.1182L77.8906 21.125C77.8113 21.7455 77.7195 22.3654 77.6133 22.9814C77.5403 23.6108 77.4105 24.2212 77.0547 24.7891L77.0146 24.7822ZM65.0586 26.3672C65.5156 25.399 66.1715 24.5394 66.877 23.7031C67.4761 22.9563 68.3253 21.9011 68.9346 21.1768L68.9688 21.1953C68.4579 21.9701 67.6894 23.0823 67.1504 23.8594C66.559 24.7603 65.9231 25.6301 65.0938 26.3857L65.0586 26.3672ZM86.6309 25.4111C86.2942 24.9237 86.1823 24.391 86.126 23.8398C86.0377 23.3024 85.965 22.7615 85.9023 22.2207L85.9414 22.2139C86.1219 22.7348 86.2914 23.2577 86.4463 23.7842C86.637 24.313 86.7672 24.8408 86.6699 25.4043L86.6309 25.4111ZM71.3037 26.2109C71.3332 25.642 71.5765 25.1445 71.8799 24.6582C72.1474 24.1674 72.4288 23.6809 72.7207 23.2002L72.7578 23.2139C72.5773 23.7348 72.3865 24.2535 72.1816 24.7666C72.0063 25.2988 71.7786 25.802 71.3408 26.2246L71.3037 26.2109ZM100.497 29.127C99.7034 28.4205 99.1054 27.601 98.5498 26.748C98.0416 26.0113 97.3244 24.9692 96.8418 24.2324L96.876 24.2129C97.4495 24.8915 98.2587 25.8918 98.8232 26.5928C99.4928 27.3798 100.111 28.1894 100.531 29.1084L100.497 29.127ZM68.9336 31.2461C69.0296 30.534 69.341 29.8947 69.7109 29.2676C70.045 28.6348 70.3935 28.0076 70.752 27.3838L70.7891 27.3965C70.542 28.0595 70.2831 28.7197 70.0117 29.376C69.7698 30.049 69.4764 30.6941 68.9707 31.2598L68.9336 31.2461ZM81.752 33C81.5292 32.195 81.5415 31.3873 81.6094 30.5723C81.6439 29.763 81.6905 28.9537 81.752 28.1455L81.793 28.1455C81.8531 28.9537 81.902 29.763 81.9365 30.5723C82.0057 31.3873 82.0157 32.195 81.793 33L81.752 33Z" fill="#FFF5E6"/>
<mask id="path-4-inside-1_2873_43037" fill="white">
<path d="M81.5 0C95.6292 0 108.254 3.11404 116.6 8H156C160.418 8 164 11.5817 164 16V134C164 138.418 160.418 142 156 142H8C3.58172 142 1.69123e-07 138.418 0 134V16C7.08705e-07 11.5817 3.58172 8 8 8H46.4004C54.7459 3.11404 67.3708 0 81.5 0Z"/>
</mask>
<path d="M116.6 8L114.579 11.4519L115.515 12H116.6V8ZM156 8L156 4H156V8ZM164 16L168 16V16L164 16ZM164 134L168 134V134H164ZM8 142L8 146H8V142ZM0 134L-4 134L-4 134L0 134ZM0 16L-4 16V16H0ZM46.4004 8V12H47.4852L48.4214 11.4519L46.4004 8ZM81.5 0V4C95.1311 4 107.007 7.01876 114.579 11.4519L116.6 8L118.621 4.54809C109.502 -0.790668 96.1273 -4 81.5 -4V0ZM116.6 8V12H156V8V4H116.6V8ZM156 8L156 12C158.209 12 160 13.7909 160 16L164 16L168 16C168 9.37258 162.627 4 156 4L156 8ZM164 16H160V134H164H168V16H164ZM164 134L160 134C160 136.209 158.209 138 156 138V142V146C162.627 146 168 140.627 168 134L164 134ZM156 142V138H8V142V146H156V142ZM8 142L8 138C5.79086 138 4 136.209 4 134L0 134L-4 134C-4 140.627 1.37258 146 8 146L8 142ZM0 134H4V16H0H-4V134H0ZM0 16L4 16C4 13.7909 5.79086 12 8 12V8V4C1.37258 4 -4 9.37258 -4 16L0 16ZM8 8V12H46.4004V8V4H8V8ZM46.4004 8L48.4214 11.4519C55.9934 7.01876 67.8689 4 81.5 4V0V-4C66.8727 -4 53.4983 -0.790668 44.3794 4.54809L46.4004 8Z" fill="#2C1F1A" mask="url(#path-4-inside-1_2873_43037)"/>
<mask id="path-6-inside-2_2873_43037" fill="white">
<path d="M81.5 0C95.6292 0 108.254 3.11404 116.6 8H156C160.418 8 164 11.5817 164 16V134C164 138.418 160.418 142 156 142H8C3.58172 142 1.69123e-07 138.418 0 134V16C7.08705e-07 11.5817 3.58172 8 8 8H46.4004C54.7459 3.11404 67.3708 0 81.5 0Z"/>
</mask>
<path d="M116.6 8L115.084 10.5889L115.786 11H116.6V8ZM156 8L156 5H156V8ZM164 16L167 16V16L164 16ZM164 134L167 134V134H164ZM8 142L8 145H8V142ZM0 134L-3 134L-3 134L0 134ZM0 16L-3 16V16H0ZM46.4004 8V11H47.214L47.9161 10.5889L46.4004 8ZM81.5 0V3C95.2556 3 107.318 6.04258 115.084 10.5889L116.6 8L118.115 5.41107C109.19 0.18551 96.0028 -3 81.5 -3V0ZM116.6 8V11H156V8V5H116.6V8ZM156 8L156 11C158.761 11 161 13.2386 161 16L164 16L167 16C167 9.92487 162.075 5 156 5L156 8ZM164 16H161V134H164H167V16H164ZM164 134L161 134C161 136.761 158.761 139 156 139V142V145C162.075 145 167 140.075 167 134L164 134ZM156 142V139H8V142V145H156V142ZM8 142L8 139C5.23858 139 3 136.761 3 134L0 134L-3 134C-3 140.075 1.92487 145 8 145L8 142ZM0 134H3V16H0H-3V134H0ZM0 16L3 16C3 13.2386 5.23858 11 8 11V8V5C1.92487 5 -3 9.92487 -3 16L0 16ZM8 8V11H46.4004V8V5H8V8ZM46.4004 8L47.9161 10.5889C55.6815 6.04258 67.7444 3 81.5 3V0V-3C66.9972 -3 53.8102 0.18551 44.8847 5.41107L46.4004 8Z" fill="#EFC569" mask="url(#path-6-inside-2_2873_43037)"/>
<mask id="path-8-inside-3_2873_43037" fill="white">
<path d="M81.5 0C95.6292 0 108.254 3.11404 116.6 8H156C160.418 8 164 11.5817 164 16V134C164 138.418 160.418 142 156 142H8C3.58172 142 1.69123e-07 138.418 0 134V16C7.08705e-07 11.5817 3.58172 8 8 8H46.4004C54.7459 3.11404 67.3708 0 81.5 0Z"/>
</mask>
<path d="M116.6 8L116.094 8.86298L116.328 9H116.6V8ZM156 8L156 7H156V8ZM164 16L165 16V16L164 16ZM164 134L165 134V134H164ZM8 142L8 143H8V142ZM0 134L-1 134L-1 134L0 134ZM0 16L-1 16V16H0ZM46.4004 8V9H46.6716L46.9056 8.86298L46.4004 8ZM81.5 0V1C95.5047 1 107.942 4.09022 116.094 8.86298L116.6 8L117.105 7.13702C108.566 2.13787 95.7537 -1 81.5 -1V0ZM116.6 8V9H156V8V7H116.6V8ZM156 8L156 9C159.866 9 163 12.134 163 16L164 16L165 16C165 11.0294 160.971 7 156 7L156 8ZM164 16H163V134H164H165V16H164ZM164 134L163 134C163 137.866 159.866 141 156 141V142V143C160.971 143 165 138.971 165 134L164 134ZM156 142V141H8V142V143H156V142ZM8 142L8 141C4.13401 141 1 137.866 1 134L0 134L-1 134C-1 138.971 3.02944 143 8 143L8 142ZM0 134H1V16H0H-1V134H0ZM0 16L1 16C1 12.134 4.13401 9 8 9V8V7C3.02944 7 -0.999999 11.0294 -1 16L0 16ZM8 8V9H46.4004V8V7H8V8ZM46.4004 8L46.9056 8.86298C55.0577 4.09022 67.4953 1 81.5 1V0V-1C67.2463 -1 54.434 2.13787 45.8951 7.13702L46.4004 8Z" fill="#2C1F1A" mask="url(#path-8-inside-3_2873_43037)"/>
<path d="M144.406 52C144.494 56.3919 144.606 65.9865 151 67C144.606 67.8108 144.765 77.0439 144.606 81.5748L144.594 82C144.506 77.6081 144.406 68.0135 138 67C144.217 65.7838 144.317 56.3919 144.406 52Z" fill="#E48585"/>
<path d="M18.4058 52C18.4944 56.3919 18.606 65.9865 25 67C18.606 67.8108 18.7649 77.0439 18.606 81.5748L18.5942 82C18.5056 77.6081 18.4058 68.0135 12 67C18.2174 65.7838 18.3171 56.3919 18.4058 52Z" fill="#E48585"/>
<defs>
<filter id="filter0_d_2873_43037" x="0" y="0" width="164" height="146" filterUnits="userSpaceOnUse" color-interpolation-filters="sRGB">
<feFlood flood-opacity="0" result="BackgroundImageFix"/>
<feColorMatrix in="SourceAlpha" type="matrix" values="0 0 0 0 0 0 0 0 0 0 0 0 0 0 0 0 0 0 127 0" result="hardAlpha"/>
<feOffset dy="4"/>
<feComposite in2="hardAlpha" operator="out"/>
<feColorMatrix type="matrix" values="0 0 0 0 0.172549 0 0 0 0 0.121569 0 0 0 0 0.101961 0 0 0 1 0"/>
<feBlend mode="normal" in2="BackgroundImageFix" result="effect1_dropShadow_2873_43037"/>
<feBlend mode="normal" in="SourceGraphic" in2="effect1_dropShadow_2873_43037" result="shape"/>
</filter>
<linearGradient id="paint0_linear_2873_43037" x1="82" y1="84" x2="82" y2="137" gradientUnits="userSpaceOnUse">
<stop stop-color="#AF3737"/>
<stop offset="1" stop-color="#551010"/>
</linearGradient>
</defs>
</svg>
