<svg width="28" height="28" viewBox="0 0 28 28" fill="none" xmlns="http://www.w3.org/2000/svg">
<path d="M13.873 27.2148C21.0602 27.2148 26.8866 21.3884 26.8866 14.2011C26.8866 7.0139 21.0602 1.1875 13.873 1.1875C6.68578 1.1875 0.859375 7.0139 0.859375 14.2011C0.859375 21.3884 6.68578 27.2148 13.873 27.2148Z" fill="#8A8A8A" stroke="#222222" stroke-width="0.614091" stroke-miterlimit="10"/>
<path d="M21.0105 8.42122C21.0105 8.42122 21.6627 11.5489 21.3827 13.1685C21.1027 14.788 21.0645 15.3289 21.0645 15.3289C21.0645 15.3289 21.9809 14.2535 22.4932 14.543C23.0055 14.8326 23.3745 15.4721 23.3109 16.2549C23.2473 17.0376 22.035 19.2012 21.4432 19.5353C21.4432 19.5353 20.5777 24.8012 17.7141 26.4812C15.9673 27.5058 12.7314 27.1526 12.7314 27.1526C12.7314 27.1526 9.11364 26.7453 7.55137 24.7344C5.98909 22.7235 5.52773 20.3785 5.52773 20.3785C5.52773 20.3785 3.78091 19.4589 3.22727 18.4471C2.67364 17.4353 2.33955 15.5962 3.22727 14.8294C4.115 14.0626 6.08137 13.1685 6.08137 13.1685L8.26409 7.56213L13.8705 3.82031L17.0905 4.86395L19.7282 5.99986L21.0136 8.42122H21.0105Z" fill="#D7D7D7"/>
<path d="M7.90594 19.3822C8.9111 19.3822 9.72594 18.5673 9.72594 17.5622C9.72594 16.557 8.9111 15.7422 7.90594 15.7422C6.90078 15.7422 6.08594 16.557 6.08594 17.5622C6.08594 18.5673 6.90078 19.3822 7.90594 19.3822Z" fill="#A2A2A2"/>
<path d="M8.3963 11.2594C8.91494 10.763 10.8558 10.1489 11.664 10.3526C12.4722 10.5562 12.8349 10.9762 12.714 11.2594C12.5931 11.5426 12.2304 11.5617 11.524 11.5426C10.8177 11.5235 9.66903 11.5839 9.28403 11.6635C8.89903 11.743 7.91267 11.7239 8.3963 11.2594Z" fill="#222222"/>
<path d="M17.5916 11.1355C17.8748 10.8523 19.3066 11.0146 19.8093 11.3964C20.3121 11.7782 20.5761 12.2651 20.1116 12.3255C19.6471 12.386 19.243 12.1441 18.6384 12.0646C18.0339 11.9851 17.7698 11.7814 17.5884 11.5396C17.4071 11.2978 17.5884 11.1355 17.5884 11.1355H17.5916Z" fill="#222222"/>
<path d="M12.9536 13.5065C12.8295 13.4206 12.209 13.1883 11.0795 13.1724C9.94996 13.1565 8.53087 13.5097 8.08859 13.8374C7.76087 14.0824 7.94223 14.2001 8.11087 14.2351C8.2795 14.2733 8.7695 14.286 9.23087 14.0951C9.39314 14.0283 9.66041 13.9583 9.97541 13.8915C9.90859 13.9997 9.87041 14.1365 9.87041 14.3083C9.87041 15.021 10.494 15.6001 11.2609 15.6001C12.0277 15.6001 12.6513 15.021 12.6513 14.3083C12.6513 14.111 12.6004 13.9647 12.5177 13.8501C12.6704 13.8915 12.785 13.9265 12.855 13.9265C13.0522 13.9265 13.084 13.8469 13.1031 13.7642C13.1286 13.6624 13.0745 13.586 12.9536 13.5001V13.5065Z" fill="#222222"/>
<path d="M19.9543 13.8622C19.7761 13.7635 19.197 13.5885 18.742 13.4867C18.2902 13.3849 17.7779 13.3054 17.5584 13.6394C17.377 13.7572 17.2656 13.964 17.2656 14.3108C17.2656 15.0235 17.727 15.6026 18.2997 15.6026C18.8724 15.6026 19.3338 15.0235 19.3338 14.3108C19.3338 14.2376 19.3274 14.1708 19.3147 14.1104C19.4388 14.1422 19.5502 14.1676 19.6488 14.1835C20.0338 14.2408 20.1324 13.9608 19.9543 13.8622Z" fill="#222222"/>
<path d="M11.1706 21.2506C11.3583 21.0311 11.7847 21.5338 12.2651 21.5688C12.7456 21.6038 14.171 21.7279 15.3133 21.7279C16.4556 21.7279 17.181 21.5688 17.5629 21.4638C17.9447 21.3588 18.2024 21.4192 18.1292 21.7279C18.056 22.0365 16.2233 22.307 15.2751 22.2688C14.3269 22.2306 12.5197 22.2083 12.0042 22.097C11.4888 21.9856 10.9479 21.5052 11.1674 21.2474L11.1706 21.2506Z" fill="#222222"/>
<path d="M16.0298 14.5523C16.1507 14.0718 16.3989 14.5523 16.3989 15.6977C16.3989 16.6109 16.9716 16.9068 16.698 17.82C16.4244 18.7332 16.0903 18.9145 15.7848 18.8859C15.4794 18.8573 15.4507 16.8495 16.0266 14.5523H16.0298Z" fill="#222222"/>
<path d="M20.8307 9.47518C20.8307 9.47518 21.3939 11.3525 21.0184 12.7365C20.6429 14.1206 20.5475 15.107 20.6907 15.7656C20.8339 16.4243 21.152 18.9825 20.627 21.3752C20.102 23.7679 18.0338 26.1256 16.7166 26.5711C15.3993 27.0165 16.2043 27.4556 17.2607 26.9847C18.317 26.5138 20.7575 24.732 21.4161 21.9606C22.0748 19.1893 21.3939 16.6088 21.4161 15.8102C21.4384 15.0115 21.9093 13.5861 21.9316 12.3388C21.9538 11.0915 21.5784 9.75518 21.3907 9.262C21.2029 8.76882 20.697 8.93746 20.8275 9.472L20.8307 9.47518Z" fill="#222222"/>
<path d="M21.1001 14.7978C21.1287 14.7309 21.3228 14.5241 21.3833 14.4859C21.8001 14.2155 22.6369 13.8337 23.2892 14.9314C23.9924 16.1182 23.4642 17.6964 22.7833 18.5109C22.1024 19.3255 21.6855 19.5418 21.4437 19.5418C21.2019 19.5418 21.0937 19.2141 21.3992 18.8832C21.7046 18.5523 22.4301 18.005 22.7164 17.3909C23.0028 16.7768 23.0887 15.8987 22.8914 15.3705C22.6942 14.8423 22.2551 14.8614 21.6251 15.2241C20.8551 15.6696 20.976 15.0778 21.0969 14.7978H21.1001Z" fill="#222222"/>
<path d="M4.85077 16.7752C5.27395 16.7116 5.41713 18.3788 5.74804 19.6643C6.3494 21.9998 7.12577 23.6002 7.86077 24.4657C8.93622 25.732 10.3171 26.6325 12.4139 26.7025C14.0176 26.7566 14.4917 26.9411 14.6539 27.2688C14.8162 27.5966 13.6135 27.4311 12.9962 27.4375C12.3789 27.4438 9.92895 27.062 8.89486 26.3652C7.86077 25.6684 6.6294 24.1029 6.20304 23.1675C5.77667 22.232 5.30895 21.2679 5.08622 19.9952C4.8094 18.4138 4.44986 16.8388 4.85077 16.7784V16.7752Z" fill="#222222"/>
<path d="M4.96422 14.6966C4.60786 14.4071 4.28013 14.1016 3.51331 14.2639C2.74649 14.4262 1.83013 15.9407 2.05922 16.8698C2.28831 17.7989 3.21422 19.4885 4.43286 20.3985C5.65149 21.3085 6.24967 20.1566 5.73422 19.9785C5.21876 19.8003 4.92922 19.8226 4.20377 18.8871C3.47831 17.9516 2.97877 17.5221 3.01695 16.628C3.05513 15.7339 3.47513 14.9289 4.1274 15.158C4.77968 15.3871 5.28877 14.9607 4.96422 14.6998V14.6966Z" fill="#222222"/>
<path d="M22.4764 6.05737C21.455 3.78555 18.9319 3.846 18.9319 3.846C17.5605 2.05782 13.2969 -1.054 7.21005 1.57737C1.12323 4.20873 0.499594 12.8219 0.992776 14.2569C1.48596 15.6919 1.92505 15.6251 2.73641 15.4278C3.54778 15.2305 3.26778 14.6546 4.74732 14.8933C4.74732 14.8933 5.60959 14.8933 6.18232 14.0055C6.75505 13.1178 7.53459 11.2756 7.90369 9.98373C8.03096 9.5351 8.20277 9.14373 8.37459 8.82237C8.58459 8.76191 8.8105 8.68237 8.97596 8.5901C9.38641 8.35782 10.0578 7.3301 11.5023 6.92282C12.9469 6.51555 15.015 6.48055 15.5687 6.39146C16.1223 6.30237 16.3387 6.07328 16.0269 5.876C15.8646 5.77419 15.206 5.63737 14.315 5.64055C14.8019 5.55782 15.2155 5.53873 15.68 5.55464C16.6919 5.58964 17.2614 6.27055 17.5128 6.00646C17.7769 5.72964 16.9782 5.05828 15.3491 4.90555C14.0828 4.78782 12.9532 5.18237 11.9573 5.64055C11.8078 5.71055 11.6805 5.78055 11.5723 5.84737C11.725 5.69782 12.0114 5.44328 12.4282 5.18555C12.7782 5.11237 13.3382 4.94055 13.9269 4.81646C15.9123 4.39646 17.0005 5.04555 17.4714 5.34782C18.146 5.78055 18.1587 6.3151 18.3146 6.4201C18.3146 6.4201 18.3146 6.4201 18.3146 6.42328C18.3146 6.42328 18.3146 6.42328 18.3178 6.42328C18.3178 6.42328 18.3241 6.42328 18.3273 6.42646C18.4546 6.51237 18.6614 6.27373 18.7378 6.09555C18.7378 6.32146 18.7473 6.51237 18.7791 6.6301C18.9319 7.19646 19.8037 7.451 20.8187 9.19146C21.8337 10.9319 20.8346 14.1869 20.8346 14.1869L22.4955 14.5401C23.5391 12.7487 23.9719 9.38555 22.4764 6.05737Z" fill="#222222"/>
<path d="M20.7813 16.261C19.8904 16.3787 19.2031 17.1392 19.2031 18.0619C19.2031 18.9846 19.9318 19.7928 20.864 19.8724C20.9977 18.3992 20.8895 17.031 20.7845 16.2578L20.7813 16.261Z" fill="#A2A2A2"/>
</svg>
