<svg width="393" height="252" viewBox="0 0 393 252" fill="none" xmlns="http://www.w3.org/2000/svg">
<path d="M147.897 76.0547C150.884 78.8049 153.001 82.1372 154.921 85.6484C156.956 89.0502 158.934 92.4869 160.871 95.9463L160.868 95.9473C167.515 104.301 173.28 113.243 178.838 122.329C182.873 128.722 190.739 141.33 195.086 148.373C191.007 138.985 183.612 121.802 179.897 113.061C174.582 100.941 169.508 88.7355 165.414 76.1318L165.581 76.0625C171.537 87.8995 176.507 100.146 181.258 112.502C184.755 121.298 191.576 138.688 195.274 148.231C193.819 141.963 191.362 131.119 190.14 125.528C188.237 117.549 186.582 109.534 185.977 101.323L186.155 101.289C188.738 109.107 190.284 117.144 191.581 125.245C192.592 130.887 194.49 141.915 195.541 148.246C195.339 139.079 195.039 122.486 194.923 114.042C194.617 102.222 194.559 90.4196 195.568 78.6172H195.753C196.756 90.4196 196.704 102.222 196.398 114.042C196.289 122.452 195.988 139.004 195.78 148.174C197.013 140.951 199.233 128.277 200.417 121.787C201.945 112.539 203.721 103.348 206.529 94.3828L206.708 94.417C205.866 103.78 203.986 112.942 201.853 122.075C200.45 128.541 197.626 141.208 196.003 148.329C199.569 139.114 206.16 122.283 209.549 113.761C214.121 101.826 218.923 89.9999 224.706 78.5781L224.874 78.6475C220.953 90.8302 216.046 102.615 210.903 114.313C207.323 122.722 200.189 139.286 196.241 148.352C200.996 140.684 209.625 126.901 214.058 119.905C220.146 110.006 226.436 100.255 233.614 91.0938L233.771 91.1914C228.276 101.454 221.893 111.147 215.291 120.706C210.695 127.556 201.583 140.974 196.482 148.42C203.349 140.876 215.853 127.245 222.246 120.339C231.073 110.578 240.074 101.001 249.841 92.1562L249.974 92.2832C241.665 102.511 232.585 112.013 223.313 121.348C216.77 128.09 203.8 141.335 196.647 148.587C205.52 141.739 221.798 129.27 230.092 122.971C241.502 114.092 253.172 105.396 265.35 97.5781L265.459 97.7285C263.118 99.7638 259.525 102.663 257.069 104.646C248.628 111.49 239.813 117.845 230.969 124.152C222.587 130.237 205.996 142.189 196.874 148.71C206.223 143.702 223.159 134.707 231.795 130.169C243.822 123.677 255.953 117.41 268.568 112.094L268.655 112.255C256.962 119.364 244.774 125.528 232.47 131.473C223.717 135.819 206.415 144.324 196.905 148.956C226.487 139.163 258.861 127.443 288.651 119.064C290.756 118.505 292.849 117.911 294.959 117.375L295.017 117.548C292.993 118.349 290.945 119.088 288.91 119.86C274.652 125.13 260.094 129.777 245.553 134.165C233.577 137.908 209.798 145.244 196.996 149.153C236.836 142.685 280.722 134.581 320.509 129.553C323.299 129.23 326.09 128.872 328.886 128.578L328.915 128.757C326.159 129.328 323.397 129.841 320.636 130.383C301.344 134.044 281.821 137.053 262.391 139.798C246.202 142.031 213.185 147.376 196.617 149.27C196.472 149.314 196.328 149.358 196.186 149.401C197.898 149.727 199.477 150.036 200.888 150.333C166.248 145.15 127.652 140.422 93.3809 133.884C91.0112 133.399 88.6353 132.956 86.2656 132.442L86.2949 132.258C88.7048 132.488 91.1037 132.789 93.5078 133.054C110.286 135.026 127.069 137.684 143.703 140.572C155.617 142.691 178.456 146.145 193.501 148.9C182.264 145.494 162.738 139.51 152.71 136.396C138.399 132.118 124.083 127.534 110.188 122.017L110.245 121.844C112.067 122.282 113.871 122.784 115.688 123.251L121.097 124.761C131.913 127.765 142.551 131.351 153.165 134.995C163.278 138.373 183.188 145.104 194.172 148.858C186.719 145.276 173.806 139.004 167.187 135.743C157.662 131.217 148.258 126.471 139.344 120.786L139.431 120.625C149.255 124.517 158.607 129.36 167.855 134.434C174.394 137.898 187.141 144.745 194.387 148.68C187.58 143.876 175.673 135.403 169.596 131.023C160.867 124.918 152.293 118.622 144.359 111.479L144.469 111.328C153.602 116.857 162.107 123.246 170.473 129.842C176.428 134.403 188.049 143.406 194.599 148.522C187.461 141.29 174.64 128.199 168.144 121.505C158.924 112.222 149.889 102.772 141.633 92.5957L141.766 92.4688C151.481 101.261 160.435 110.787 169.21 120.49C175.555 127.342 187.995 140.909 194.815 148.406C190.107 141.562 181.812 129.38 177.604 123.131C171.527 114.379 165.675 105.499 160.711 96.043L160.713 96.041C158.327 92.8767 155.981 89.6837 153.692 86.4502C151.254 83.2791 149.057 79.9923 147.742 76.1523L147.897 76.0547ZM62.4277 128.582C65.6563 128.075 68.7467 128.605 71.8369 129.4C74.9216 130.035 77.9892 130.739 81.0508 131.488L81.0215 131.667C77.8793 131.454 74.743 131.182 71.6123 130.848C68.4239 130.663 65.3216 130.225 62.3984 128.761L62.4277 128.582ZM70.6045 109.07C76.8199 110.016 82.7181 111.976 88.5645 114.185C93.7421 116.018 101.059 118.619 106.133 120.521L106.075 120.694C100.875 119.288 93.3678 117.108 88.1152 115.58C82.0785 113.96 76.1454 112.103 70.5469 109.243L70.6045 109.07ZM114.649 107.961C118.316 108.71 121.516 110.4 124.641 112.343C127.806 114.13 130.937 115.981 134.045 117.872L133.958 118.033C130.603 116.626 127.27 115.168 123.967 113.651C120.565 112.262 117.313 110.653 114.562 108.122L114.649 107.961ZM335.668 104.438C330.75 107.079 325.491 108.717 320.129 110.124C315.453 111.467 308.84 113.352 304.198 114.58L304.141 114.407C308.598 112.701 315.119 110.36 319.68 108.723C324.851 106.734 330.075 104.992 335.609 104.266L335.668 104.438ZM295.703 98.4268C292.567 101.154 288.94 102.953 285.157 104.539C281.473 106.251 277.76 107.9 274.024 109.509L273.938 109.348C277.426 107.26 280.937 105.219 284.483 103.235C287.983 101.102 291.569 99.2112 295.616 98.2656L295.703 98.4268ZM37.0576 98.2656C42.1025 98.8364 46.8418 100.417 51.5234 102.25C55.6747 103.755 61.5386 105.882 65.5977 107.462L65.54 107.635C61.3484 106.551 55.3004 104.85 51.0742 103.65C46.1964 102.399 41.4281 100.918 37 98.4385L37.0576 98.2656ZM75.1572 87.7734C81.7127 89.9932 87.7897 93.1647 93.7744 96.5664C99.0904 99.4608 106.609 103.56 111.804 106.506L111.717 106.668C106.32 104.194 98.5366 100.481 93.0996 97.875C86.8381 95.0152 80.7034 91.9475 75.0703 87.9346L75.1572 87.7734ZM122.932 95.9219C125.642 96.6022 127.787 98.1414 129.816 99.9346C131.903 101.578 133.95 103.268 135.962 105.003L135.858 105.152C133.535 103.861 131.24 102.529 128.975 101.14C126.588 99.854 124.402 98.3784 122.828 96.0723L122.932 95.9219ZM347.206 99.8643C349.426 98.8149 351.761 98.0369 354.258 98.2676L354.315 98.4404C352.424 100.084 350.066 100.816 347.656 101.26C345.321 101.854 342.968 102.378 340.604 102.856L340.547 102.684C342.744 101.692 344.963 100.746 347.206 99.8643ZM314.264 88.9424C312.419 91.0006 310.09 92.148 307.576 93.082C305.178 94.1371 302.75 95.1297 300.306 96.0752L300.219 95.9131C302.415 94.4832 304.647 93.0995 306.907 91.7734C309.133 90.286 311.433 89.0638 314.178 88.7812L314.264 88.9424ZM304.227 68.9316C299.285 73.8554 293.704 77.9315 287.95 81.8232C282.957 85.3346 275.888 90.2991 270.906 93.6836L270.797 93.5332C275.45 89.7625 282.288 84.3893 287.073 80.6416C292.458 76.2597 297.977 72.0908 304.117 68.7812L304.227 68.9316ZM178.655 63.6172C180.633 68.397 181.573 73.4018 182.271 78.4756C182.997 82.915 184.012 89.1935 184.623 93.5869L184.444 93.6221C183.332 89.3497 181.855 83.1225 180.829 78.7637C179.526 73.8052 178.482 68.8232 178.477 63.6514L178.655 63.6172ZM98.5781 77.2344C102.257 78.7219 105.33 81.0633 108.276 83.6348C111.292 86.0678 114.267 88.5469 117.207 91.0664L117.098 91.2158H117.092C113.829 89.1288 110.594 87.0014 107.395 84.8164C104.079 82.7408 100.954 80.475 98.4688 77.3848L98.5781 77.2344ZM265.473 75.9316C264.06 78.872 261.875 81.115 259.465 83.2021C257.193 85.3758 254.876 87.5037 252.523 89.5908L252.391 89.4639C254.351 87.002 256.346 84.5745 258.398 82.1934C260.359 79.6737 262.475 77.373 265.341 75.8047L265.473 75.9316ZM116.414 65.7188C120.392 68.4574 123.609 71.9289 126.665 75.6016C129.433 78.7496 133.33 83.2009 135.982 86.3662L135.85 86.4922C132.846 83.6901 128.579 79.5277 125.599 76.6104C122.093 73.3643 118.801 69.9624 116.281 65.8457L116.414 65.7188ZM212.415 65.7998C212.715 69.4091 211.988 72.8348 210.99 76.248C210.154 79.6612 209.255 83.0629 208.304 86.4473L208.125 86.4131C208.546 82.9191 209.013 79.4358 209.549 75.9648C209.935 72.4306 210.576 68.9886 212.236 65.7656L212.415 65.7998ZM251.227 64.4102C249.941 68.2155 247.762 71.4622 245.352 74.6045C243.086 77.8045 240.761 80.964 238.397 84.0947L238.242 83.9971C240.151 80.5723 242.111 77.1699 244.117 73.8027C246.014 70.326 248.108 67.0281 251.071 64.3125L251.227 64.4102ZM66.3906 53.3203C71.7643 56.059 76.5156 59.6567 81.1396 63.4736C85.2678 66.737 91.1082 71.3612 95.1211 74.6592L95.0117 74.8096C90.7163 71.9382 84.5639 67.6534 80.2627 64.6553C75.2756 61.3344 70.4612 57.8236 66.2812 53.4707L66.3906 53.3203ZM279.169 61.4941C278.166 63.9963 276.402 65.8073 274.396 67.4678C272.533 69.209 270.63 70.9039 268.688 72.5586L268.555 72.4316V72.4258C270.1 70.3963 271.692 68.4067 273.329 66.4521C274.88 64.3594 276.593 62.4972 279.037 61.3672L279.169 61.4941ZM195.753 34.9766C196.756 41.2151 196.704 47.4593 196.398 53.7324C196.243 59.2502 196.012 67.0512 195.753 72.4883H195.568C195.315 67.0801 195.079 59.2271 194.923 53.7324C194.617 47.4593 194.559 41.2151 195.568 34.9766H195.753ZM234.899 54.2334C234.605 57.5717 233.342 60.5296 231.814 63.4297C230.442 66.3586 229.018 69.2587 227.542 72.1357L227.375 72.0664C228.349 68.9818 229.376 65.9144 230.46 62.8701C231.417 59.7337 232.593 56.7413 234.732 54.1641L234.899 54.2334ZM132.491 52.4297C135.178 54.7186 137 57.5957 138.62 60.6514C140.356 63.5976 142.039 66.5732 143.671 69.5771L143.516 69.6748C141.428 66.965 139.382 64.2264 137.387 61.4531C135.242 58.7317 133.345 55.906 132.336 52.5273L132.491 52.4297ZM151.706 42.3281C154.439 46.3411 156.204 50.7752 157.749 55.3301C159.208 59.2853 161.254 64.8834 162.598 68.8213L162.431 68.8906C160.626 65.1717 158.129 59.7113 156.388 55.8887C154.278 51.5646 152.415 47.177 151.539 42.3975L151.706 42.3281ZM325.029 53.4707C323.086 56.1631 320.498 58.0254 317.719 59.7031C315.061 61.4847 312.362 63.2197 309.641 64.9033L309.531 64.7539C311.93 62.6321 314.368 60.55 316.842 58.5205C319.252 56.3411 321.783 54.4043 324.92 53.3203L325.029 53.4707ZM217.076 42.3779C217.434 45.6932 216.765 48.8242 215.825 51.9492C215.047 55.0742 214.205 58.1763 213.312 61.2725L213.133 61.2383C213.49 58.0384 213.905 54.8439 214.384 51.667C214.712 48.421 215.295 45.2727 216.897 42.3438L217.076 42.3779ZM270.929 34.207C268.87 39.2001 265.918 43.6287 262.741 47.9414C260.043 51.7929 256.22 57.2356 253.476 60.9717L253.32 60.874C255.621 56.8784 259.08 51.1468 261.508 47.1396C264.172 42.4926 267.037 38.0069 270.773 34.1094L270.929 34.207ZM173.772 39.1406C175.289 41.6544 175.791 44.3988 176.045 47.2412C176.443 50.0144 176.771 52.8052 177.054 55.5957L176.875 55.6309C176.062 52.944 175.3 50.2449 174.603 47.5293C173.744 44.8023 173.156 42.0805 173.594 39.1748L173.772 39.1406ZM242.808 35.0068C242.675 37.9415 241.579 40.5076 240.213 43.0156C239.008 45.5466 237.739 48.0551 236.425 50.5342L236.258 50.4648C237.071 47.778 237.93 45.1025 238.853 42.4561C239.642 39.7116 240.669 37.1169 242.641 34.9375L242.808 35.0068ZM111.327 19.9766C114.902 23.6205 117.595 27.8469 120.098 32.2461C122.387 36.0457 125.615 41.4192 127.789 45.2188L127.633 45.3164C125.05 41.8167 121.406 36.6628 118.863 33.0479C115.848 28.9888 113.063 24.8136 111.172 20.0742L111.327 19.9766ZM253.479 9.0459C253.047 12.7186 251.646 16.0165 249.979 19.251C248.475 22.5143 246.906 25.7487 245.292 28.9658L245.125 28.8975C246.238 25.4784 247.403 22.0759 248.625 18.6914C249.715 15.2206 251.035 11.8939 253.312 8.97656L253.479 9.0459ZM195.754 0C196.757 4.1513 196.705 8.31438 196.399 12.5176C196.244 16.6919 196.031 20.8666 195.754 25.0352H195.569C195.298 20.8666 195.08 16.6919 194.924 12.5176C194.612 8.31438 194.566 4.15131 195.569 0H195.754Z" fill="#986236"/>
<path d="M339.859 156.797C355.605 159.982 366.933 163.219 373.324 165.61V250.827C373.324 250.827 361.733 246.81 339.859 242.354V156.797Z" fill="#EFC569" stroke="#2C1F1A"/>
<g filter="url(#filter0_n_2873_43285)">
<path d="M339.859 164.578C350.919 166.815 359.8 169.079 366.32 171.057V240.907C360.723 239.318 351.831 237.01 339.859 234.571V164.578Z" fill="#8DB687"/>
<path d="M339.859 164.578C350.919 166.815 359.8 169.079 366.32 171.057V240.907C360.723 239.318 351.831 237.01 339.859 234.571V164.578Z" stroke="#2C1F1A" stroke-width="2"/>
</g>
<path d="M53.4688 156.797C37.723 159.982 26.3961 163.219 20.0049 165.61V250.827C20.0172 250.823 31.6073 246.807 53.4688 242.354V156.797Z" fill="#EFC569" stroke="#2C1F1A"/>
<g filter="url(#filter1_n_2873_43285)">
<path d="M53.4688 164.578C42.4093 166.815 33.5302 169.079 27.0098 171.057V240.907C32.6065 239.318 41.4974 237.01 53.4688 234.571V164.578Z" fill="#8DB687"/>
<path d="M53.4688 164.578C42.4093 166.815 33.5302 169.079 27.0098 171.057V240.907C32.6065 239.318 41.4974 237.01 53.4688 234.571V164.578Z" stroke="#2C1F1A" stroke-width="2"/>
</g>
<path d="M196.317 128C281.3 128 338.604 141.489 356.633 148.234V233.451C356.633 233.451 298.265 213.217 196.317 213.217C94.3677 213.217 36 233.451 36 233.451V148.234C54.0291 141.489 111.333 128 196.317 128Z" fill="#EFC569" stroke="#2C1F1A"/>
<g filter="url(#filter2_n_2873_43285)">
<path d="M196.66 135.781C281.644 135.781 338.948 149.271 356.977 156.015V225.667C356.977 225.667 298.609 205.433 196.66 205.433C94.7114 205.433 36.3438 225.667 36.3438 225.667V156.015C54.3729 149.271 111.677 135.781 196.66 135.781Z" fill="#8DB687"/>
<path d="M196.66 135.781C281.644 135.781 338.948 149.271 356.977 156.015V225.667C356.977 225.667 298.609 205.433 196.66 205.433C94.7114 205.433 36.3438 225.667 36.3438 225.667V156.015C54.3729 149.271 111.677 135.781 196.66 135.781Z" stroke="#2C1F1A" stroke-width="2"/>
</g>
<path d="M103.28 172.42H116.02V173.86H103.28V172.42ZM104.8 177.66H114.3V179.04H104.8V177.66ZM104.8 175.04H114.3V176.42H104.8V175.04ZM106.38 181.68V183.82H112.58V181.68H106.38ZM104.58 180.28H114.44V185.2H104.58V180.28ZM107.7 170.54L109.46 169.86C109.713 170.167 109.98 170.527 110.26 170.94C110.553 171.34 110.773 171.68 110.92 171.96L109.1 172.74C108.967 172.447 108.767 172.093 108.5 171.68C108.233 171.253 107.967 170.873 107.7 170.54ZM98.54 170.98L99.94 170.12C100.26 170.44 100.58 170.787 100.9 171.16C101.233 171.533 101.547 171.893 101.84 172.24C102.133 172.587 102.373 172.893 102.56 173.16L101.12 174.2C100.933 173.92 100.693 173.593 100.4 173.22C100.12 172.847 99.8133 172.467 99.48 172.08C99.16 171.68 98.8467 171.313 98.54 170.98ZM97.9 174.76H102.22V176.3H97.9V174.76ZM101.7 183.72C102.087 184.6 102.62 185.253 103.3 185.68C103.98 186.107 104.807 186.387 105.78 186.52C106.767 186.653 107.893 186.72 109.16 186.72C109.867 186.72 110.653 186.707 111.52 186.68C112.387 186.653 113.26 186.62 114.14 186.58C115.02 186.54 115.813 186.487 116.52 186.42C116.427 186.553 116.34 186.727 116.26 186.94C116.18 187.153 116.107 187.373 116.04 187.6C115.987 187.827 115.94 188.027 115.9 188.2C115.247 188.24 114.54 188.273 113.78 188.3C113.02 188.327 112.247 188.347 111.46 188.36C110.673 188.373 109.9 188.38 109.14 188.38C107.967 188.38 106.92 188.327 106 188.22C105.093 188.113 104.287 187.92 103.58 187.64C102.887 187.36 102.28 186.953 101.76 186.42C101.24 185.873 100.793 185.153 100.42 184.26L101.7 183.72ZM101.62 179.68H102.08L102.38 179.64L103.3 179.98C102.967 182.153 102.4 183.967 101.6 185.42C100.8 186.86 99.8333 187.96 98.7 188.72C98.62 188.587 98.5067 188.433 98.36 188.26C98.2133 188.1 98.06 187.94 97.9 187.78C97.74 187.633 97.5933 187.52 97.46 187.44C98.54 186.773 99.44 185.813 100.16 184.56C100.88 183.307 101.367 181.787 101.62 180V179.68ZM98.22 181.48V180.08L99 179.68H102.2V181.18H99.44C99.1867 181.18 98.94 181.213 98.7 181.28C98.46 181.333 98.3 181.4 98.22 181.48ZM98.22 181.48C98.1933 181.333 98.1333 181.16 98.04 180.96C97.96 180.76 97.88 180.56 97.8 180.36C97.72 180.147 97.6467 179.98 97.58 179.86C97.74 179.82 97.9 179.76 98.06 179.68C98.22 179.587 98.3933 179.44 98.58 179.24C98.74 179.093 98.96 178.84 99.24 178.48C99.52 178.12 99.82 177.72 100.14 177.28C100.473 176.827 100.78 176.393 101.06 175.98C101.353 175.553 101.587 175.207 101.76 174.94V174.88L102.3 174.66L103.48 175.2C103.24 175.547 102.953 175.953 102.62 176.42C102.3 176.873 101.96 177.347 101.6 177.84C101.24 178.32 100.88 178.787 100.52 179.24C100.173 179.68 99.8533 180.06 99.56 180.38C99.56 180.38 99.4933 180.42 99.36 180.5C99.2267 180.567 99.0667 180.66 98.88 180.78C98.7067 180.887 98.5533 181.007 98.42 181.14C98.2867 181.26 98.22 181.373 98.22 181.48ZM124.96 171.74H136.2V173.54H124.96V171.74ZM130.68 172.86L132.56 173.36C131.787 175.293 130.767 177.047 129.5 178.62C128.247 180.18 126.84 181.46 125.28 182.46C125.2 182.327 125.08 182.16 124.92 181.96C124.773 181.76 124.613 181.56 124.44 181.36C124.267 181.16 124.113 181 123.98 180.88C125.473 180.013 126.8 178.893 127.96 177.52C129.12 176.133 130.027 174.58 130.68 172.86ZM131.06 177.4L132.32 176.28C132.827 176.707 133.353 177.18 133.9 177.7C134.46 178.22 134.98 178.74 135.46 179.26C135.94 179.78 136.313 180.253 136.58 180.68L135.22 181.98C134.967 181.553 134.607 181.073 134.14 180.54C133.687 179.993 133.187 179.447 132.64 178.9C132.107 178.353 131.58 177.853 131.06 177.4ZM117.98 174.34H125.28V176.14H117.98V174.34ZM120.92 170.12H122.74V188.66H120.92V170.12ZM120.84 175.5L122 175.9C121.84 176.713 121.633 177.547 121.38 178.4C121.127 179.253 120.84 180.093 120.52 180.92C120.213 181.747 119.88 182.52 119.52 183.24C119.173 183.947 118.807 184.553 118.42 185.06C118.313 184.807 118.167 184.513 117.98 184.18C117.793 183.847 117.627 183.56 117.48 183.32C117.827 182.88 118.167 182.36 118.5 181.76C118.847 181.147 119.167 180.487 119.46 179.78C119.767 179.073 120.033 178.36 120.26 177.64C120.5 176.907 120.693 176.193 120.84 175.5ZM122.58 176.52C122.7 176.627 122.887 176.8 123.14 177.04C123.393 177.28 123.66 177.547 123.94 177.84C124.22 178.12 124.48 178.387 124.72 178.64C124.96 178.88 125.127 179.053 125.22 179.16L124.16 180.64C124.04 180.44 123.867 180.193 123.64 179.9C123.427 179.593 123.2 179.28 122.96 178.96C122.72 178.627 122.487 178.32 122.26 178.04C122.033 177.747 121.847 177.513 121.7 177.34L122.58 176.52ZM129.52 176.34L131.04 174.84L131.4 174.96V188.68H129.52V176.34ZM145 171.52H152.8V173.26H145V171.52ZM151.66 177.18H154.66V178.9H151.44L151.66 177.18ZM154 177.18H155.76C155.76 177.18 155.76 177.233 155.76 177.34C155.76 177.433 155.76 177.547 155.76 177.68C155.76 177.813 155.753 177.92 155.74 178C155.66 179.6 155.58 180.973 155.5 182.12C155.42 183.253 155.333 184.2 155.24 184.96C155.147 185.707 155.033 186.293 154.9 186.72C154.767 187.147 154.613 187.467 154.44 187.68C154.227 187.947 154 188.133 153.76 188.24C153.533 188.347 153.247 188.42 152.9 188.46C152.607 188.5 152.207 188.52 151.7 188.52C151.193 188.52 150.653 188.507 150.08 188.48C150.067 188.2 150.007 187.887 149.9 187.54C149.807 187.193 149.673 186.887 149.5 186.62C150.047 186.673 150.56 186.707 151.04 186.72C151.533 186.733 151.887 186.74 152.1 186.74C152.287 186.74 152.44 186.727 152.56 186.7C152.693 186.66 152.807 186.58 152.9 186.46C153.087 186.287 153.24 185.887 153.36 185.26C153.493 184.62 153.607 183.68 153.7 182.44C153.807 181.187 153.907 179.54 154 177.5V177.18ZM147.02 172.18H148.88C148.867 173.42 148.833 174.673 148.78 175.94C148.74 177.193 148.647 178.427 148.5 179.64C148.353 180.853 148.133 182.013 147.84 183.12C147.56 184.227 147.173 185.26 146.68 186.22C146.2 187.167 145.593 188.007 144.86 188.74C144.713 188.527 144.507 188.293 144.24 188.04C143.973 187.787 143.727 187.593 143.5 187.46C144.193 186.793 144.753 186.027 145.18 185.16C145.62 184.28 145.96 183.327 146.2 182.3C146.453 181.273 146.633 180.2 146.74 179.08C146.86 177.96 146.933 176.82 146.96 175.66C146.987 174.487 147.007 173.327 147.02 172.18ZM151.78 171.52H153.6C153.467 172.333 153.307 173.193 153.12 174.1C152.947 175.007 152.767 175.88 152.58 176.72C152.393 177.56 152.22 178.287 152.06 178.9H150.3C150.473 178.26 150.653 177.513 150.84 176.66C151.027 175.807 151.2 174.933 151.36 174.04C151.52 173.133 151.66 172.293 151.78 171.52ZM138 181.2L139 179.98C139.467 180.393 139.96 180.84 140.48 181.32C141.013 181.787 141.527 182.273 142.02 182.78C142.527 183.273 142.993 183.753 143.42 184.22C143.86 184.673 144.22 185.087 144.5 185.46L143.4 186.88C143.12 186.493 142.767 186.06 142.34 185.58C141.927 185.1 141.473 184.607 140.98 184.1C140.487 183.58 139.98 183.073 139.46 182.58C138.953 182.087 138.467 181.627 138 181.2ZM138 181.2C138.187 180.507 138.373 179.713 138.56 178.82C138.747 177.927 138.927 176.987 139.1 176C139.273 175 139.427 174.007 139.56 173.02C139.693 172.02 139.793 171.08 139.86 170.2L141.48 170.28C141.4 171.2 141.287 172.173 141.14 173.2C140.993 174.213 140.827 175.233 140.64 176.26C140.467 177.273 140.28 178.247 140.08 179.18C139.893 180.113 139.7 180.947 139.5 181.68L138 181.2ZM142.38 172.94H143.96V175.4C143.96 176.347 143.907 177.38 143.8 178.5C143.707 179.607 143.487 180.747 143.14 181.92C142.807 183.093 142.287 184.247 141.58 185.38C140.887 186.5 139.947 187.553 138.76 188.54C138.68 188.42 138.567 188.287 138.42 188.14C138.273 188.007 138.12 187.867 137.96 187.72C137.8 187.587 137.66 187.48 137.54 187.4C138.66 186.493 139.547 185.527 140.2 184.5C140.853 183.46 141.333 182.407 141.64 181.34C141.947 180.26 142.147 179.213 142.24 178.2C142.333 177.187 142.38 176.253 142.38 175.4V172.94ZM137.64 174.52C138.573 174.493 139.68 174.447 140.96 174.38C142.24 174.313 143.547 174.24 144.88 174.16V175.8C143.64 175.893 142.393 175.98 141.14 176.06C139.9 176.127 138.793 176.193 137.82 176.26L137.64 174.52ZM160.14 180.96H173.66V182.7H160.14V180.96ZM162.32 183.38L164.2 183.94C163.84 184.46 163.407 184.973 162.9 185.48C162.407 185.973 161.88 186.433 161.32 186.86C160.76 187.287 160.207 187.653 159.66 187.96C159.553 187.84 159.4 187.7 159.2 187.54C159 187.38 158.8 187.227 158.6 187.08C158.4 186.933 158.227 186.813 158.08 186.72C158.907 186.333 159.7 185.847 160.46 185.26C161.233 184.66 161.853 184.033 162.32 183.38ZM169.48 184.24L170.94 183.24C171.473 183.587 172.033 183.98 172.62 184.42C173.207 184.847 173.76 185.273 174.28 185.7C174.8 186.127 175.227 186.527 175.56 186.9L174 188C173.693 187.653 173.287 187.253 172.78 186.8C172.287 186.347 171.747 185.9 171.16 185.46C170.587 185.007 170.027 184.6 169.48 184.24ZM167.7 175.16C168.167 175.587 168.733 176.007 169.4 176.42C170.067 176.82 170.787 177.207 171.56 177.58C172.347 177.94 173.147 178.267 173.96 178.56C174.787 178.84 175.593 179.073 176.38 179.26C176.247 179.38 176.1 179.54 175.94 179.74C175.78 179.927 175.633 180.12 175.5 180.32C175.367 180.507 175.253 180.68 175.16 180.84C174.373 180.6 173.567 180.313 172.74 179.98C171.927 179.633 171.12 179.247 170.32 178.82C169.52 178.38 168.767 177.913 168.06 177.42C167.367 176.913 166.753 176.4 166.22 175.88L167.7 175.16ZM166.78 174.28L168.5 174.96C167.487 176.373 166.14 177.573 164.46 178.56C162.78 179.533 160.92 180.327 158.88 180.94C158.813 180.78 158.707 180.607 158.56 180.42C158.427 180.233 158.287 180.047 158.14 179.86C157.993 179.66 157.86 179.507 157.74 179.4C159.047 179.053 160.28 178.627 161.44 178.12C162.6 177.613 163.64 177.04 164.56 176.4C165.493 175.76 166.233 175.053 166.78 174.28ZM158.02 172.04H166.4V173.76H158.02V172.04ZM162.04 170.12H163.96V175.68H162.04V170.12ZM170.22 170.12H172.12V175.68H170.22V170.12ZM167.44 172.04H175.9V173.74H167.44V172.04ZM166 178.62H167.98V188.68H166V178.62ZM180.52 177.62H185.32V179.36H180.52V177.62ZM184.6 177.62H186.44C186.44 177.62 186.44 177.667 186.44 177.76C186.44 177.853 186.433 177.96 186.42 178.08C186.42 178.2 186.42 178.3 186.42 178.38C186.393 179.833 186.36 181.02 186.32 181.94C186.28 182.86 186.22 183.567 186.14 184.06C186.06 184.54 185.947 184.873 185.8 185.06C185.627 185.273 185.44 185.427 185.24 185.52C185.04 185.613 184.793 185.68 184.5 185.72C184.247 185.76 183.907 185.78 183.48 185.78C183.053 185.78 182.6 185.773 182.12 185.76C182.107 185.48 182.053 185.173 181.96 184.84C181.867 184.507 181.747 184.22 181.6 183.98C182.013 184.02 182.4 184.047 182.76 184.06C183.12 184.073 183.387 184.08 183.56 184.08C183.693 184.08 183.807 184.067 183.9 184.04C184.007 184 184.1 183.94 184.18 183.86C184.273 183.74 184.347 183.48 184.4 183.08C184.453 182.667 184.493 182.047 184.52 181.22C184.56 180.393 184.587 179.293 184.6 177.92V177.62ZM190.38 171.22L191.54 170.08C191.94 170.28 192.36 170.513 192.8 170.78C193.24 171.033 193.653 171.293 194.04 171.56C194.427 171.827 194.747 172.073 195 172.3L193.8 173.58C193.56 173.353 193.247 173.1 192.86 172.82C192.487 172.54 192.08 172.26 191.64 171.98C191.213 171.7 190.793 171.447 190.38 171.22ZM193.04 176.54L194.94 177C194.1 179.6 192.94 181.88 191.46 183.84C189.993 185.8 188.253 187.387 186.24 188.6C186.16 188.453 186.033 188.28 185.86 188.08C185.687 187.893 185.513 187.7 185.34 187.5C185.167 187.313 185.007 187.16 184.86 187.04C186.847 185.973 188.527 184.547 189.9 182.76C191.273 180.973 192.32 178.9 193.04 176.54ZM180.64 173.34H196.1V175.2H180.64V173.34ZM179.38 173.34H181.36V179.08C181.36 179.813 181.333 180.607 181.28 181.46C181.227 182.313 181.127 183.187 180.98 184.08C180.833 184.96 180.62 185.813 180.34 186.64C180.06 187.467 179.687 188.207 179.22 188.86C179.127 188.74 178.973 188.593 178.76 188.42C178.56 188.247 178.353 188.08 178.14 187.92C177.94 187.773 177.767 187.66 177.62 187.58C178.167 186.78 178.56 185.887 178.8 184.9C179.053 183.9 179.213 182.893 179.28 181.88C179.347 180.867 179.38 179.927 179.38 179.06V173.34ZM187.62 170.14H189.6C189.587 171.9 189.647 173.593 189.78 175.22C189.913 176.833 190.107 178.333 190.36 179.72C190.613 181.107 190.913 182.313 191.26 183.34C191.607 184.367 191.993 185.167 192.42 185.74C192.86 186.313 193.307 186.6 193.76 186.6C194.027 186.6 194.227 186.32 194.36 185.76C194.493 185.2 194.587 184.273 194.64 182.98C194.867 183.193 195.133 183.4 195.44 183.6C195.747 183.8 196.027 183.947 196.28 184.04C196.173 185.227 196.02 186.147 195.82 186.8C195.62 187.453 195.34 187.907 194.98 188.16C194.633 188.413 194.18 188.54 193.62 188.54C192.927 188.54 192.293 188.307 191.72 187.84C191.16 187.373 190.653 186.713 190.2 185.86C189.76 185.007 189.38 184.007 189.06 182.86C188.753 181.713 188.493 180.453 188.28 179.08C188.067 177.707 187.907 176.267 187.8 174.76C187.693 173.24 187.633 171.7 187.62 170.14ZM197.92 172.38H205.36V174.18H197.92V172.38ZM205.58 174.56H214.86V176.36H205.58V174.56ZM200.74 173.12H202.6V183.16H200.74V173.12ZM213.98 174.56H215.82C215.82 174.56 215.82 174.62 215.82 174.74C215.82 174.847 215.82 174.973 215.82 175.12C215.82 175.253 215.82 175.367 215.82 175.46C215.753 177.5 215.68 179.24 215.6 180.68C215.533 182.107 215.447 183.287 215.34 184.22C215.247 185.14 215.133 185.86 215 186.38C214.88 186.9 214.727 187.28 214.54 187.52C214.3 187.84 214.053 188.06 213.8 188.18C213.547 188.3 213.247 188.38 212.9 188.42C212.567 188.46 212.133 188.48 211.6 188.48C211.08 188.48 210.54 188.467 209.98 188.44C209.967 188.16 209.907 187.84 209.8 187.48C209.693 187.133 209.553 186.833 209.38 186.58C209.953 186.62 210.48 186.647 210.96 186.66C211.453 186.673 211.813 186.68 212.04 186.68C212.24 186.68 212.4 186.66 212.52 186.62C212.64 186.567 212.753 186.48 212.86 186.36C213.007 186.187 213.133 185.867 213.24 185.4C213.36 184.92 213.46 184.233 213.54 183.34C213.62 182.447 213.693 181.313 213.76 179.94C213.84 178.567 213.913 176.9 213.98 174.94V174.56ZM197.66 183.16C198.327 183.013 199.093 182.833 199.96 182.62C200.827 182.393 201.747 182.153 202.72 181.9C203.693 181.647 204.66 181.387 205.62 181.12L205.86 182.92C204.513 183.32 203.153 183.713 201.78 184.1C200.42 184.487 199.2 184.827 198.12 185.12L197.66 183.16ZM208.72 170.44H210.64C210.627 172.027 210.6 173.567 210.56 175.06C210.52 176.553 210.4 177.973 210.2 179.32C210.013 180.653 209.707 181.907 209.28 183.08C208.853 184.24 208.253 185.293 207.48 186.24C206.707 187.173 205.713 187.993 204.5 188.7C204.407 188.54 204.28 188.367 204.12 188.18C203.973 187.993 203.813 187.807 203.64 187.62C203.467 187.447 203.307 187.307 203.16 187.2C204.293 186.573 205.213 185.833 205.92 184.98C206.64 184.127 207.193 183.173 207.58 182.12C207.967 181.053 208.24 179.907 208.4 178.68C208.56 177.453 208.647 176.153 208.66 174.78C208.687 173.393 208.707 171.947 208.72 170.44ZM223.72 178.04H235.82V179.78H223.72V178.04ZM224.3 173.72H235.32V175.44H224.3V173.72ZM228.72 174.6H230.6V177.32C230.6 177.96 230.533 178.647 230.4 179.38C230.267 180.113 230 180.86 229.6 181.62C229.2 182.38 228.613 183.127 227.84 183.86C227.067 184.58 226.04 185.247 224.76 185.86C224.627 185.66 224.433 185.427 224.18 185.16C223.927 184.893 223.693 184.68 223.48 184.52C224.707 183.987 225.673 183.413 226.38 182.8C227.1 182.173 227.627 181.54 227.96 180.9C228.293 180.247 228.5 179.613 228.58 179C228.673 178.387 228.72 177.82 228.72 177.3V174.6ZM232.34 170.1L234.24 170.7C234 171.153 233.74 171.627 233.46 172.12C233.193 172.6 232.927 173.067 232.66 173.52C232.407 173.96 232.153 174.347 231.9 174.68L230.4 174.16C230.627 173.8 230.86 173.387 231.1 172.92C231.34 172.44 231.567 171.953 231.78 171.46C232.007 170.967 232.193 170.513 232.34 170.1ZM225.22 170.74L226.82 170.14C227.127 170.607 227.453 171.127 227.8 171.7C228.16 172.273 228.44 172.753 228.64 173.14L226.96 173.86C226.84 173.593 226.68 173.287 226.48 172.94C226.28 172.58 226.073 172.207 225.86 171.82C225.647 171.42 225.433 171.06 225.22 170.74ZM228.58 180.66L229.82 179.52C230.3 179.907 230.813 180.327 231.36 180.78C231.92 181.22 232.48 181.667 233.04 182.12C233.6 182.56 234.127 182.993 234.62 183.42C235.113 183.833 235.527 184.2 235.86 184.52L234.52 185.86C234.2 185.527 233.807 185.147 233.34 184.72C232.873 184.28 232.367 183.827 231.82 183.36C231.273 182.893 230.72 182.427 230.16 181.96C229.6 181.493 229.073 181.06 228.58 180.66ZM218.52 170.96L219.96 170.12C220.4 170.6 220.847 171.133 221.3 171.72C221.767 172.293 222.127 172.787 222.38 173.2L220.9 174.2C220.74 173.907 220.527 173.573 220.26 173.2C219.993 172.827 219.707 172.447 219.4 172.06C219.093 171.66 218.8 171.293 218.52 170.96ZM217.88 174.76H222.18V176.3H217.88V174.76ZM221.68 183.72C222.067 184.6 222.6 185.253 223.28 185.68C223.96 186.107 224.793 186.387 225.78 186.52C226.767 186.653 227.9 186.72 229.18 186.72C229.887 186.72 230.673 186.707 231.54 186.68C232.407 186.653 233.273 186.62 234.14 186.58C235.02 186.54 235.82 186.487 236.54 186.42C236.447 186.553 236.36 186.727 236.28 186.94C236.2 187.14 236.127 187.353 236.06 187.58C236.007 187.807 235.96 188.007 235.92 188.18C235.267 188.22 234.56 188.253 233.8 188.28C233.04 188.307 232.26 188.327 231.46 188.34C230.673 188.353 229.9 188.36 229.14 188.36C227.967 188.36 226.92 188.307 226 188.2C225.093 188.107 224.287 187.913 223.58 187.62C222.887 187.34 222.273 186.933 221.74 186.4C221.22 185.853 220.78 185.14 220.42 184.26L221.68 183.72ZM221.34 179.68H221.88L222.2 179.64L223.02 179.98C222.713 182.113 222.193 183.913 221.46 185.38C220.727 186.833 219.833 187.947 218.78 188.72C218.7 188.6 218.58 188.453 218.42 188.28C218.273 188.12 218.12 187.96 217.96 187.8C217.8 187.64 217.653 187.52 217.52 187.44C218.507 186.76 219.327 185.793 219.98 184.54C220.633 183.287 221.087 181.773 221.34 180V179.68ZM218.22 181.48V180.08L219 179.68H222.08L222.06 181.18H219.42C219.18 181.18 218.94 181.213 218.7 181.28C218.46 181.333 218.3 181.4 218.22 181.48ZM218.22 181.48C218.193 181.333 218.133 181.16 218.04 180.96C217.96 180.76 217.88 180.56 217.8 180.36C217.72 180.147 217.647 179.98 217.58 179.86C217.74 179.82 217.9 179.76 218.06 179.68C218.22 179.587 218.387 179.447 218.56 179.26C218.72 179.113 218.933 178.86 219.2 178.5C219.48 178.14 219.78 177.733 220.1 177.28C220.42 176.827 220.72 176.393 221 175.98C221.28 175.553 221.507 175.207 221.68 174.94V174.88L222.2 174.66L223.38 175.2C223.153 175.533 222.88 175.933 222.56 176.4C222.24 176.853 221.9 177.327 221.54 177.82C221.193 178.313 220.847 178.787 220.5 179.24C220.153 179.68 219.84 180.06 219.56 180.38C219.56 180.38 219.493 180.42 219.36 180.5C219.227 180.567 219.067 180.66 218.88 180.78C218.707 180.887 218.553 181.007 218.42 181.14C218.287 181.26 218.22 181.373 218.22 181.48ZM238.84 180.52H248.28V182.18H238.84V180.52ZM242.66 178.54H244.44V186.42H242.66V178.54ZM238.14 186.02C239.007 185.887 240 185.727 241.12 185.54C242.253 185.353 243.447 185.147 244.7 184.92C245.967 184.693 247.227 184.467 248.48 184.24L248.6 185.9C247.413 186.127 246.22 186.353 245.02 186.58C243.82 186.807 242.667 187.02 241.56 187.22C240.467 187.433 239.467 187.62 238.56 187.78L238.14 186.02ZM238.34 171.36H248.7V173.02H238.34V171.36ZM244.38 174.18L245.74 173.38C246.1 173.82 246.467 174.3 246.84 174.82C247.227 175.34 247.58 175.853 247.9 176.36C248.233 176.853 248.493 177.293 248.68 177.68L247.24 178.64C247.067 178.24 246.82 177.787 246.5 177.28C246.18 176.76 245.833 176.233 245.46 175.7C245.1 175.153 244.74 174.647 244.38 174.18ZM249.66 171.9H251.42V184.04H249.66V171.9ZM253.56 170.4H255.4V186.04C255.4 186.587 255.333 187 255.2 187.28C255.08 187.573 254.853 187.8 254.52 187.96C254.173 188.093 253.727 188.18 253.18 188.22C252.633 188.273 251.98 188.3 251.22 188.3C251.18 188.047 251.093 187.74 250.96 187.38C250.827 187.02 250.687 186.713 250.54 186.46C251.113 186.473 251.64 186.487 252.12 186.5C252.613 186.5 252.947 186.5 253.12 186.5C253.293 186.487 253.407 186.453 253.46 186.4C253.527 186.333 253.56 186.213 253.56 186.04V170.4ZM239.36 178.34C239.333 178.22 239.28 178.053 239.2 177.84C239.133 177.627 239.06 177.407 238.98 177.18C238.913 176.953 238.84 176.767 238.76 176.62C238.907 176.567 239.06 176.467 239.22 176.32C239.38 176.16 239.547 175.967 239.72 175.74C239.827 175.58 240 175.3 240.24 174.9C240.48 174.5 240.733 174.027 241 173.48C241.28 172.933 241.52 172.38 241.72 171.82L243.54 172.52C243.273 173.107 242.967 173.693 242.62 174.28C242.287 174.867 241.933 175.427 241.56 175.96C241.187 176.493 240.82 176.967 240.46 177.38V177.42C240.46 177.42 240.4 177.453 240.28 177.52C240.173 177.573 240.047 177.647 239.9 177.74C239.767 177.833 239.64 177.94 239.52 178.06C239.413 178.167 239.36 178.26 239.36 178.34ZM239.36 178.34L239.34 177.02L240.26 176.44L246.68 175.96C246.787 176.2 246.913 176.46 247.06 176.74C247.22 177.007 247.36 177.24 247.48 177.44C246.147 177.56 245.02 177.66 244.1 177.74C243.193 177.82 242.453 177.893 241.88 177.96C241.32 178.013 240.873 178.06 240.54 178.1C240.207 178.14 239.953 178.18 239.78 178.22C239.62 178.26 239.48 178.3 239.36 178.34ZM266.1 177.14H268.08V186.38C268.08 186.967 267.993 187.407 267.82 187.7C267.66 188.007 267.353 188.233 266.9 188.38C266.473 188.527 265.907 188.613 265.2 188.64C264.507 188.68 263.66 188.7 262.66 188.7C262.607 188.42 262.507 188.093 262.36 187.72C262.213 187.347 262.06 187.033 261.9 186.78C262.433 186.793 262.947 186.807 263.44 186.82C263.933 186.833 264.367 186.84 264.74 186.84C265.113 186.827 265.373 186.82 265.52 186.82C265.733 186.807 265.88 186.773 265.96 186.72C266.053 186.653 266.1 186.533 266.1 186.36V177.14ZM258.92 171.6H273.14V173.48H258.92V171.6ZM272.58 171.6H273.1L273.54 171.5L275.04 172.6C274.387 173.32 273.633 174.047 272.78 174.78C271.927 175.5 271.033 176.18 270.1 176.82C269.18 177.46 268.267 178.013 267.36 178.48C267.267 178.333 267.14 178.18 266.98 178.02C266.82 177.86 266.66 177.7 266.5 177.54C266.353 177.367 266.22 177.233 266.1 177.14C266.7 176.82 267.313 176.453 267.94 176.04C268.567 175.627 269.173 175.187 269.76 174.72C270.36 174.253 270.9 173.793 271.38 173.34C271.873 172.887 272.273 172.467 272.58 172.08V171.6ZM286.18 182.04L285.72 174.68L285.66 172.04H288.34L288.28 174.68L287.82 182.04H286.18ZM287 187.14C286.573 187.14 286.213 187 285.92 186.72C285.64 186.44 285.5 186.073 285.5 185.62C285.5 185.167 285.647 184.8 285.94 184.52C286.233 184.24 286.587 184.1 287 184.1C287.413 184.1 287.767 184.24 288.06 184.52C288.353 184.8 288.5 185.167 288.5 185.62C288.5 186.073 288.353 186.44 288.06 186.72C287.767 187 287.413 187.14 287 187.14Z" fill="white"/>
<circle cx="251.75" cy="125.5" r="32.5" fill="#993E1D" stroke="#2C1F1A" stroke-width="2"/>
<circle cx="251.75" cy="125.5" r="30.5" fill="#993E1D" stroke="white" stroke-width="2"/>
<path d="M244.229 109.021H259.31C261.239 106.856 261.909 106.383 262.263 106.383C262.696 106.383 263.641 106.934 265.216 108.431C267.264 110.36 267.421 110.675 267.421 111.266C267.421 111.935 266.87 112.368 264.744 112.526C262.578 113.746 259.546 115.203 255.806 116.699C256.278 116.857 256.396 117.014 256.396 117.251C256.396 117.762 256.121 118.077 254.821 118.511V125.559L255.215 138.119C255.215 141.584 251.908 143.278 248.915 143.278C247.773 143.278 247.616 143.199 247.498 142.333C247.261 140.718 246.041 139.182 242.694 138.237V137.804C244.229 137.844 245.647 137.804 247.183 137.686C249.112 137.529 249.663 137.253 249.663 135.875V119.771C249.663 117.487 249.545 116.66 249.191 115.912L249.466 115.636C251.593 115.912 253.049 116.109 254.113 116.266C256.948 113.471 258.404 111.699 259.901 109.769H244.19C240.922 109.769 238.52 109.927 236.197 110.084L235.843 108.746C238.481 108.942 240.922 109.021 244.229 109.021Z" fill="white"/>
<circle cx="196.625" cy="125.5" r="32.5" fill="#993E1D" stroke="#2C1F1A" stroke-width="2"/>
<circle cx="196.625" cy="125.5" r="30.5" fill="#993E1D" stroke="white" stroke-width="2"/>
<path d="M187.254 116.66V121.661C188.159 121.818 189.104 122.133 189.892 122.606C191.703 122.724 193.475 122.842 195.247 122.881C195.798 121.346 196.31 119.81 196.704 118.235C194.656 118.274 193.003 118.353 191.428 118.511L191.073 117.172C192.884 117.329 194.696 117.408 196.861 117.447C197.216 115.951 197.531 114.376 197.727 112.841C195.089 112.841 192.609 112.959 190.404 113.156L190.049 111.817C192.451 112.014 195.089 112.132 197.806 112.132C197.924 111.502 197.964 110.832 198.043 110.202C198.121 109.376 198.161 108.746 198.161 108.234C198.161 107.604 198.082 107.131 197.964 106.698L198.239 106.422C203.476 107.131 204.382 107.525 204.382 108.155C204.382 108.667 203.949 108.903 202.807 109.218C202.649 110.202 202.531 111.147 202.374 112.132H207.847C209.973 109.415 210.249 109.139 210.603 109.139C210.879 109.139 211.351 109.415 212.454 110.281C214.029 111.541 214.265 111.817 214.265 112.25C214.265 112.722 214.029 112.841 213.359 112.841H202.256C201.98 114.416 201.586 115.951 201.153 117.487H206.429C208.438 114.967 208.831 114.652 209.107 114.652C209.383 114.652 209.698 114.77 211.154 115.951C212.375 116.936 212.69 117.29 212.69 117.605C212.69 118.077 212.454 118.196 211.784 118.196H204.028C204.697 119.889 205.524 121.464 206.587 122.921H208.516C210.564 120.125 210.958 119.771 211.312 119.771C211.666 119.771 211.903 119.849 213.714 121.346C214.934 122.369 215.131 122.606 215.131 123.039C215.131 123.511 214.895 123.629 214.226 123.629H207.178C209.422 126.149 212.414 127.764 216.037 128.906L215.998 129.26C214.777 129.929 213.911 131.15 213.123 132.646C212.848 133.197 212.69 133.355 212.454 133.355C212.178 133.355 211.863 133.276 211.666 133.119C210.761 132.489 209.855 131.741 209.028 130.874C208.91 130.914 208.753 130.953 208.477 130.953H203.319V132.213L203.437 135.481H205.76C207.808 132.686 208.201 132.331 208.556 132.331C208.91 132.331 209.146 132.41 210.958 133.906C212.178 134.93 212.375 135.166 212.375 135.599C212.375 136.072 212.139 136.19 211.469 136.19H203.437L203.634 141.309C203.634 142.884 202.453 143.317 200.129 143.317C198.948 143.317 198.712 143.238 198.712 141.899L198.909 136.19C196.153 136.19 193.554 136.269 191.27 136.505L190.916 135.166C193.396 135.402 196.153 135.481 198.948 135.481L199.027 132.922V130.953C197.452 130.992 195.798 131.032 194.066 131.189L193.908 130.166C192.136 131.859 190.168 133.316 187.963 134.615L187.687 134.3C190.955 131.386 193.318 127.724 194.932 123.669C193.751 123.708 192.569 123.787 191.349 123.826C191.939 124.574 192.254 125.441 192.254 126.386C192.254 128.236 191.27 129.024 190.128 129.024C188.947 129.024 188.278 128.512 188.278 126.937C188.278 124.85 187.963 123.393 187.254 122.487V126.976L187.529 141.23C187.529 142.963 186.191 143.356 184.379 143.356C182.883 143.356 182.765 143.199 182.765 141.939L183.119 126.897C181.82 129.181 180.324 131.071 178.001 133.316L177.686 133.04C180.088 128.787 181.938 123.708 182.883 116.66C181.426 116.699 179.969 116.817 178.198 116.975L177.843 115.636C179.851 115.833 181.505 115.912 183.08 115.951V109.769C183.08 108.667 183.041 107.801 182.647 106.816L182.923 106.541C188.317 107.249 188.947 107.682 188.947 108.194C188.947 108.667 188.671 108.982 187.254 109.336V115.951H187.648C189.262 113.549 189.734 113.234 189.931 113.234C190.207 113.234 190.758 113.51 191.703 114.376C192.884 115.479 193.121 115.754 193.121 116.069C193.121 116.542 192.884 116.66 192.215 116.66H187.254ZM199.066 122.921H204.461C203.988 121.385 203.634 119.81 203.398 118.196H200.917C200.444 119.81 199.814 121.385 199.066 122.921ZM204.697 123.629H198.712C197.452 125.992 195.916 128.118 194.026 130.008C195.68 130.166 197.373 130.244 199.027 130.244V129.181C199.027 126.464 198.988 125.637 198.712 124.968L198.988 124.692C203.87 125.283 204.776 125.559 204.776 126.228C204.776 126.661 204.5 126.897 203.319 127.291V130.244H203.87C205.327 128.236 205.603 128 205.839 128C206.075 128 206.548 128.236 207.453 128.945C206.272 127.331 205.366 125.519 204.697 123.629Z" fill="white"/>
<circle cx="141.5" cy="125.5" r="32.5" fill="#993E1D" stroke="#2C1F1A" stroke-width="2"/>
<circle cx="141.5" cy="125.5" r="30.5" fill="#993E1D" stroke="white" stroke-width="2"/>
<path d="M158.746 118.865H143.429C145.91 128.63 151.423 134.064 160.361 137.45V137.922C158.707 138.356 156.974 140.128 156.108 141.545C155.596 142.372 155.321 142.49 155.045 142.49C154.769 142.49 154.454 142.451 153.824 142.018C147.209 137.214 143.784 129.378 142.799 118.865H142.524C142.051 123.432 141.185 128.039 138.901 132.056C142.839 132.843 145.831 134.615 145.831 138.08C145.831 140.009 144.926 141.348 142.839 141.348C141.106 141.348 140.24 140.561 140.201 138.474C140.122 135.836 139.61 134.064 138.429 132.843C138.153 133.276 137.878 133.709 137.563 134.142C134.649 138.356 129.648 141.466 123.112 142.884L123.033 142.49C128.309 140.009 131.814 136.662 134.531 131.268C136.027 128.276 136.972 124.338 137.405 118.865H133.231C129.806 118.865 126.538 118.944 123.703 119.18L123.348 117.841C126.419 118.077 129.806 118.156 133.231 118.156H137.444C137.602 115.912 137.681 113.392 137.681 110.596C137.681 108.194 137.641 107.643 137.129 106.777L137.366 106.462C143.941 107.249 144.65 107.761 144.65 108.588C144.65 108.982 144.335 109.257 143.036 109.691C142.957 112.959 142.799 115.715 142.563 118.156H151.265C153.864 114.77 154.454 114.179 154.809 114.179C155.281 114.179 155.636 114.376 157.447 115.833C159.494 117.447 159.731 117.841 159.731 118.235C159.731 118.747 159.494 118.865 158.746 118.865Z" fill="white"/>
<defs>
<filter id="filter0_n_2873_43285" x="338.859" y="163.355" width="28.4609" height="78.875" filterUnits="userSpaceOnUse" color-interpolation-filters="sRGB">
<feFlood flood-opacity="0" result="BackgroundImageFix"/>
<feBlend mode="normal" in="SourceGraphic" in2="BackgroundImageFix" result="shape"/>
<feTurbulence type="fractalNoise" baseFrequency="2 2" stitchTiles="stitch" numOctaves="3" result="noise" seed="5685" />
<feColorMatrix in="noise" type="luminanceToAlpha" result="alphaNoise" />
<feComponentTransfer in="alphaNoise" result="coloredNoise1">
<feFuncA type="discrete" tableValues="1 1 1 1 1 1 1 1 1 1 1 1 1 1 1 1 1 1 1 1 1 1 1 1 1 1 1 1 1 1 1 1 1 1 1 1 1 1 1 1 1 1 1 1 1 1 1 1 1 1 1 0 0 0 0 0 0 0 0 0 0 0 0 0 0 0 0 0 0 0 0 0 0 0 0 0 0 0 0 0 0 0 0 0 0 0 0 0 0 0 0 0 0 0 0 0 0 0 0 0 "/>
</feComponentTransfer>
<feComposite operator="in" in2="shape" in="coloredNoise1" result="noise1Clipped" />
<feFlood flood-color="rgba(45, 76, 16, 0.17)" result="color1Flood" />
<feComposite operator="in" in2="noise1Clipped" in="color1Flood" result="color1" />
<feMerge result="effect1_noise_2873_43285">
<feMergeNode in="shape" />
<feMergeNode in="color1" />
</feMerge>
</filter>
<filter id="filter1_n_2873_43285" x="26.0098" y="163.355" width="28.459" height="78.8755" filterUnits="userSpaceOnUse" color-interpolation-filters="sRGB">
<feFlood flood-opacity="0" result="BackgroundImageFix"/>
<feBlend mode="normal" in="SourceGraphic" in2="BackgroundImageFix" result="shape"/>
<feTurbulence type="fractalNoise" baseFrequency="2 2" stitchTiles="stitch" numOctaves="3" result="noise" seed="5685" />
<feColorMatrix in="noise" type="luminanceToAlpha" result="alphaNoise" />
<feComponentTransfer in="alphaNoise" result="coloredNoise1">
<feFuncA type="discrete" tableValues="1 1 1 1 1 1 1 1 1 1 1 1 1 1 1 1 1 1 1 1 1 1 1 1 1 1 1 1 1 1 1 1 1 1 1 1 1 1 1 1 1 1 1 1 1 1 1 1 1 1 1 0 0 0 0 0 0 0 0 0 0 0 0 0 0 0 0 0 0 0 0 0 0 0 0 0 0 0 0 0 0 0 0 0 0 0 0 0 0 0 0 0 0 0 0 0 0 0 0 0 "/>
</feComponentTransfer>
<feComposite operator="in" in2="shape" in="coloredNoise1" result="noise1Clipped" />
<feFlood flood-color="rgba(45, 76, 16, 0.17)" result="color1Flood" />
<feComposite operator="in" in2="noise1Clipped" in="color1Flood" result="color1" />
<feMerge result="effect1_noise_2873_43285">
<feMergeNode in="shape" />
<feMergeNode in="color1" />
</feMerge>
</filter>
<filter id="filter2_n_2873_43285" x="35.3438" y="134.781" width="322.633" height="92.2915" filterUnits="userSpaceOnUse" color-interpolation-filters="sRGB">
<feFlood flood-opacity="0" result="BackgroundImageFix"/>
<feBlend mode="normal" in="SourceGraphic" in2="BackgroundImageFix" result="shape"/>
<feTurbulence type="fractalNoise" baseFrequency="2 2" stitchTiles="stitch" numOctaves="3" result="noise" seed="5685" />
<feColorMatrix in="noise" type="luminanceToAlpha" result="alphaNoise" />
<feComponentTransfer in="alphaNoise" result="coloredNoise1">
<feFuncA type="discrete" tableValues="1 1 1 1 1 1 1 1 1 1 1 1 1 1 1 1 1 1 1 1 1 1 1 1 1 1 1 1 1 1 1 1 1 1 1 1 1 1 1 1 1 1 1 1 1 1 1 1 1 1 1 0 0 0 0 0 0 0 0 0 0 0 0 0 0 0 0 0 0 0 0 0 0 0 0 0 0 0 0 0 0 0 0 0 0 0 0 0 0 0 0 0 0 0 0 0 0 0 0 0 "/>
</feComponentTransfer>
<feComposite operator="in" in2="shape" in="coloredNoise1" result="noise1Clipped" />
<feFlood flood-color="rgba(45, 76, 16, 0.17)" result="color1Flood" />
<feComposite operator="in" in2="noise1Clipped" in="color1Flood" result="color1" />
<feMerge result="effect1_noise_2873_43285">
<feMergeNode in="shape" />
<feMergeNode in="color1" />
</feMerge>
</filter>
</defs>
</svg>
